M48
; DRILL file {KiCad 7.0.2} date Wed May 17 08:24:21 2023
; FORMAT={-:-/ absolute / inch / decimal}
; #@! TF.CreationDate,2023-05-17T08:24:21+02:00
; #@! TF.GenerationSoftware,Kicad,Pcbnew,7.0.2
; #@! TF.FileFunction,Plated,1,2,PTH
FMAT,2
INCH
; #@! TA.AperFunction,Plated,PTH,ViaDrill
T1C0.0157
; #@! TA.AperFunction,Plated,PTH,ComponentDrill
T2C0.0394
; #@! TA.AperFunction,Plated,PTH,ComponentDrill
T3C0.0433
%
G90
G05
T1
X4.3461Y-4.3031
X4.4469Y-3.1874
X4.4528Y-4.7898
X4.4539Y-4.735
X4.4543Y-3.1067
X4.4543Y-4.6858
X4.4555Y-3.0445
X4.4555Y-3.1512
X4.4591Y-3.2268
X4.4882Y-4.2965
X4.5173Y-3.8252
X4.5205Y-3.7374
X4.5205Y-3.7768
X4.5449Y-4.1575
X4.6244Y-4.5252
X4.687Y-4.5268
X4.7406Y-4.526
X4.8094Y-3.1169
X4.8169Y-3.0752
X4.8327Y-4.7764
X4.9209Y-3.2645
X4.9252Y-3.2043
X4.948Y-3.0953
X4.9508Y-3.6154
X4.952Y-3.1838
X4.9823Y-3.2425
X5.0224Y-4.8374
X5.0276Y-3.374
X5.0646Y-3.6181
X5.0835Y-3.2866
X5.1039Y-2.9921
X5.1157Y-3.4693
X5.1283Y-3.0189
X5.1327Y-3.4406
X5.1555Y-3.4717
X5.1874Y-3.4961
X5.2161Y-3.474
X5.222Y-3.3969
X5.2402Y-3.1283
X5.2449Y-3.4868
X5.2705Y-3.4317
X5.2849Y-3.4016
X5.285Y-3.9
X5.3154Y-3.6102
X5.328Y-3.4839
X5.3305Y-3.3261
X5.3311Y-3.1012
X5.3314Y-3.3584
X5.3323Y-3.9004
X5.3496Y-3.2763
X5.3531Y-2.8346
X5.3619Y-3.3101
X5.3689Y-3.887
X5.3732Y-3.0364
X5.3751Y-2.9991
X5.376Y-3.2592
X5.3819Y-3.7976
X5.3921Y-3.1071
X5.3921Y-3.7638
X5.3992Y-3.0592
X5.3992Y-3.9008
X5.4102Y-2.9528
X5.4177Y-4.737
X5.4181Y-4.5106
X5.4228Y-4.465
X5.4248Y-3.8799
X5.4303Y-3.267
X5.4539Y-3.8992
X5.4661Y-4.7925
X5.4681Y-3.0623
X5.4717Y-3.614
X5.4791Y-3.1564
X5.4866Y-3.8886
X5.5002Y-4.0547
X5.502Y-3.2446
X5.5024Y-2.9824
X5.5043Y-3.3563
X5.5126Y-3.1469
X5.5213Y-4.1146
X5.524Y-3.8972
X5.5386Y-3.6981
X5.5461Y-4.7606
X5.5555Y-3.8768
X5.561Y-2.6701
X5.5634Y-4.4583
X5.5754Y-3.8479
X5.5894Y-3.3689
X5.5937Y-3.9921
X5.6087Y-3.1476
X5.6254Y-3.7378
X5.6394Y-2.7256
X5.7799Y-4.4768
X5.8201Y-3.1929
X5.8213Y-2.7606
X5.8752Y-3.2839
X5.922Y-3.378
X5.9406Y-2.9071
X5.9673Y-4.4748
X5.9929Y-3.8669
X5.9972Y-3.1421
T2
X5.7638Y-3.476
X5.7638Y-3.576
X5.7638Y-3.676
X5.7638Y-3.776
X5.7638Y-3.876
X5.7638Y-3.976
X5.7638Y-4.076
X5.7638Y-4.176
X5.7638Y-4.276
X5.7638Y-4.376
T3
X4.4461Y-3.4343
X4.4461Y-3.5343
T0
M30
