%TF.GenerationSoftware,KiCad,Pcbnew,7.0.2*%
%TF.CreationDate,2023-05-17T08:24:21+02:00*%
%TF.ProjectId,Solar Cell offgrid Power,536f6c61-7220-4436-956c-6c206f666667,rev?*%
%TF.SameCoordinates,Original*%
%TF.FileFunction,Drillmap*%
%TF.FilePolarity,Positive*%
%FSLAX45Y45*%
G04 Gerber Fmt 4.5, Leading zero omitted, Abs format (unit mm)*
G04 Created by KiCad (PCBNEW 7.0.2) date 2023-05-17 08:24:21*
%MOMM*%
%LPD*%
G01*
G04 APERTURE LIST*
%ADD10C,0.100000*%
%ADD11C,0.200000*%
%ADD12C,0.040000*%
%ADD13C,0.110000*%
G04 APERTURE END LIST*
D10*
X12473000Y-10009000D02*
G75*
G03*
X12279000Y-10009000I-97000J0D01*
G01*
X14480000Y-12005047D02*
G75*
G03*
X14521000Y-11962000I-30J41077D01*
G01*
X13892724Y-11474310D02*
X13893261Y-11963275D01*
X14421049Y-11574000D02*
G75*
G03*
X14378000Y-11533000I-41039J10D01*
G01*
X14035000Y-12004000D02*
X13936310Y-12004275D01*
X14380000Y-11903048D02*
G75*
G03*
X14421000Y-11860000I-20J41068D01*
G01*
X13991952Y-11861000D02*
G75*
G03*
X14035000Y-11902000I41058J10D01*
G01*
X13893255Y-11963275D02*
G75*
G03*
X13936310Y-12004275I41045J-5D01*
G01*
X14478951Y-11434000D02*
X13933724Y-11431261D01*
X14521000Y-11962000D02*
X14522000Y-11475000D01*
X14035000Y-12004000D02*
G75*
G03*
X14035000Y-11902000I10J51000D01*
G01*
X10919000Y-6569000D02*
X15657000Y-6569000D01*
X15657000Y-13378000D01*
X10919000Y-13378000D01*
X10919000Y-6569000D01*
X14380000Y-11903051D02*
G75*
G03*
X14380000Y-12005049I20J-50999D01*
G01*
X13991951Y-11861000D02*
X13993000Y-11575000D01*
X14421000Y-11860000D02*
X14421049Y-11574000D01*
X13933724Y-11431256D02*
G75*
G03*
X13892724Y-11474310I16J-41064D01*
G01*
X14521999Y-11475000D02*
G75*
G03*
X14478951Y-11434000I-41030J20D01*
G01*
X14034000Y-11531951D02*
X14378000Y-11533000D01*
X12279000Y-10009000D02*
X12279000Y-10943000D01*
X12279000Y-10943000D02*
G75*
G03*
X12473000Y-10943000I97000J0D01*
G01*
X12473000Y-10009000D02*
X12473000Y-10943000D01*
X14480000Y-12005049D02*
X14380000Y-12005049D01*
X14034000Y-11531950D02*
G75*
G03*
X13993000Y-11575000I-20J-41030D01*
G01*
D11*
D12*
X11019000Y-10910000D02*
X11059000Y-10950000D01*
X11059000Y-10910000D02*
X11019000Y-10950000D01*
X11275000Y-8076000D02*
X11315000Y-8116000D01*
X11315000Y-8076000D02*
X11275000Y-8116000D01*
X11290000Y-12146000D02*
X11330000Y-12186000D01*
X11330000Y-12146000D02*
X11290000Y-12186000D01*
X11293000Y-12007000D02*
X11333000Y-12047000D01*
X11333000Y-12007000D02*
X11293000Y-12047000D01*
X11294000Y-7871000D02*
X11334000Y-7911000D01*
X11334000Y-7871000D02*
X11294000Y-7911000D01*
X11294000Y-11882000D02*
X11334000Y-11922000D01*
X11334000Y-11882000D02*
X11294000Y-11922000D01*
X11297000Y-7713000D02*
X11337000Y-7753000D01*
X11337000Y-7713000D02*
X11297000Y-7753000D01*
X11297000Y-7984000D02*
X11337000Y-8024000D01*
X11337000Y-7984000D02*
X11297000Y-8024000D01*
X11306000Y-8176000D02*
X11346000Y-8216000D01*
X11346000Y-8176000D02*
X11306000Y-8216000D01*
X11380000Y-10893000D02*
X11420000Y-10933000D01*
X11420000Y-10893000D02*
X11380000Y-10933000D01*
X11454000Y-9696000D02*
X11494000Y-9736000D01*
X11494000Y-9696000D02*
X11454000Y-9736000D01*
X11462000Y-9473000D02*
X11502000Y-9513000D01*
X11502000Y-9473000D02*
X11462000Y-9513000D01*
X11462000Y-9573000D02*
X11502000Y-9613000D01*
X11502000Y-9573000D02*
X11462000Y-9613000D01*
X11524000Y-10540000D02*
X11564000Y-10580000D01*
X11564000Y-10540000D02*
X11524000Y-10580000D01*
X11726000Y-11474000D02*
X11766000Y-11514000D01*
X11766000Y-11474000D02*
X11726000Y-11514000D01*
X11885000Y-11478000D02*
X11925000Y-11518000D01*
X11925000Y-11478000D02*
X11885000Y-11518000D01*
X12021000Y-11476000D02*
X12061000Y-11516000D01*
X12061000Y-11476000D02*
X12021000Y-11516000D01*
X12196000Y-7897000D02*
X12236000Y-7937000D01*
X12236000Y-7897000D02*
X12196000Y-7937000D01*
X12215000Y-7791000D02*
X12255000Y-7831000D01*
X12255000Y-7791000D02*
X12215000Y-7831000D01*
X12255000Y-12112000D02*
X12295000Y-12152000D01*
X12295000Y-12112000D02*
X12255000Y-12152000D01*
X12479000Y-8271800D02*
X12519000Y-8311800D01*
X12519000Y-8271800D02*
X12479000Y-8311800D01*
X12490000Y-8119000D02*
X12530000Y-8159000D01*
X12530000Y-8119000D02*
X12490000Y-8159000D01*
X12548000Y-7842000D02*
X12588000Y-7882000D01*
X12588000Y-7842000D02*
X12548000Y-7882000D01*
X12555000Y-9163000D02*
X12595000Y-9203000D01*
X12595000Y-9163000D02*
X12555000Y-9203000D01*
X12558026Y-8066974D02*
X12598026Y-8106974D01*
X12598026Y-8066974D02*
X12558026Y-8106974D01*
X12635000Y-8216000D02*
X12675000Y-8256000D01*
X12675000Y-8216000D02*
X12635000Y-8256000D01*
X12737000Y-12267000D02*
X12777000Y-12307000D01*
X12777000Y-12267000D02*
X12737000Y-12307000D01*
X12750000Y-8550000D02*
X12790000Y-8590000D01*
X12790000Y-8550000D02*
X12750000Y-8590000D01*
X12844000Y-9170000D02*
X12884000Y-9210000D01*
X12884000Y-9170000D02*
X12844000Y-9210000D01*
X12892000Y-8328000D02*
X12932000Y-8368000D01*
X12932000Y-8328000D02*
X12892000Y-8368000D01*
X12944000Y-7580000D02*
X12984000Y-7620000D01*
X12984000Y-7580000D02*
X12944000Y-7620000D01*
X12974000Y-8792000D02*
X13014000Y-8832000D01*
X13014000Y-8792000D02*
X12974000Y-8832000D01*
X13006000Y-7648000D02*
X13046000Y-7688000D01*
X13046000Y-7648000D02*
X13006000Y-7688000D01*
X13017000Y-8719000D02*
X13057000Y-8759000D01*
X13057000Y-8719000D02*
X13017000Y-8759000D01*
X13075000Y-8798000D02*
X13115000Y-8838000D01*
X13115000Y-8798000D02*
X13075000Y-8838000D01*
X13156000Y-8860000D02*
X13196000Y-8900000D01*
X13196000Y-8860000D02*
X13156000Y-8900000D01*
X13229000Y-8804000D02*
X13269000Y-8844000D01*
X13269000Y-8804000D02*
X13229000Y-8844000D01*
X13244000Y-8608000D02*
X13284000Y-8648000D01*
X13284000Y-8608000D02*
X13244000Y-8648000D01*
X13290000Y-7926000D02*
X13330000Y-7966000D01*
X13330000Y-7926000D02*
X13290000Y-7966000D01*
X13302024Y-8836550D02*
X13342024Y-8876550D01*
X13342024Y-8836550D02*
X13302024Y-8876550D01*
X13367050Y-8696515D02*
X13407050Y-8736515D01*
X13407050Y-8696515D02*
X13367050Y-8736515D01*
X13403746Y-8619993D02*
X13443746Y-8659993D01*
X13443746Y-8619993D02*
X13403746Y-8659993D01*
X13404000Y-9886000D02*
X13444000Y-9926000D01*
X13444000Y-9886000D02*
X13404000Y-9926000D01*
X13481000Y-9150000D02*
X13521000Y-9190000D01*
X13521000Y-9150000D02*
X13481000Y-9190000D01*
X13513000Y-8829000D02*
X13553000Y-8869000D01*
X13553000Y-8829000D02*
X13513000Y-8869000D01*
X13519450Y-8428228D02*
X13559450Y-8468228D01*
X13559450Y-8428228D02*
X13519450Y-8468228D01*
X13521000Y-7857000D02*
X13561000Y-7897000D01*
X13561000Y-7857000D02*
X13521000Y-7897000D01*
X13521828Y-8510446D02*
X13561828Y-8550446D01*
X13561828Y-8510446D02*
X13521828Y-8550446D01*
X13524000Y-9887000D02*
X13564000Y-9927000D01*
X13564000Y-9887000D02*
X13524000Y-9927000D01*
X13568051Y-8301876D02*
X13608051Y-8341876D01*
X13608051Y-8301876D02*
X13568051Y-8341876D01*
X13577000Y-7180000D02*
X13617000Y-7220000D01*
X13617000Y-7180000D02*
X13577000Y-7220000D01*
X13599247Y-8387754D02*
X13639247Y-8427754D01*
X13639247Y-8387754D02*
X13599247Y-8427754D01*
X13617000Y-9853000D02*
X13657000Y-9893000D01*
X13657000Y-9853000D02*
X13617000Y-9893000D01*
X13627898Y-7692352D02*
X13667898Y-7732352D01*
X13667898Y-7692352D02*
X13627898Y-7732352D01*
X13632831Y-7597677D02*
X13672831Y-7637677D01*
X13672831Y-7597677D02*
X13632831Y-7637677D01*
X13635050Y-8258250D02*
X13675050Y-8298250D01*
X13675050Y-8258250D02*
X13635050Y-8298250D01*
X13650000Y-9626000D02*
X13690000Y-9666000D01*
X13690000Y-9626000D02*
X13650000Y-9666000D01*
X13676000Y-7872000D02*
X13716000Y-7912000D01*
X13716000Y-7872000D02*
X13676000Y-7912000D01*
X13676000Y-9540000D02*
X13716000Y-9580000D01*
X13716000Y-9540000D02*
X13676000Y-9580000D01*
X13694000Y-7750250D02*
X13734000Y-7790250D01*
X13734000Y-7750250D02*
X13694000Y-7790250D01*
X13694000Y-9888000D02*
X13734000Y-9928000D01*
X13734000Y-9888000D02*
X13694000Y-9928000D01*
X13722000Y-7480000D02*
X13762000Y-7520000D01*
X13762000Y-7480000D02*
X13722000Y-7520000D01*
X13741000Y-12012000D02*
X13781000Y-12052000D01*
X13781000Y-12012000D02*
X13741000Y-12052000D01*
X13742000Y-11437000D02*
X13782000Y-11477000D01*
X13782000Y-11437000D02*
X13742000Y-11477000D01*
X13754000Y-11321000D02*
X13794000Y-11361000D01*
X13794000Y-11321000D02*
X13754000Y-11361000D01*
X13759000Y-9835000D02*
X13799000Y-9875000D01*
X13799000Y-9835000D02*
X13759000Y-9875000D01*
X13773000Y-8278250D02*
X13813000Y-8318250D01*
X13813000Y-8278250D02*
X13773000Y-8318250D01*
X13833000Y-9884000D02*
X13873000Y-9924000D01*
X13873000Y-9884000D02*
X13833000Y-9924000D01*
X13864000Y-12153000D02*
X13904000Y-12193000D01*
X13904000Y-12153000D02*
X13864000Y-12193000D01*
X13869000Y-7758250D02*
X13909000Y-7798250D01*
X13909000Y-7758250D02*
X13869000Y-7798250D01*
X13878089Y-9159568D02*
X13918089Y-9199568D01*
X13918089Y-9159568D02*
X13878089Y-9199568D01*
X13897000Y-7997250D02*
X13937000Y-8037250D01*
X13937000Y-7997250D02*
X13897000Y-8037250D01*
X13916000Y-9857000D02*
X13956000Y-9897000D01*
X13956000Y-9857000D02*
X13916000Y-9897000D01*
X13950450Y-10279000D02*
X13990450Y-10319000D01*
X13990450Y-10279000D02*
X13950450Y-10319000D01*
X13955000Y-8221250D02*
X13995000Y-8261250D01*
X13995000Y-8221250D02*
X13955000Y-8261250D01*
X13956000Y-7555250D02*
X13996000Y-7595250D01*
X13996000Y-7555250D02*
X13956000Y-7595250D01*
X13961000Y-8505000D02*
X14001000Y-8545000D01*
X14001000Y-8505000D02*
X13961000Y-8545000D01*
X13982000Y-7973250D02*
X14022000Y-8013250D01*
X14022000Y-7973250D02*
X13982000Y-8013250D01*
X14004000Y-10431000D02*
X14044000Y-10471000D01*
X14044000Y-10431000D02*
X14004000Y-10471000D01*
X14011000Y-9879000D02*
X14051000Y-9919000D01*
X14051000Y-9879000D02*
X14011000Y-9919000D01*
X14048000Y-9373050D02*
X14088000Y-9413050D01*
X14088000Y-9373050D02*
X14048000Y-9413050D01*
X14067000Y-12072000D02*
X14107000Y-12112000D01*
X14107000Y-12072000D02*
X14067000Y-12112000D01*
X14091000Y-9827000D02*
X14131000Y-9867000D01*
X14131000Y-9827000D02*
X14091000Y-9867000D01*
X14105000Y-6762000D02*
X14145000Y-6802000D01*
X14145000Y-6762000D02*
X14105000Y-6802000D01*
X14111000Y-11304000D02*
X14151000Y-11344000D01*
X14151000Y-11304000D02*
X14111000Y-11344000D01*
X14141623Y-9753623D02*
X14181623Y-9793623D01*
X14181623Y-9753623D02*
X14141623Y-9793623D01*
X14177000Y-8537000D02*
X14217000Y-8577000D01*
X14217000Y-8537000D02*
X14177000Y-8577000D01*
X14188000Y-10120000D02*
X14228000Y-10160000D01*
X14228000Y-10120000D02*
X14188000Y-10160000D01*
X14226000Y-7975000D02*
X14266000Y-8015000D01*
X14266000Y-7975000D02*
X14226000Y-8015000D01*
X14268450Y-9474000D02*
X14308450Y-9514000D01*
X14308450Y-9474000D02*
X14268450Y-9514000D01*
X14304000Y-6903000D02*
X14344000Y-6943000D01*
X14344000Y-6903000D02*
X14304000Y-6943000D01*
X14661000Y-11351000D02*
X14701000Y-11391000D01*
X14701000Y-11351000D02*
X14661000Y-11391000D01*
X14763000Y-8090000D02*
X14803000Y-8130000D01*
X14803000Y-8090000D02*
X14763000Y-8130000D01*
X14766000Y-6992000D02*
X14806000Y-7032000D01*
X14806000Y-6992000D02*
X14766000Y-7032000D01*
X14903000Y-8321000D02*
X14943000Y-8361000D01*
X14943000Y-8321000D02*
X14903000Y-8361000D01*
X15022000Y-8560000D02*
X15062000Y-8600000D01*
X15062000Y-8560000D02*
X15022000Y-8600000D01*
X15069000Y-7364000D02*
X15109000Y-7404000D01*
X15109000Y-7364000D02*
X15069000Y-7404000D01*
X15137000Y-11346000D02*
X15177000Y-11386000D01*
X15177000Y-11346000D02*
X15137000Y-11386000D01*
X15202000Y-9802000D02*
X15242000Y-9842000D01*
X15242000Y-9802000D02*
X15202000Y-9842000D01*
X15213000Y-7961000D02*
X15253000Y-8001000D01*
X15253000Y-7961000D02*
X15213000Y-8001000D01*
D10*
X14690000Y-8829000D02*
G75*
G03*
X14690000Y-8829000I-50000J0D01*
G01*
X14690000Y-9083000D02*
G75*
G03*
X14690000Y-9083000I-50000J0D01*
G01*
X14690000Y-9337000D02*
G75*
G03*
X14690000Y-9337000I-50000J0D01*
G01*
X14690000Y-9591000D02*
G75*
G03*
X14690000Y-9591000I-50000J0D01*
G01*
X14690000Y-9845000D02*
G75*
G03*
X14690000Y-9845000I-50000J0D01*
G01*
X14690000Y-10099000D02*
G75*
G03*
X14690000Y-10099000I-50000J0D01*
G01*
X14690000Y-10353000D02*
G75*
G03*
X14690000Y-10353000I-50000J0D01*
G01*
X14690000Y-10607000D02*
G75*
G03*
X14690000Y-10607000I-50000J0D01*
G01*
X14690000Y-10861000D02*
G75*
G03*
X14690000Y-10861000I-50000J0D01*
G01*
X14690000Y-11115000D02*
G75*
G03*
X14690000Y-11115000I-50000J0D01*
G01*
D13*
X11293000Y-8668000D02*
X11293000Y-8778000D01*
X11238000Y-8723000D02*
X11348000Y-8723000D01*
X11293000Y-8922000D02*
X11293000Y-9032000D01*
X11238000Y-8977000D02*
X11348000Y-8977000D01*
D11*
X11161619Y-13695524D02*
X11161619Y-13495524D01*
X11161619Y-13495524D02*
X11209238Y-13495524D01*
X11209238Y-13495524D02*
X11237809Y-13505048D01*
X11237809Y-13505048D02*
X11256857Y-13524095D01*
X11256857Y-13524095D02*
X11266381Y-13543143D01*
X11266381Y-13543143D02*
X11275905Y-13581238D01*
X11275905Y-13581238D02*
X11275905Y-13609809D01*
X11275905Y-13609809D02*
X11266381Y-13647905D01*
X11266381Y-13647905D02*
X11256857Y-13666952D01*
X11256857Y-13666952D02*
X11237809Y-13686000D01*
X11237809Y-13686000D02*
X11209238Y-13695524D01*
X11209238Y-13695524D02*
X11161619Y-13695524D01*
X11361619Y-13695524D02*
X11361619Y-13562190D01*
X11361619Y-13600286D02*
X11371143Y-13581238D01*
X11371143Y-13581238D02*
X11380667Y-13571714D01*
X11380667Y-13571714D02*
X11399714Y-13562190D01*
X11399714Y-13562190D02*
X11418762Y-13562190D01*
X11485428Y-13695524D02*
X11485428Y-13562190D01*
X11485428Y-13495524D02*
X11475905Y-13505048D01*
X11475905Y-13505048D02*
X11485428Y-13514571D01*
X11485428Y-13514571D02*
X11494952Y-13505048D01*
X11494952Y-13505048D02*
X11485428Y-13495524D01*
X11485428Y-13495524D02*
X11485428Y-13514571D01*
X11609238Y-13695524D02*
X11590190Y-13686000D01*
X11590190Y-13686000D02*
X11580667Y-13666952D01*
X11580667Y-13666952D02*
X11580667Y-13495524D01*
X11714000Y-13695524D02*
X11694952Y-13686000D01*
X11694952Y-13686000D02*
X11685428Y-13666952D01*
X11685428Y-13666952D02*
X11685428Y-13495524D01*
X11942571Y-13695524D02*
X11942571Y-13495524D01*
X11942571Y-13495524D02*
X12009238Y-13638381D01*
X12009238Y-13638381D02*
X12075905Y-13495524D01*
X12075905Y-13495524D02*
X12075905Y-13695524D01*
X12256857Y-13695524D02*
X12256857Y-13590762D01*
X12256857Y-13590762D02*
X12247333Y-13571714D01*
X12247333Y-13571714D02*
X12228286Y-13562190D01*
X12228286Y-13562190D02*
X12190190Y-13562190D01*
X12190190Y-13562190D02*
X12171143Y-13571714D01*
X12256857Y-13686000D02*
X12237809Y-13695524D01*
X12237809Y-13695524D02*
X12190190Y-13695524D01*
X12190190Y-13695524D02*
X12171143Y-13686000D01*
X12171143Y-13686000D02*
X12161619Y-13666952D01*
X12161619Y-13666952D02*
X12161619Y-13647905D01*
X12161619Y-13647905D02*
X12171143Y-13628857D01*
X12171143Y-13628857D02*
X12190190Y-13619333D01*
X12190190Y-13619333D02*
X12237809Y-13619333D01*
X12237809Y-13619333D02*
X12256857Y-13609809D01*
X12352095Y-13562190D02*
X12352095Y-13762190D01*
X12352095Y-13571714D02*
X12371143Y-13562190D01*
X12371143Y-13562190D02*
X12409238Y-13562190D01*
X12409238Y-13562190D02*
X12428286Y-13571714D01*
X12428286Y-13571714D02*
X12437809Y-13581238D01*
X12437809Y-13581238D02*
X12447333Y-13600286D01*
X12447333Y-13600286D02*
X12447333Y-13657428D01*
X12447333Y-13657428D02*
X12437809Y-13676476D01*
X12437809Y-13676476D02*
X12428286Y-13686000D01*
X12428286Y-13686000D02*
X12409238Y-13695524D01*
X12409238Y-13695524D02*
X12371143Y-13695524D01*
X12371143Y-13695524D02*
X12352095Y-13686000D01*
X12533048Y-13676476D02*
X12542571Y-13686000D01*
X12542571Y-13686000D02*
X12533048Y-13695524D01*
X12533048Y-13695524D02*
X12523524Y-13686000D01*
X12523524Y-13686000D02*
X12533048Y-13676476D01*
X12533048Y-13676476D02*
X12533048Y-13695524D01*
X12533048Y-13571714D02*
X12542571Y-13581238D01*
X12542571Y-13581238D02*
X12533048Y-13590762D01*
X12533048Y-13590762D02*
X12523524Y-13581238D01*
X12523524Y-13581238D02*
X12533048Y-13571714D01*
X12533048Y-13571714D02*
X12533048Y-13590762D01*
D12*
X10874000Y-14003000D02*
X10914000Y-14043000D01*
X10914000Y-14003000D02*
X10874000Y-14043000D01*
D11*
X11199714Y-13915524D02*
X11218762Y-13915524D01*
X11218762Y-13915524D02*
X11237809Y-13925048D01*
X11237809Y-13925048D02*
X11247333Y-13934571D01*
X11247333Y-13934571D02*
X11256857Y-13953619D01*
X11256857Y-13953619D02*
X11266381Y-13991714D01*
X11266381Y-13991714D02*
X11266381Y-14039333D01*
X11266381Y-14039333D02*
X11256857Y-14077428D01*
X11256857Y-14077428D02*
X11247333Y-14096476D01*
X11247333Y-14096476D02*
X11237809Y-14106000D01*
X11237809Y-14106000D02*
X11218762Y-14115524D01*
X11218762Y-14115524D02*
X11199714Y-14115524D01*
X11199714Y-14115524D02*
X11180667Y-14106000D01*
X11180667Y-14106000D02*
X11171143Y-14096476D01*
X11171143Y-14096476D02*
X11161619Y-14077428D01*
X11161619Y-14077428D02*
X11152095Y-14039333D01*
X11152095Y-14039333D02*
X11152095Y-13991714D01*
X11152095Y-13991714D02*
X11161619Y-13953619D01*
X11161619Y-13953619D02*
X11171143Y-13934571D01*
X11171143Y-13934571D02*
X11180667Y-13925048D01*
X11180667Y-13925048D02*
X11199714Y-13915524D01*
X11352095Y-14096476D02*
X11361619Y-14106000D01*
X11361619Y-14106000D02*
X11352095Y-14115524D01*
X11352095Y-14115524D02*
X11342571Y-14106000D01*
X11342571Y-14106000D02*
X11352095Y-14096476D01*
X11352095Y-14096476D02*
X11352095Y-14115524D01*
X11533048Y-13982190D02*
X11533048Y-14115524D01*
X11485428Y-13906000D02*
X11437809Y-14048857D01*
X11437809Y-14048857D02*
X11561619Y-14048857D01*
X11675905Y-13915524D02*
X11694952Y-13915524D01*
X11694952Y-13915524D02*
X11714000Y-13925048D01*
X11714000Y-13925048D02*
X11723524Y-13934571D01*
X11723524Y-13934571D02*
X11733048Y-13953619D01*
X11733048Y-13953619D02*
X11742571Y-13991714D01*
X11742571Y-13991714D02*
X11742571Y-14039333D01*
X11742571Y-14039333D02*
X11733048Y-14077428D01*
X11733048Y-14077428D02*
X11723524Y-14096476D01*
X11723524Y-14096476D02*
X11714000Y-14106000D01*
X11714000Y-14106000D02*
X11694952Y-14115524D01*
X11694952Y-14115524D02*
X11675905Y-14115524D01*
X11675905Y-14115524D02*
X11656857Y-14106000D01*
X11656857Y-14106000D02*
X11647333Y-14096476D01*
X11647333Y-14096476D02*
X11637809Y-14077428D01*
X11637809Y-14077428D02*
X11628286Y-14039333D01*
X11628286Y-14039333D02*
X11628286Y-13991714D01*
X11628286Y-13991714D02*
X11637809Y-13953619D01*
X11637809Y-13953619D02*
X11647333Y-13934571D01*
X11647333Y-13934571D02*
X11656857Y-13925048D01*
X11656857Y-13925048D02*
X11675905Y-13915524D01*
X11866381Y-13915524D02*
X11885429Y-13915524D01*
X11885429Y-13915524D02*
X11904476Y-13925048D01*
X11904476Y-13925048D02*
X11914000Y-13934571D01*
X11914000Y-13934571D02*
X11923524Y-13953619D01*
X11923524Y-13953619D02*
X11933048Y-13991714D01*
X11933048Y-13991714D02*
X11933048Y-14039333D01*
X11933048Y-14039333D02*
X11923524Y-14077428D01*
X11923524Y-14077428D02*
X11914000Y-14096476D01*
X11914000Y-14096476D02*
X11904476Y-14106000D01*
X11904476Y-14106000D02*
X11885429Y-14115524D01*
X11885429Y-14115524D02*
X11866381Y-14115524D01*
X11866381Y-14115524D02*
X11847333Y-14106000D01*
X11847333Y-14106000D02*
X11837809Y-14096476D01*
X11837809Y-14096476D02*
X11828286Y-14077428D01*
X11828286Y-14077428D02*
X11818762Y-14039333D01*
X11818762Y-14039333D02*
X11818762Y-13991714D01*
X11818762Y-13991714D02*
X11828286Y-13953619D01*
X11828286Y-13953619D02*
X11837809Y-13934571D01*
X11837809Y-13934571D02*
X11847333Y-13925048D01*
X11847333Y-13925048D02*
X11866381Y-13915524D01*
X12018762Y-14115524D02*
X12018762Y-13982190D01*
X12018762Y-14001238D02*
X12028286Y-13991714D01*
X12028286Y-13991714D02*
X12047333Y-13982190D01*
X12047333Y-13982190D02*
X12075905Y-13982190D01*
X12075905Y-13982190D02*
X12094952Y-13991714D01*
X12094952Y-13991714D02*
X12104476Y-14010762D01*
X12104476Y-14010762D02*
X12104476Y-14115524D01*
X12104476Y-14010762D02*
X12114000Y-13991714D01*
X12114000Y-13991714D02*
X12133048Y-13982190D01*
X12133048Y-13982190D02*
X12161619Y-13982190D01*
X12161619Y-13982190D02*
X12180667Y-13991714D01*
X12180667Y-13991714D02*
X12190190Y-14010762D01*
X12190190Y-14010762D02*
X12190190Y-14115524D01*
X12285429Y-14115524D02*
X12285429Y-13982190D01*
X12285429Y-14001238D02*
X12294952Y-13991714D01*
X12294952Y-13991714D02*
X12314000Y-13982190D01*
X12314000Y-13982190D02*
X12342571Y-13982190D01*
X12342571Y-13982190D02*
X12361619Y-13991714D01*
X12361619Y-13991714D02*
X12371143Y-14010762D01*
X12371143Y-14010762D02*
X12371143Y-14115524D01*
X12371143Y-14010762D02*
X12380667Y-13991714D01*
X12380667Y-13991714D02*
X12399714Y-13982190D01*
X12399714Y-13982190D02*
X12428286Y-13982190D01*
X12428286Y-13982190D02*
X12447333Y-13991714D01*
X12447333Y-13991714D02*
X12456857Y-14010762D01*
X12456857Y-14010762D02*
X12456857Y-14115524D01*
X12847333Y-13906000D02*
X12675905Y-14163143D01*
X13104476Y-13915524D02*
X13123524Y-13915524D01*
X13123524Y-13915524D02*
X13142572Y-13925048D01*
X13142572Y-13925048D02*
X13152095Y-13934571D01*
X13152095Y-13934571D02*
X13161619Y-13953619D01*
X13161619Y-13953619D02*
X13171143Y-13991714D01*
X13171143Y-13991714D02*
X13171143Y-14039333D01*
X13171143Y-14039333D02*
X13161619Y-14077428D01*
X13161619Y-14077428D02*
X13152095Y-14096476D01*
X13152095Y-14096476D02*
X13142572Y-14106000D01*
X13142572Y-14106000D02*
X13123524Y-14115524D01*
X13123524Y-14115524D02*
X13104476Y-14115524D01*
X13104476Y-14115524D02*
X13085429Y-14106000D01*
X13085429Y-14106000D02*
X13075905Y-14096476D01*
X13075905Y-14096476D02*
X13066381Y-14077428D01*
X13066381Y-14077428D02*
X13056857Y-14039333D01*
X13056857Y-14039333D02*
X13056857Y-13991714D01*
X13056857Y-13991714D02*
X13066381Y-13953619D01*
X13066381Y-13953619D02*
X13075905Y-13934571D01*
X13075905Y-13934571D02*
X13085429Y-13925048D01*
X13085429Y-13925048D02*
X13104476Y-13915524D01*
X13256857Y-14096476D02*
X13266381Y-14106000D01*
X13266381Y-14106000D02*
X13256857Y-14115524D01*
X13256857Y-14115524D02*
X13247333Y-14106000D01*
X13247333Y-14106000D02*
X13256857Y-14096476D01*
X13256857Y-14096476D02*
X13256857Y-14115524D01*
X13390191Y-13915524D02*
X13409238Y-13915524D01*
X13409238Y-13915524D02*
X13428286Y-13925048D01*
X13428286Y-13925048D02*
X13437810Y-13934571D01*
X13437810Y-13934571D02*
X13447333Y-13953619D01*
X13447333Y-13953619D02*
X13456857Y-13991714D01*
X13456857Y-13991714D02*
X13456857Y-14039333D01*
X13456857Y-14039333D02*
X13447333Y-14077428D01*
X13447333Y-14077428D02*
X13437810Y-14096476D01*
X13437810Y-14096476D02*
X13428286Y-14106000D01*
X13428286Y-14106000D02*
X13409238Y-14115524D01*
X13409238Y-14115524D02*
X13390191Y-14115524D01*
X13390191Y-14115524D02*
X13371143Y-14106000D01*
X13371143Y-14106000D02*
X13361619Y-14096476D01*
X13361619Y-14096476D02*
X13352095Y-14077428D01*
X13352095Y-14077428D02*
X13342572Y-14039333D01*
X13342572Y-14039333D02*
X13342572Y-13991714D01*
X13342572Y-13991714D02*
X13352095Y-13953619D01*
X13352095Y-13953619D02*
X13361619Y-13934571D01*
X13361619Y-13934571D02*
X13371143Y-13925048D01*
X13371143Y-13925048D02*
X13390191Y-13915524D01*
X13647333Y-14115524D02*
X13533048Y-14115524D01*
X13590191Y-14115524D02*
X13590191Y-13915524D01*
X13590191Y-13915524D02*
X13571143Y-13944095D01*
X13571143Y-13944095D02*
X13552095Y-13963143D01*
X13552095Y-13963143D02*
X13533048Y-13972667D01*
X13828286Y-13915524D02*
X13733048Y-13915524D01*
X13733048Y-13915524D02*
X13723524Y-14010762D01*
X13723524Y-14010762D02*
X13733048Y-14001238D01*
X13733048Y-14001238D02*
X13752095Y-13991714D01*
X13752095Y-13991714D02*
X13799714Y-13991714D01*
X13799714Y-13991714D02*
X13818762Y-14001238D01*
X13818762Y-14001238D02*
X13828286Y-14010762D01*
X13828286Y-14010762D02*
X13837810Y-14029809D01*
X13837810Y-14029809D02*
X13837810Y-14077428D01*
X13837810Y-14077428D02*
X13828286Y-14096476D01*
X13828286Y-14096476D02*
X13818762Y-14106000D01*
X13818762Y-14106000D02*
X13799714Y-14115524D01*
X13799714Y-14115524D02*
X13752095Y-14115524D01*
X13752095Y-14115524D02*
X13733048Y-14106000D01*
X13733048Y-14106000D02*
X13723524Y-14096476D01*
X13904476Y-13915524D02*
X14037810Y-13915524D01*
X14037810Y-13915524D02*
X13952095Y-14115524D01*
X14104476Y-13915524D02*
X14104476Y-13953619D01*
X14180667Y-13915524D02*
X14180667Y-13953619D01*
X14475905Y-14191714D02*
X14466381Y-14182190D01*
X14466381Y-14182190D02*
X14447334Y-14153619D01*
X14447334Y-14153619D02*
X14437810Y-14134571D01*
X14437810Y-14134571D02*
X14428286Y-14106000D01*
X14428286Y-14106000D02*
X14418762Y-14058381D01*
X14418762Y-14058381D02*
X14418762Y-14020286D01*
X14418762Y-14020286D02*
X14428286Y-13972667D01*
X14428286Y-13972667D02*
X14437810Y-13944095D01*
X14437810Y-13944095D02*
X14447334Y-13925048D01*
X14447334Y-13925048D02*
X14466381Y-13896476D01*
X14466381Y-13896476D02*
X14475905Y-13886952D01*
X14656857Y-14115524D02*
X14542572Y-14115524D01*
X14599714Y-14115524D02*
X14599714Y-13915524D01*
X14599714Y-13915524D02*
X14580667Y-13944095D01*
X14580667Y-13944095D02*
X14561619Y-13963143D01*
X14561619Y-13963143D02*
X14542572Y-13972667D01*
X14780667Y-13915524D02*
X14799715Y-13915524D01*
X14799715Y-13915524D02*
X14818762Y-13925048D01*
X14818762Y-13925048D02*
X14828286Y-13934571D01*
X14828286Y-13934571D02*
X14837810Y-13953619D01*
X14837810Y-13953619D02*
X14847334Y-13991714D01*
X14847334Y-13991714D02*
X14847334Y-14039333D01*
X14847334Y-14039333D02*
X14837810Y-14077428D01*
X14837810Y-14077428D02*
X14828286Y-14096476D01*
X14828286Y-14096476D02*
X14818762Y-14106000D01*
X14818762Y-14106000D02*
X14799715Y-14115524D01*
X14799715Y-14115524D02*
X14780667Y-14115524D01*
X14780667Y-14115524D02*
X14761619Y-14106000D01*
X14761619Y-14106000D02*
X14752095Y-14096476D01*
X14752095Y-14096476D02*
X14742572Y-14077428D01*
X14742572Y-14077428D02*
X14733048Y-14039333D01*
X14733048Y-14039333D02*
X14733048Y-13991714D01*
X14733048Y-13991714D02*
X14742572Y-13953619D01*
X14742572Y-13953619D02*
X14752095Y-13934571D01*
X14752095Y-13934571D02*
X14761619Y-13925048D01*
X14761619Y-13925048D02*
X14780667Y-13915524D01*
X14971143Y-13915524D02*
X14990191Y-13915524D01*
X14990191Y-13915524D02*
X15009238Y-13925048D01*
X15009238Y-13925048D02*
X15018762Y-13934571D01*
X15018762Y-13934571D02*
X15028286Y-13953619D01*
X15028286Y-13953619D02*
X15037810Y-13991714D01*
X15037810Y-13991714D02*
X15037810Y-14039333D01*
X15037810Y-14039333D02*
X15028286Y-14077428D01*
X15028286Y-14077428D02*
X15018762Y-14096476D01*
X15018762Y-14096476D02*
X15009238Y-14106000D01*
X15009238Y-14106000D02*
X14990191Y-14115524D01*
X14990191Y-14115524D02*
X14971143Y-14115524D01*
X14971143Y-14115524D02*
X14952095Y-14106000D01*
X14952095Y-14106000D02*
X14942572Y-14096476D01*
X14942572Y-14096476D02*
X14933048Y-14077428D01*
X14933048Y-14077428D02*
X14923524Y-14039333D01*
X14923524Y-14039333D02*
X14923524Y-13991714D01*
X14923524Y-13991714D02*
X14933048Y-13953619D01*
X14933048Y-13953619D02*
X14942572Y-13934571D01*
X14942572Y-13934571D02*
X14952095Y-13925048D01*
X14952095Y-13925048D02*
X14971143Y-13915524D01*
X15275905Y-14115524D02*
X15275905Y-13915524D01*
X15361619Y-14115524D02*
X15361619Y-14010762D01*
X15361619Y-14010762D02*
X15352096Y-13991714D01*
X15352096Y-13991714D02*
X15333048Y-13982190D01*
X15333048Y-13982190D02*
X15304476Y-13982190D01*
X15304476Y-13982190D02*
X15285429Y-13991714D01*
X15285429Y-13991714D02*
X15275905Y-14001238D01*
X15485429Y-14115524D02*
X15466381Y-14106000D01*
X15466381Y-14106000D02*
X15456857Y-14096476D01*
X15456857Y-14096476D02*
X15447334Y-14077428D01*
X15447334Y-14077428D02*
X15447334Y-14020286D01*
X15447334Y-14020286D02*
X15456857Y-14001238D01*
X15456857Y-14001238D02*
X15466381Y-13991714D01*
X15466381Y-13991714D02*
X15485429Y-13982190D01*
X15485429Y-13982190D02*
X15514000Y-13982190D01*
X15514000Y-13982190D02*
X15533048Y-13991714D01*
X15533048Y-13991714D02*
X15542572Y-14001238D01*
X15542572Y-14001238D02*
X15552096Y-14020286D01*
X15552096Y-14020286D02*
X15552096Y-14077428D01*
X15552096Y-14077428D02*
X15542572Y-14096476D01*
X15542572Y-14096476D02*
X15533048Y-14106000D01*
X15533048Y-14106000D02*
X15514000Y-14115524D01*
X15514000Y-14115524D02*
X15485429Y-14115524D01*
X15666381Y-14115524D02*
X15647334Y-14106000D01*
X15647334Y-14106000D02*
X15637810Y-14086952D01*
X15637810Y-14086952D02*
X15637810Y-13915524D01*
X15818762Y-14106000D02*
X15799715Y-14115524D01*
X15799715Y-14115524D02*
X15761619Y-14115524D01*
X15761619Y-14115524D02*
X15742572Y-14106000D01*
X15742572Y-14106000D02*
X15733048Y-14086952D01*
X15733048Y-14086952D02*
X15733048Y-14010762D01*
X15733048Y-14010762D02*
X15742572Y-13991714D01*
X15742572Y-13991714D02*
X15761619Y-13982190D01*
X15761619Y-13982190D02*
X15799715Y-13982190D01*
X15799715Y-13982190D02*
X15818762Y-13991714D01*
X15818762Y-13991714D02*
X15828286Y-14010762D01*
X15828286Y-14010762D02*
X15828286Y-14029809D01*
X15828286Y-14029809D02*
X15733048Y-14048857D01*
X15904477Y-14106000D02*
X15923524Y-14115524D01*
X15923524Y-14115524D02*
X15961619Y-14115524D01*
X15961619Y-14115524D02*
X15980667Y-14106000D01*
X15980667Y-14106000D02*
X15990191Y-14086952D01*
X15990191Y-14086952D02*
X15990191Y-14077428D01*
X15990191Y-14077428D02*
X15980667Y-14058381D01*
X15980667Y-14058381D02*
X15961619Y-14048857D01*
X15961619Y-14048857D02*
X15933048Y-14048857D01*
X15933048Y-14048857D02*
X15914000Y-14039333D01*
X15914000Y-14039333D02*
X15904477Y-14020286D01*
X15904477Y-14020286D02*
X15904477Y-14010762D01*
X15904477Y-14010762D02*
X15914000Y-13991714D01*
X15914000Y-13991714D02*
X15933048Y-13982190D01*
X15933048Y-13982190D02*
X15961619Y-13982190D01*
X15961619Y-13982190D02*
X15980667Y-13991714D01*
X16056858Y-14191714D02*
X16066381Y-14182190D01*
X16066381Y-14182190D02*
X16085429Y-14153619D01*
X16085429Y-14153619D02*
X16094953Y-14134571D01*
X16094953Y-14134571D02*
X16104477Y-14106000D01*
X16104477Y-14106000D02*
X16114000Y-14058381D01*
X16114000Y-14058381D02*
X16114000Y-14020286D01*
X16114000Y-14020286D02*
X16104477Y-13972667D01*
X16104477Y-13972667D02*
X16094953Y-13944095D01*
X16094953Y-13944095D02*
X16085429Y-13925048D01*
X16085429Y-13925048D02*
X16066381Y-13896476D01*
X16066381Y-13896476D02*
X16056858Y-13886952D01*
D10*
X10914000Y-14287000D02*
G75*
G03*
X10914000Y-14287000I-50000J0D01*
G01*
D11*
X11266381Y-14379524D02*
X11152095Y-14379524D01*
X11209238Y-14379524D02*
X11209238Y-14179524D01*
X11209238Y-14179524D02*
X11190190Y-14208095D01*
X11190190Y-14208095D02*
X11171143Y-14227143D01*
X11171143Y-14227143D02*
X11152095Y-14236667D01*
X11352095Y-14360476D02*
X11361619Y-14370000D01*
X11361619Y-14370000D02*
X11352095Y-14379524D01*
X11352095Y-14379524D02*
X11342571Y-14370000D01*
X11342571Y-14370000D02*
X11352095Y-14360476D01*
X11352095Y-14360476D02*
X11352095Y-14379524D01*
X11485428Y-14179524D02*
X11504476Y-14179524D01*
X11504476Y-14179524D02*
X11523524Y-14189048D01*
X11523524Y-14189048D02*
X11533048Y-14198571D01*
X11533048Y-14198571D02*
X11542571Y-14217619D01*
X11542571Y-14217619D02*
X11552095Y-14255714D01*
X11552095Y-14255714D02*
X11552095Y-14303333D01*
X11552095Y-14303333D02*
X11542571Y-14341428D01*
X11542571Y-14341428D02*
X11533048Y-14360476D01*
X11533048Y-14360476D02*
X11523524Y-14370000D01*
X11523524Y-14370000D02*
X11504476Y-14379524D01*
X11504476Y-14379524D02*
X11485428Y-14379524D01*
X11485428Y-14379524D02*
X11466381Y-14370000D01*
X11466381Y-14370000D02*
X11456857Y-14360476D01*
X11456857Y-14360476D02*
X11447333Y-14341428D01*
X11447333Y-14341428D02*
X11437809Y-14303333D01*
X11437809Y-14303333D02*
X11437809Y-14255714D01*
X11437809Y-14255714D02*
X11447333Y-14217619D01*
X11447333Y-14217619D02*
X11456857Y-14198571D01*
X11456857Y-14198571D02*
X11466381Y-14189048D01*
X11466381Y-14189048D02*
X11485428Y-14179524D01*
X11675905Y-14179524D02*
X11694952Y-14179524D01*
X11694952Y-14179524D02*
X11714000Y-14189048D01*
X11714000Y-14189048D02*
X11723524Y-14198571D01*
X11723524Y-14198571D02*
X11733048Y-14217619D01*
X11733048Y-14217619D02*
X11742571Y-14255714D01*
X11742571Y-14255714D02*
X11742571Y-14303333D01*
X11742571Y-14303333D02*
X11733048Y-14341428D01*
X11733048Y-14341428D02*
X11723524Y-14360476D01*
X11723524Y-14360476D02*
X11714000Y-14370000D01*
X11714000Y-14370000D02*
X11694952Y-14379524D01*
X11694952Y-14379524D02*
X11675905Y-14379524D01*
X11675905Y-14379524D02*
X11656857Y-14370000D01*
X11656857Y-14370000D02*
X11647333Y-14360476D01*
X11647333Y-14360476D02*
X11637809Y-14341428D01*
X11637809Y-14341428D02*
X11628286Y-14303333D01*
X11628286Y-14303333D02*
X11628286Y-14255714D01*
X11628286Y-14255714D02*
X11637809Y-14217619D01*
X11637809Y-14217619D02*
X11647333Y-14198571D01*
X11647333Y-14198571D02*
X11656857Y-14189048D01*
X11656857Y-14189048D02*
X11675905Y-14179524D01*
X11866381Y-14179524D02*
X11885429Y-14179524D01*
X11885429Y-14179524D02*
X11904476Y-14189048D01*
X11904476Y-14189048D02*
X11914000Y-14198571D01*
X11914000Y-14198571D02*
X11923524Y-14217619D01*
X11923524Y-14217619D02*
X11933048Y-14255714D01*
X11933048Y-14255714D02*
X11933048Y-14303333D01*
X11933048Y-14303333D02*
X11923524Y-14341428D01*
X11923524Y-14341428D02*
X11914000Y-14360476D01*
X11914000Y-14360476D02*
X11904476Y-14370000D01*
X11904476Y-14370000D02*
X11885429Y-14379524D01*
X11885429Y-14379524D02*
X11866381Y-14379524D01*
X11866381Y-14379524D02*
X11847333Y-14370000D01*
X11847333Y-14370000D02*
X11837809Y-14360476D01*
X11837809Y-14360476D02*
X11828286Y-14341428D01*
X11828286Y-14341428D02*
X11818762Y-14303333D01*
X11818762Y-14303333D02*
X11818762Y-14255714D01*
X11818762Y-14255714D02*
X11828286Y-14217619D01*
X11828286Y-14217619D02*
X11837809Y-14198571D01*
X11837809Y-14198571D02*
X11847333Y-14189048D01*
X11847333Y-14189048D02*
X11866381Y-14179524D01*
X12018762Y-14379524D02*
X12018762Y-14246190D01*
X12018762Y-14265238D02*
X12028286Y-14255714D01*
X12028286Y-14255714D02*
X12047333Y-14246190D01*
X12047333Y-14246190D02*
X12075905Y-14246190D01*
X12075905Y-14246190D02*
X12094952Y-14255714D01*
X12094952Y-14255714D02*
X12104476Y-14274762D01*
X12104476Y-14274762D02*
X12104476Y-14379524D01*
X12104476Y-14274762D02*
X12114000Y-14255714D01*
X12114000Y-14255714D02*
X12133048Y-14246190D01*
X12133048Y-14246190D02*
X12161619Y-14246190D01*
X12161619Y-14246190D02*
X12180667Y-14255714D01*
X12180667Y-14255714D02*
X12190190Y-14274762D01*
X12190190Y-14274762D02*
X12190190Y-14379524D01*
X12285429Y-14379524D02*
X12285429Y-14246190D01*
X12285429Y-14265238D02*
X12294952Y-14255714D01*
X12294952Y-14255714D02*
X12314000Y-14246190D01*
X12314000Y-14246190D02*
X12342571Y-14246190D01*
X12342571Y-14246190D02*
X12361619Y-14255714D01*
X12361619Y-14255714D02*
X12371143Y-14274762D01*
X12371143Y-14274762D02*
X12371143Y-14379524D01*
X12371143Y-14274762D02*
X12380667Y-14255714D01*
X12380667Y-14255714D02*
X12399714Y-14246190D01*
X12399714Y-14246190D02*
X12428286Y-14246190D01*
X12428286Y-14246190D02*
X12447333Y-14255714D01*
X12447333Y-14255714D02*
X12456857Y-14274762D01*
X12456857Y-14274762D02*
X12456857Y-14379524D01*
X12847333Y-14170000D02*
X12675905Y-14427143D01*
X13104476Y-14179524D02*
X13123524Y-14179524D01*
X13123524Y-14179524D02*
X13142572Y-14189048D01*
X13142572Y-14189048D02*
X13152095Y-14198571D01*
X13152095Y-14198571D02*
X13161619Y-14217619D01*
X13161619Y-14217619D02*
X13171143Y-14255714D01*
X13171143Y-14255714D02*
X13171143Y-14303333D01*
X13171143Y-14303333D02*
X13161619Y-14341428D01*
X13161619Y-14341428D02*
X13152095Y-14360476D01*
X13152095Y-14360476D02*
X13142572Y-14370000D01*
X13142572Y-14370000D02*
X13123524Y-14379524D01*
X13123524Y-14379524D02*
X13104476Y-14379524D01*
X13104476Y-14379524D02*
X13085429Y-14370000D01*
X13085429Y-14370000D02*
X13075905Y-14360476D01*
X13075905Y-14360476D02*
X13066381Y-14341428D01*
X13066381Y-14341428D02*
X13056857Y-14303333D01*
X13056857Y-14303333D02*
X13056857Y-14255714D01*
X13056857Y-14255714D02*
X13066381Y-14217619D01*
X13066381Y-14217619D02*
X13075905Y-14198571D01*
X13075905Y-14198571D02*
X13085429Y-14189048D01*
X13085429Y-14189048D02*
X13104476Y-14179524D01*
X13256857Y-14360476D02*
X13266381Y-14370000D01*
X13266381Y-14370000D02*
X13256857Y-14379524D01*
X13256857Y-14379524D02*
X13247333Y-14370000D01*
X13247333Y-14370000D02*
X13256857Y-14360476D01*
X13256857Y-14360476D02*
X13256857Y-14379524D01*
X13390191Y-14179524D02*
X13409238Y-14179524D01*
X13409238Y-14179524D02*
X13428286Y-14189048D01*
X13428286Y-14189048D02*
X13437810Y-14198571D01*
X13437810Y-14198571D02*
X13447333Y-14217619D01*
X13447333Y-14217619D02*
X13456857Y-14255714D01*
X13456857Y-14255714D02*
X13456857Y-14303333D01*
X13456857Y-14303333D02*
X13447333Y-14341428D01*
X13447333Y-14341428D02*
X13437810Y-14360476D01*
X13437810Y-14360476D02*
X13428286Y-14370000D01*
X13428286Y-14370000D02*
X13409238Y-14379524D01*
X13409238Y-14379524D02*
X13390191Y-14379524D01*
X13390191Y-14379524D02*
X13371143Y-14370000D01*
X13371143Y-14370000D02*
X13361619Y-14360476D01*
X13361619Y-14360476D02*
X13352095Y-14341428D01*
X13352095Y-14341428D02*
X13342572Y-14303333D01*
X13342572Y-14303333D02*
X13342572Y-14255714D01*
X13342572Y-14255714D02*
X13352095Y-14217619D01*
X13352095Y-14217619D02*
X13361619Y-14198571D01*
X13361619Y-14198571D02*
X13371143Y-14189048D01*
X13371143Y-14189048D02*
X13390191Y-14179524D01*
X13523524Y-14179524D02*
X13647333Y-14179524D01*
X13647333Y-14179524D02*
X13580667Y-14255714D01*
X13580667Y-14255714D02*
X13609238Y-14255714D01*
X13609238Y-14255714D02*
X13628286Y-14265238D01*
X13628286Y-14265238D02*
X13637810Y-14274762D01*
X13637810Y-14274762D02*
X13647333Y-14293809D01*
X13647333Y-14293809D02*
X13647333Y-14341428D01*
X13647333Y-14341428D02*
X13637810Y-14360476D01*
X13637810Y-14360476D02*
X13628286Y-14370000D01*
X13628286Y-14370000D02*
X13609238Y-14379524D01*
X13609238Y-14379524D02*
X13552095Y-14379524D01*
X13552095Y-14379524D02*
X13533048Y-14370000D01*
X13533048Y-14370000D02*
X13523524Y-14360476D01*
X13742572Y-14379524D02*
X13780667Y-14379524D01*
X13780667Y-14379524D02*
X13799714Y-14370000D01*
X13799714Y-14370000D02*
X13809238Y-14360476D01*
X13809238Y-14360476D02*
X13828286Y-14331905D01*
X13828286Y-14331905D02*
X13837810Y-14293809D01*
X13837810Y-14293809D02*
X13837810Y-14217619D01*
X13837810Y-14217619D02*
X13828286Y-14198571D01*
X13828286Y-14198571D02*
X13818762Y-14189048D01*
X13818762Y-14189048D02*
X13799714Y-14179524D01*
X13799714Y-14179524D02*
X13761619Y-14179524D01*
X13761619Y-14179524D02*
X13742572Y-14189048D01*
X13742572Y-14189048D02*
X13733048Y-14198571D01*
X13733048Y-14198571D02*
X13723524Y-14217619D01*
X13723524Y-14217619D02*
X13723524Y-14265238D01*
X13723524Y-14265238D02*
X13733048Y-14284286D01*
X13733048Y-14284286D02*
X13742572Y-14293809D01*
X13742572Y-14293809D02*
X13761619Y-14303333D01*
X13761619Y-14303333D02*
X13799714Y-14303333D01*
X13799714Y-14303333D02*
X13818762Y-14293809D01*
X13818762Y-14293809D02*
X13828286Y-14284286D01*
X13828286Y-14284286D02*
X13837810Y-14265238D01*
X14009238Y-14246190D02*
X14009238Y-14379524D01*
X13961619Y-14170000D02*
X13914000Y-14312857D01*
X13914000Y-14312857D02*
X14037810Y-14312857D01*
X14104476Y-14179524D02*
X14104476Y-14217619D01*
X14180667Y-14179524D02*
X14180667Y-14217619D01*
X14475905Y-14455714D02*
X14466381Y-14446190D01*
X14466381Y-14446190D02*
X14447334Y-14417619D01*
X14447334Y-14417619D02*
X14437810Y-14398571D01*
X14437810Y-14398571D02*
X14428286Y-14370000D01*
X14428286Y-14370000D02*
X14418762Y-14322381D01*
X14418762Y-14322381D02*
X14418762Y-14284286D01*
X14418762Y-14284286D02*
X14428286Y-14236667D01*
X14428286Y-14236667D02*
X14437810Y-14208095D01*
X14437810Y-14208095D02*
X14447334Y-14189048D01*
X14447334Y-14189048D02*
X14466381Y-14160476D01*
X14466381Y-14160476D02*
X14475905Y-14150952D01*
X14656857Y-14379524D02*
X14542572Y-14379524D01*
X14599714Y-14379524D02*
X14599714Y-14179524D01*
X14599714Y-14179524D02*
X14580667Y-14208095D01*
X14580667Y-14208095D02*
X14561619Y-14227143D01*
X14561619Y-14227143D02*
X14542572Y-14236667D01*
X14780667Y-14179524D02*
X14799715Y-14179524D01*
X14799715Y-14179524D02*
X14818762Y-14189048D01*
X14818762Y-14189048D02*
X14828286Y-14198571D01*
X14828286Y-14198571D02*
X14837810Y-14217619D01*
X14837810Y-14217619D02*
X14847334Y-14255714D01*
X14847334Y-14255714D02*
X14847334Y-14303333D01*
X14847334Y-14303333D02*
X14837810Y-14341428D01*
X14837810Y-14341428D02*
X14828286Y-14360476D01*
X14828286Y-14360476D02*
X14818762Y-14370000D01*
X14818762Y-14370000D02*
X14799715Y-14379524D01*
X14799715Y-14379524D02*
X14780667Y-14379524D01*
X14780667Y-14379524D02*
X14761619Y-14370000D01*
X14761619Y-14370000D02*
X14752095Y-14360476D01*
X14752095Y-14360476D02*
X14742572Y-14341428D01*
X14742572Y-14341428D02*
X14733048Y-14303333D01*
X14733048Y-14303333D02*
X14733048Y-14255714D01*
X14733048Y-14255714D02*
X14742572Y-14217619D01*
X14742572Y-14217619D02*
X14752095Y-14198571D01*
X14752095Y-14198571D02*
X14761619Y-14189048D01*
X14761619Y-14189048D02*
X14780667Y-14179524D01*
X15085429Y-14379524D02*
X15085429Y-14179524D01*
X15171143Y-14379524D02*
X15171143Y-14274762D01*
X15171143Y-14274762D02*
X15161619Y-14255714D01*
X15161619Y-14255714D02*
X15142572Y-14246190D01*
X15142572Y-14246190D02*
X15114000Y-14246190D01*
X15114000Y-14246190D02*
X15094953Y-14255714D01*
X15094953Y-14255714D02*
X15085429Y-14265238D01*
X15294953Y-14379524D02*
X15275905Y-14370000D01*
X15275905Y-14370000D02*
X15266381Y-14360476D01*
X15266381Y-14360476D02*
X15256857Y-14341428D01*
X15256857Y-14341428D02*
X15256857Y-14284286D01*
X15256857Y-14284286D02*
X15266381Y-14265238D01*
X15266381Y-14265238D02*
X15275905Y-14255714D01*
X15275905Y-14255714D02*
X15294953Y-14246190D01*
X15294953Y-14246190D02*
X15323524Y-14246190D01*
X15323524Y-14246190D02*
X15342572Y-14255714D01*
X15342572Y-14255714D02*
X15352096Y-14265238D01*
X15352096Y-14265238D02*
X15361619Y-14284286D01*
X15361619Y-14284286D02*
X15361619Y-14341428D01*
X15361619Y-14341428D02*
X15352096Y-14360476D01*
X15352096Y-14360476D02*
X15342572Y-14370000D01*
X15342572Y-14370000D02*
X15323524Y-14379524D01*
X15323524Y-14379524D02*
X15294953Y-14379524D01*
X15475905Y-14379524D02*
X15456857Y-14370000D01*
X15456857Y-14370000D02*
X15447334Y-14350952D01*
X15447334Y-14350952D02*
X15447334Y-14179524D01*
X15628286Y-14370000D02*
X15609238Y-14379524D01*
X15609238Y-14379524D02*
X15571143Y-14379524D01*
X15571143Y-14379524D02*
X15552096Y-14370000D01*
X15552096Y-14370000D02*
X15542572Y-14350952D01*
X15542572Y-14350952D02*
X15542572Y-14274762D01*
X15542572Y-14274762D02*
X15552096Y-14255714D01*
X15552096Y-14255714D02*
X15571143Y-14246190D01*
X15571143Y-14246190D02*
X15609238Y-14246190D01*
X15609238Y-14246190D02*
X15628286Y-14255714D01*
X15628286Y-14255714D02*
X15637810Y-14274762D01*
X15637810Y-14274762D02*
X15637810Y-14293809D01*
X15637810Y-14293809D02*
X15542572Y-14312857D01*
X15714000Y-14370000D02*
X15733048Y-14379524D01*
X15733048Y-14379524D02*
X15771143Y-14379524D01*
X15771143Y-14379524D02*
X15790191Y-14370000D01*
X15790191Y-14370000D02*
X15799715Y-14350952D01*
X15799715Y-14350952D02*
X15799715Y-14341428D01*
X15799715Y-14341428D02*
X15790191Y-14322381D01*
X15790191Y-14322381D02*
X15771143Y-14312857D01*
X15771143Y-14312857D02*
X15742572Y-14312857D01*
X15742572Y-14312857D02*
X15723524Y-14303333D01*
X15723524Y-14303333D02*
X15714000Y-14284286D01*
X15714000Y-14284286D02*
X15714000Y-14274762D01*
X15714000Y-14274762D02*
X15723524Y-14255714D01*
X15723524Y-14255714D02*
X15742572Y-14246190D01*
X15742572Y-14246190D02*
X15771143Y-14246190D01*
X15771143Y-14246190D02*
X15790191Y-14255714D01*
X15866381Y-14455714D02*
X15875905Y-14446190D01*
X15875905Y-14446190D02*
X15894953Y-14417619D01*
X15894953Y-14417619D02*
X15904477Y-14398571D01*
X15904477Y-14398571D02*
X15914000Y-14370000D01*
X15914000Y-14370000D02*
X15923524Y-14322381D01*
X15923524Y-14322381D02*
X15923524Y-14284286D01*
X15923524Y-14284286D02*
X15914000Y-14236667D01*
X15914000Y-14236667D02*
X15904477Y-14208095D01*
X15904477Y-14208095D02*
X15894953Y-14189048D01*
X15894953Y-14189048D02*
X15875905Y-14160476D01*
X15875905Y-14160476D02*
X15866381Y-14150952D01*
D13*
X10859000Y-14496000D02*
X10859000Y-14606000D01*
X10804000Y-14551000D02*
X10914000Y-14551000D01*
D11*
X11266381Y-14643524D02*
X11152095Y-14643524D01*
X11209238Y-14643524D02*
X11209238Y-14443524D01*
X11209238Y-14443524D02*
X11190190Y-14472095D01*
X11190190Y-14472095D02*
X11171143Y-14491143D01*
X11171143Y-14491143D02*
X11152095Y-14500667D01*
X11352095Y-14624476D02*
X11361619Y-14634000D01*
X11361619Y-14634000D02*
X11352095Y-14643524D01*
X11352095Y-14643524D02*
X11342571Y-14634000D01*
X11342571Y-14634000D02*
X11352095Y-14624476D01*
X11352095Y-14624476D02*
X11352095Y-14643524D01*
X11552095Y-14643524D02*
X11437809Y-14643524D01*
X11494952Y-14643524D02*
X11494952Y-14443524D01*
X11494952Y-14443524D02*
X11475905Y-14472095D01*
X11475905Y-14472095D02*
X11456857Y-14491143D01*
X11456857Y-14491143D02*
X11437809Y-14500667D01*
X11675905Y-14443524D02*
X11694952Y-14443524D01*
X11694952Y-14443524D02*
X11714000Y-14453048D01*
X11714000Y-14453048D02*
X11723524Y-14462571D01*
X11723524Y-14462571D02*
X11733048Y-14481619D01*
X11733048Y-14481619D02*
X11742571Y-14519714D01*
X11742571Y-14519714D02*
X11742571Y-14567333D01*
X11742571Y-14567333D02*
X11733048Y-14605428D01*
X11733048Y-14605428D02*
X11723524Y-14624476D01*
X11723524Y-14624476D02*
X11714000Y-14634000D01*
X11714000Y-14634000D02*
X11694952Y-14643524D01*
X11694952Y-14643524D02*
X11675905Y-14643524D01*
X11675905Y-14643524D02*
X11656857Y-14634000D01*
X11656857Y-14634000D02*
X11647333Y-14624476D01*
X11647333Y-14624476D02*
X11637809Y-14605428D01*
X11637809Y-14605428D02*
X11628286Y-14567333D01*
X11628286Y-14567333D02*
X11628286Y-14519714D01*
X11628286Y-14519714D02*
X11637809Y-14481619D01*
X11637809Y-14481619D02*
X11647333Y-14462571D01*
X11647333Y-14462571D02*
X11656857Y-14453048D01*
X11656857Y-14453048D02*
X11675905Y-14443524D01*
X11866381Y-14443524D02*
X11885429Y-14443524D01*
X11885429Y-14443524D02*
X11904476Y-14453048D01*
X11904476Y-14453048D02*
X11914000Y-14462571D01*
X11914000Y-14462571D02*
X11923524Y-14481619D01*
X11923524Y-14481619D02*
X11933048Y-14519714D01*
X11933048Y-14519714D02*
X11933048Y-14567333D01*
X11933048Y-14567333D02*
X11923524Y-14605428D01*
X11923524Y-14605428D02*
X11914000Y-14624476D01*
X11914000Y-14624476D02*
X11904476Y-14634000D01*
X11904476Y-14634000D02*
X11885429Y-14643524D01*
X11885429Y-14643524D02*
X11866381Y-14643524D01*
X11866381Y-14643524D02*
X11847333Y-14634000D01*
X11847333Y-14634000D02*
X11837809Y-14624476D01*
X11837809Y-14624476D02*
X11828286Y-14605428D01*
X11828286Y-14605428D02*
X11818762Y-14567333D01*
X11818762Y-14567333D02*
X11818762Y-14519714D01*
X11818762Y-14519714D02*
X11828286Y-14481619D01*
X11828286Y-14481619D02*
X11837809Y-14462571D01*
X11837809Y-14462571D02*
X11847333Y-14453048D01*
X11847333Y-14453048D02*
X11866381Y-14443524D01*
X12018762Y-14643524D02*
X12018762Y-14510190D01*
X12018762Y-14529238D02*
X12028286Y-14519714D01*
X12028286Y-14519714D02*
X12047333Y-14510190D01*
X12047333Y-14510190D02*
X12075905Y-14510190D01*
X12075905Y-14510190D02*
X12094952Y-14519714D01*
X12094952Y-14519714D02*
X12104476Y-14538762D01*
X12104476Y-14538762D02*
X12104476Y-14643524D01*
X12104476Y-14538762D02*
X12114000Y-14519714D01*
X12114000Y-14519714D02*
X12133048Y-14510190D01*
X12133048Y-14510190D02*
X12161619Y-14510190D01*
X12161619Y-14510190D02*
X12180667Y-14519714D01*
X12180667Y-14519714D02*
X12190190Y-14538762D01*
X12190190Y-14538762D02*
X12190190Y-14643524D01*
X12285429Y-14643524D02*
X12285429Y-14510190D01*
X12285429Y-14529238D02*
X12294952Y-14519714D01*
X12294952Y-14519714D02*
X12314000Y-14510190D01*
X12314000Y-14510190D02*
X12342571Y-14510190D01*
X12342571Y-14510190D02*
X12361619Y-14519714D01*
X12361619Y-14519714D02*
X12371143Y-14538762D01*
X12371143Y-14538762D02*
X12371143Y-14643524D01*
X12371143Y-14538762D02*
X12380667Y-14519714D01*
X12380667Y-14519714D02*
X12399714Y-14510190D01*
X12399714Y-14510190D02*
X12428286Y-14510190D01*
X12428286Y-14510190D02*
X12447333Y-14519714D01*
X12447333Y-14519714D02*
X12456857Y-14538762D01*
X12456857Y-14538762D02*
X12456857Y-14643524D01*
X12847333Y-14434000D02*
X12675905Y-14691143D01*
X13104476Y-14443524D02*
X13123524Y-14443524D01*
X13123524Y-14443524D02*
X13142572Y-14453048D01*
X13142572Y-14453048D02*
X13152095Y-14462571D01*
X13152095Y-14462571D02*
X13161619Y-14481619D01*
X13161619Y-14481619D02*
X13171143Y-14519714D01*
X13171143Y-14519714D02*
X13171143Y-14567333D01*
X13171143Y-14567333D02*
X13161619Y-14605428D01*
X13161619Y-14605428D02*
X13152095Y-14624476D01*
X13152095Y-14624476D02*
X13142572Y-14634000D01*
X13142572Y-14634000D02*
X13123524Y-14643524D01*
X13123524Y-14643524D02*
X13104476Y-14643524D01*
X13104476Y-14643524D02*
X13085429Y-14634000D01*
X13085429Y-14634000D02*
X13075905Y-14624476D01*
X13075905Y-14624476D02*
X13066381Y-14605428D01*
X13066381Y-14605428D02*
X13056857Y-14567333D01*
X13056857Y-14567333D02*
X13056857Y-14519714D01*
X13056857Y-14519714D02*
X13066381Y-14481619D01*
X13066381Y-14481619D02*
X13075905Y-14462571D01*
X13075905Y-14462571D02*
X13085429Y-14453048D01*
X13085429Y-14453048D02*
X13104476Y-14443524D01*
X13256857Y-14624476D02*
X13266381Y-14634000D01*
X13266381Y-14634000D02*
X13256857Y-14643524D01*
X13256857Y-14643524D02*
X13247333Y-14634000D01*
X13247333Y-14634000D02*
X13256857Y-14624476D01*
X13256857Y-14624476D02*
X13256857Y-14643524D01*
X13390191Y-14443524D02*
X13409238Y-14443524D01*
X13409238Y-14443524D02*
X13428286Y-14453048D01*
X13428286Y-14453048D02*
X13437810Y-14462571D01*
X13437810Y-14462571D02*
X13447333Y-14481619D01*
X13447333Y-14481619D02*
X13456857Y-14519714D01*
X13456857Y-14519714D02*
X13456857Y-14567333D01*
X13456857Y-14567333D02*
X13447333Y-14605428D01*
X13447333Y-14605428D02*
X13437810Y-14624476D01*
X13437810Y-14624476D02*
X13428286Y-14634000D01*
X13428286Y-14634000D02*
X13409238Y-14643524D01*
X13409238Y-14643524D02*
X13390191Y-14643524D01*
X13390191Y-14643524D02*
X13371143Y-14634000D01*
X13371143Y-14634000D02*
X13361619Y-14624476D01*
X13361619Y-14624476D02*
X13352095Y-14605428D01*
X13352095Y-14605428D02*
X13342572Y-14567333D01*
X13342572Y-14567333D02*
X13342572Y-14519714D01*
X13342572Y-14519714D02*
X13352095Y-14481619D01*
X13352095Y-14481619D02*
X13361619Y-14462571D01*
X13361619Y-14462571D02*
X13371143Y-14453048D01*
X13371143Y-14453048D02*
X13390191Y-14443524D01*
X13628286Y-14510190D02*
X13628286Y-14643524D01*
X13580667Y-14434000D02*
X13533048Y-14576857D01*
X13533048Y-14576857D02*
X13656857Y-14576857D01*
X13714000Y-14443524D02*
X13837810Y-14443524D01*
X13837810Y-14443524D02*
X13771143Y-14519714D01*
X13771143Y-14519714D02*
X13799714Y-14519714D01*
X13799714Y-14519714D02*
X13818762Y-14529238D01*
X13818762Y-14529238D02*
X13828286Y-14538762D01*
X13828286Y-14538762D02*
X13837810Y-14557809D01*
X13837810Y-14557809D02*
X13837810Y-14605428D01*
X13837810Y-14605428D02*
X13828286Y-14624476D01*
X13828286Y-14624476D02*
X13818762Y-14634000D01*
X13818762Y-14634000D02*
X13799714Y-14643524D01*
X13799714Y-14643524D02*
X13742572Y-14643524D01*
X13742572Y-14643524D02*
X13723524Y-14634000D01*
X13723524Y-14634000D02*
X13714000Y-14624476D01*
X13904476Y-14443524D02*
X14028286Y-14443524D01*
X14028286Y-14443524D02*
X13961619Y-14519714D01*
X13961619Y-14519714D02*
X13990191Y-14519714D01*
X13990191Y-14519714D02*
X14009238Y-14529238D01*
X14009238Y-14529238D02*
X14018762Y-14538762D01*
X14018762Y-14538762D02*
X14028286Y-14557809D01*
X14028286Y-14557809D02*
X14028286Y-14605428D01*
X14028286Y-14605428D02*
X14018762Y-14624476D01*
X14018762Y-14624476D02*
X14009238Y-14634000D01*
X14009238Y-14634000D02*
X13990191Y-14643524D01*
X13990191Y-14643524D02*
X13933048Y-14643524D01*
X13933048Y-14643524D02*
X13914000Y-14634000D01*
X13914000Y-14634000D02*
X13904476Y-14624476D01*
X14104476Y-14443524D02*
X14104476Y-14481619D01*
X14180667Y-14443524D02*
X14180667Y-14481619D01*
X14475905Y-14719714D02*
X14466381Y-14710190D01*
X14466381Y-14710190D02*
X14447334Y-14681619D01*
X14447334Y-14681619D02*
X14437810Y-14662571D01*
X14437810Y-14662571D02*
X14428286Y-14634000D01*
X14428286Y-14634000D02*
X14418762Y-14586381D01*
X14418762Y-14586381D02*
X14418762Y-14548286D01*
X14418762Y-14548286D02*
X14428286Y-14500667D01*
X14428286Y-14500667D02*
X14437810Y-14472095D01*
X14437810Y-14472095D02*
X14447334Y-14453048D01*
X14447334Y-14453048D02*
X14466381Y-14424476D01*
X14466381Y-14424476D02*
X14475905Y-14414952D01*
X14542572Y-14462571D02*
X14552095Y-14453048D01*
X14552095Y-14453048D02*
X14571143Y-14443524D01*
X14571143Y-14443524D02*
X14618762Y-14443524D01*
X14618762Y-14443524D02*
X14637810Y-14453048D01*
X14637810Y-14453048D02*
X14647334Y-14462571D01*
X14647334Y-14462571D02*
X14656857Y-14481619D01*
X14656857Y-14481619D02*
X14656857Y-14500667D01*
X14656857Y-14500667D02*
X14647334Y-14529238D01*
X14647334Y-14529238D02*
X14533048Y-14643524D01*
X14533048Y-14643524D02*
X14656857Y-14643524D01*
X14894953Y-14643524D02*
X14894953Y-14443524D01*
X14980667Y-14643524D02*
X14980667Y-14538762D01*
X14980667Y-14538762D02*
X14971143Y-14519714D01*
X14971143Y-14519714D02*
X14952096Y-14510190D01*
X14952096Y-14510190D02*
X14923524Y-14510190D01*
X14923524Y-14510190D02*
X14904476Y-14519714D01*
X14904476Y-14519714D02*
X14894953Y-14529238D01*
X15104476Y-14643524D02*
X15085429Y-14634000D01*
X15085429Y-14634000D02*
X15075905Y-14624476D01*
X15075905Y-14624476D02*
X15066381Y-14605428D01*
X15066381Y-14605428D02*
X15066381Y-14548286D01*
X15066381Y-14548286D02*
X15075905Y-14529238D01*
X15075905Y-14529238D02*
X15085429Y-14519714D01*
X15085429Y-14519714D02*
X15104476Y-14510190D01*
X15104476Y-14510190D02*
X15133048Y-14510190D01*
X15133048Y-14510190D02*
X15152096Y-14519714D01*
X15152096Y-14519714D02*
X15161619Y-14529238D01*
X15161619Y-14529238D02*
X15171143Y-14548286D01*
X15171143Y-14548286D02*
X15171143Y-14605428D01*
X15171143Y-14605428D02*
X15161619Y-14624476D01*
X15161619Y-14624476D02*
X15152096Y-14634000D01*
X15152096Y-14634000D02*
X15133048Y-14643524D01*
X15133048Y-14643524D02*
X15104476Y-14643524D01*
X15285429Y-14643524D02*
X15266381Y-14634000D01*
X15266381Y-14634000D02*
X15256857Y-14614952D01*
X15256857Y-14614952D02*
X15256857Y-14443524D01*
X15437810Y-14634000D02*
X15418762Y-14643524D01*
X15418762Y-14643524D02*
X15380667Y-14643524D01*
X15380667Y-14643524D02*
X15361619Y-14634000D01*
X15361619Y-14634000D02*
X15352096Y-14614952D01*
X15352096Y-14614952D02*
X15352096Y-14538762D01*
X15352096Y-14538762D02*
X15361619Y-14519714D01*
X15361619Y-14519714D02*
X15380667Y-14510190D01*
X15380667Y-14510190D02*
X15418762Y-14510190D01*
X15418762Y-14510190D02*
X15437810Y-14519714D01*
X15437810Y-14519714D02*
X15447334Y-14538762D01*
X15447334Y-14538762D02*
X15447334Y-14557809D01*
X15447334Y-14557809D02*
X15352096Y-14576857D01*
X15523524Y-14634000D02*
X15542572Y-14643524D01*
X15542572Y-14643524D02*
X15580667Y-14643524D01*
X15580667Y-14643524D02*
X15599715Y-14634000D01*
X15599715Y-14634000D02*
X15609238Y-14614952D01*
X15609238Y-14614952D02*
X15609238Y-14605428D01*
X15609238Y-14605428D02*
X15599715Y-14586381D01*
X15599715Y-14586381D02*
X15580667Y-14576857D01*
X15580667Y-14576857D02*
X15552096Y-14576857D01*
X15552096Y-14576857D02*
X15533048Y-14567333D01*
X15533048Y-14567333D02*
X15523524Y-14548286D01*
X15523524Y-14548286D02*
X15523524Y-14538762D01*
X15523524Y-14538762D02*
X15533048Y-14519714D01*
X15533048Y-14519714D02*
X15552096Y-14510190D01*
X15552096Y-14510190D02*
X15580667Y-14510190D01*
X15580667Y-14510190D02*
X15599715Y-14519714D01*
X15675905Y-14719714D02*
X15685429Y-14710190D01*
X15685429Y-14710190D02*
X15704477Y-14681619D01*
X15704477Y-14681619D02*
X15714000Y-14662571D01*
X15714000Y-14662571D02*
X15723524Y-14634000D01*
X15723524Y-14634000D02*
X15733048Y-14586381D01*
X15733048Y-14586381D02*
X15733048Y-14548286D01*
X15733048Y-14548286D02*
X15723524Y-14500667D01*
X15723524Y-14500667D02*
X15714000Y-14472095D01*
X15714000Y-14472095D02*
X15704477Y-14453048D01*
X15704477Y-14453048D02*
X15685429Y-14424476D01*
X15685429Y-14424476D02*
X15675905Y-14414952D01*
M02*
