%TF.GenerationSoftware,KiCad,Pcbnew,7.0.2*%
%TF.CreationDate,2023-05-17T08:24:27+02:00*%
%TF.ProjectId,Solar Cell offgrid Power,536f6c61-7220-4436-956c-6c206f666667,rev?*%
%TF.SameCoordinates,Original*%
%TF.FileFunction,Profile,NP*%
%FSLAX46Y46*%
G04 Gerber Fmt 4.6, Leading zero omitted, Abs format (unit mm)*
G04 Created by KiCad (PCBNEW 7.0.2) date 2023-05-17 08:24:27*
%MOMM*%
%LPD*%
G01*
G04 APERTURE LIST*
%TA.AperFunction,Profile*%
%ADD10C,0.100000*%
%TD*%
G04 APERTURE END LIST*
D10*
X124730000Y-100090000D02*
G75*
G03*
X122790000Y-100090000I-970000J0D01*
G01*
X144800001Y-120050472D02*
G75*
G03*
X145209999Y-119620000I-301J410772D01*
G01*
X138927245Y-114743098D02*
X138932611Y-119632755D01*
X144210492Y-115739999D02*
G75*
G03*
X143780000Y-115330001I-410392J99D01*
G01*
X140350000Y-120040000D02*
X139363098Y-120042754D01*
X143800001Y-119030477D02*
G75*
G03*
X144209999Y-118599999I-201J410677D01*
G01*
X139919518Y-118610001D02*
G75*
G03*
X140350000Y-119019999I410582J101D01*
G01*
X138932554Y-119632755D02*
G75*
G03*
X139363098Y-120042754I410446J-45D01*
G01*
X144789513Y-114340001D02*
X139337244Y-114312611D01*
X145210000Y-119620000D02*
X145220000Y-114750000D01*
X140350000Y-120040000D02*
G75*
G03*
X140350000Y-119020000I100J510000D01*
G01*
X109190000Y-65690000D02*
X156570000Y-65690000D01*
X156570000Y-133780000D01*
X109190000Y-133780000D01*
X109190000Y-65690000D01*
X143800001Y-119030514D02*
G75*
G03*
X143800001Y-120050486I199J-509986D01*
G01*
X139919513Y-118610001D02*
X139930000Y-115750000D01*
X144210000Y-118599999D02*
X144210487Y-115739999D01*
X139337244Y-114312563D02*
G75*
G03*
X138927245Y-114743098I156J-410637D01*
G01*
X145219995Y-114750000D02*
G75*
G03*
X144789513Y-114340002I-410295J200D01*
G01*
X140339999Y-115319513D02*
X143780000Y-115330000D01*
X122790000Y-100090000D02*
X122790000Y-109430000D01*
X122790000Y-109430000D02*
G75*
G03*
X124730000Y-109430000I970000J0D01*
G01*
X124730000Y-100090000D02*
X124730000Y-109430000D01*
X144800001Y-120050487D02*
X143800001Y-120050486D01*
X140339999Y-115319503D02*
G75*
G03*
X139930001Y-115750000I-199J-410297D01*
G01*
M02*
