%TF.GenerationSoftware,KiCad,Pcbnew,7.0.2*%
%TF.CreationDate,2023-05-17T08:24:27+02:00*%
%TF.ProjectId,Solar Cell offgrid Power,536f6c61-7220-4436-956c-6c206f666667,rev?*%
%TF.SameCoordinates,Original*%
%TF.FileFunction,Copper,L1,Top*%
%TF.FilePolarity,Positive*%
%FSLAX46Y46*%
G04 Gerber Fmt 4.6, Leading zero omitted, Abs format (unit mm)*
G04 Created by KiCad (PCBNEW 7.0.2) date 2023-05-17 08:24:27*
%MOMM*%
%LPD*%
G01*
G04 APERTURE LIST*
G04 Aperture macros list*
%AMRoundRect*
0 Rectangle with rounded corners*
0 $1 Rounding radius*
0 $2 $3 $4 $5 $6 $7 $8 $9 X,Y pos of 4 corners*
0 Add a 4 corners polygon primitive as box body*
4,1,4,$2,$3,$4,$5,$6,$7,$8,$9,$2,$3,0*
0 Add four circle primitives for the rounded corners*
1,1,$1+$1,$2,$3*
1,1,$1+$1,$4,$5*
1,1,$1+$1,$6,$7*
1,1,$1+$1,$8,$9*
0 Add four rect primitives between the rounded corners*
20,1,$1+$1,$2,$3,$4,$5,0*
20,1,$1+$1,$4,$5,$6,$7,0*
20,1,$1+$1,$6,$7,$8,$9,0*
20,1,$1+$1,$8,$9,$2,$3,0*%
G04 Aperture macros list end*
%TA.AperFunction,SMDPad,CuDef*%
%ADD10RoundRect,0.200000X-0.275000X0.200000X-0.275000X-0.200000X0.275000X-0.200000X0.275000X0.200000X0*%
%TD*%
%TA.AperFunction,SMDPad,CuDef*%
%ADD11C,1.000000*%
%TD*%
%TA.AperFunction,SMDPad,CuDef*%
%ADD12RoundRect,0.124800X0.275200X-0.475200X0.275200X0.475200X-0.275200X0.475200X-0.275200X-0.475200X0*%
%TD*%
%TA.AperFunction,SMDPad,CuDef*%
%ADD13RoundRect,0.250000X0.350000X0.450000X-0.350000X0.450000X-0.350000X-0.450000X0.350000X-0.450000X0*%
%TD*%
%TA.AperFunction,SMDPad,CuDef*%
%ADD14RoundRect,0.225000X0.225000X0.250000X-0.225000X0.250000X-0.225000X-0.250000X0.225000X-0.250000X0*%
%TD*%
%TA.AperFunction,SMDPad,CuDef*%
%ADD15RoundRect,0.250000X-0.250000X-0.475000X0.250000X-0.475000X0.250000X0.475000X-0.250000X0.475000X0*%
%TD*%
%TA.AperFunction,SMDPad,CuDef*%
%ADD16RoundRect,0.225000X-0.250000X0.225000X-0.250000X-0.225000X0.250000X-0.225000X0.250000X0.225000X0*%
%TD*%
%TA.AperFunction,SMDPad,CuDef*%
%ADD17RoundRect,0.150000X-0.625000X0.150000X-0.625000X-0.150000X0.625000X-0.150000X0.625000X0.150000X0*%
%TD*%
%TA.AperFunction,SMDPad,CuDef*%
%ADD18RoundRect,0.250000X-0.650000X0.350000X-0.650000X-0.350000X0.650000X-0.350000X0.650000X0.350000X0*%
%TD*%
%TA.AperFunction,SMDPad,CuDef*%
%ADD19RoundRect,0.218750X0.381250X-0.218750X0.381250X0.218750X-0.381250X0.218750X-0.381250X-0.218750X0*%
%TD*%
%TA.AperFunction,SMDPad,CuDef*%
%ADD20RoundRect,0.200000X0.275000X-0.200000X0.275000X0.200000X-0.275000X0.200000X-0.275000X-0.200000X0*%
%TD*%
%TA.AperFunction,SMDPad,CuDef*%
%ADD21R,1.000000X1.300000*%
%TD*%
%TA.AperFunction,SMDPad,CuDef*%
%ADD22RoundRect,0.225000X0.250000X-0.225000X0.250000X0.225000X-0.250000X0.225000X-0.250000X-0.225000X0*%
%TD*%
%TA.AperFunction,SMDPad,CuDef*%
%ADD23RoundRect,0.050000X0.050000X-0.387500X0.050000X0.387500X-0.050000X0.387500X-0.050000X-0.387500X0*%
%TD*%
%TA.AperFunction,SMDPad,CuDef*%
%ADD24RoundRect,0.050000X0.387500X-0.050000X0.387500X0.050000X-0.387500X0.050000X-0.387500X-0.050000X0*%
%TD*%
%TA.AperFunction,SMDPad,CuDef*%
%ADD25R,5.600000X5.600000*%
%TD*%
%TA.AperFunction,SMDPad,CuDef*%
%ADD26RoundRect,0.250000X0.475000X-0.250000X0.475000X0.250000X-0.475000X0.250000X-0.475000X-0.250000X0*%
%TD*%
%TA.AperFunction,SMDPad,CuDef*%
%ADD27RoundRect,0.225000X-0.225000X-0.250000X0.225000X-0.250000X0.225000X0.250000X-0.225000X0.250000X0*%
%TD*%
%TA.AperFunction,SMDPad,CuDef*%
%ADD28RoundRect,0.150000X-0.150000X0.825000X-0.150000X-0.825000X0.150000X-0.825000X0.150000X0.825000X0*%
%TD*%
%TA.AperFunction,SMDPad,CuDef*%
%ADD29RoundRect,0.200000X0.200000X0.275000X-0.200000X0.275000X-0.200000X-0.275000X0.200000X-0.275000X0*%
%TD*%
%TA.AperFunction,SMDPad,CuDef*%
%ADD30RoundRect,0.250000X-0.375000X-1.075000X0.375000X-1.075000X0.375000X1.075000X-0.375000X1.075000X0*%
%TD*%
%TA.AperFunction,SMDPad,CuDef*%
%ADD31RoundRect,0.250001X0.624999X-0.462499X0.624999X0.462499X-0.624999X0.462499X-0.624999X-0.462499X0*%
%TD*%
%TA.AperFunction,ComponentPad*%
%ADD32R,1.700000X1.700000*%
%TD*%
%TA.AperFunction,ComponentPad*%
%ADD33O,1.700000X1.700000*%
%TD*%
%TA.AperFunction,SMDPad,CuDef*%
%ADD34R,0.350000X0.580000*%
%TD*%
%TA.AperFunction,SMDPad,CuDef*%
%ADD35R,0.580000X0.350000*%
%TD*%
%TA.AperFunction,SMDPad,CuDef*%
%ADD36RoundRect,0.200000X-0.200000X-0.275000X0.200000X-0.275000X0.200000X0.275000X-0.200000X0.275000X0*%
%TD*%
%TA.AperFunction,ComponentPad*%
%ADD37R,2.200000X2.200000*%
%TD*%
%TA.AperFunction,ComponentPad*%
%ADD38C,2.200000*%
%TD*%
%TA.AperFunction,SMDPad,CuDef*%
%ADD39R,2.100000X1.400000*%
%TD*%
%TA.AperFunction,SMDPad,CuDef*%
%ADD40RoundRect,0.250000X0.337500X0.475000X-0.337500X0.475000X-0.337500X-0.475000X0.337500X-0.475000X0*%
%TD*%
%TA.AperFunction,SMDPad,CuDef*%
%ADD41R,2.195000X2.195000*%
%TD*%
%TA.AperFunction,SMDPad,CuDef*%
%ADD42RoundRect,0.100000X2.750000X0.100000X-2.750000X0.100000X-2.750000X-0.100000X2.750000X-0.100000X0*%
%TD*%
%TA.AperFunction,SMDPad,CuDef*%
%ADD43RoundRect,0.100000X6.400000X0.100000X-6.400000X0.100000X-6.400000X-0.100000X6.400000X-0.100000X0*%
%TD*%
%TA.AperFunction,SMDPad,CuDef*%
%ADD44RoundRect,0.102500X0.102500X-12.887500X0.102500X12.887500X-0.102500X12.887500X-0.102500X-12.887500X0*%
%TD*%
%TA.AperFunction,SMDPad,CuDef*%
%ADD45RoundRect,0.097500X0.097500X-12.887500X0.097500X12.887500X-0.097500X12.887500X-0.097500X-12.887500X0*%
%TD*%
%TA.AperFunction,SMDPad,CuDef*%
%ADD46RoundRect,0.102500X9.867500X0.102500X-9.867500X0.102500X-9.867500X-0.102500X9.867500X-0.102500X0*%
%TD*%
%TA.AperFunction,SMDPad,CuDef*%
%ADD47R,2.250000X1.100000*%
%TD*%
%TA.AperFunction,SMDPad,CuDef*%
%ADD48R,1.100000X1.050000*%
%TD*%
%TA.AperFunction,SMDPad,CuDef*%
%ADD49RoundRect,0.041300X-0.253700X0.948700X-0.253700X-0.948700X0.253700X-0.948700X0.253700X0.948700X0*%
%TD*%
%TA.AperFunction,SMDPad,CuDef*%
%ADD50R,0.840000X0.420000*%
%TD*%
%TA.AperFunction,SMDPad,CuDef*%
%ADD51R,1.600000X2.500000*%
%TD*%
%TA.AperFunction,SMDPad,CuDef*%
%ADD52RoundRect,0.250000X-0.250000X-0.750000X0.250000X-0.750000X0.250000X0.750000X-0.250000X0.750000X0*%
%TD*%
%TA.AperFunction,SMDPad,CuDef*%
%ADD53RoundRect,0.250000X-0.350000X-0.450000X0.350000X-0.450000X0.350000X0.450000X-0.350000X0.450000X0*%
%TD*%
%TA.AperFunction,SMDPad,CuDef*%
%ADD54RoundRect,0.250000X-0.337500X-0.475000X0.337500X-0.475000X0.337500X0.475000X-0.337500X0.475000X0*%
%TD*%
%TA.AperFunction,SMDPad,CuDef*%
%ADD55RoundRect,0.100000X0.100000X-0.637500X0.100000X0.637500X-0.100000X0.637500X-0.100000X-0.637500X0*%
%TD*%
%TA.AperFunction,SMDPad,CuDef*%
%ADD56RoundRect,0.037100X-0.317900X-0.227900X0.317900X-0.227900X0.317900X0.227900X-0.317900X0.227900X0*%
%TD*%
%TA.AperFunction,ViaPad*%
%ADD57C,0.600000*%
%TD*%
%TA.AperFunction,ViaPad*%
%ADD58C,0.800000*%
%TD*%
%TA.AperFunction,Conductor*%
%ADD59C,0.510000*%
%TD*%
%TA.AperFunction,Conductor*%
%ADD60C,0.150000*%
%TD*%
%TA.AperFunction,Conductor*%
%ADD61C,0.200000*%
%TD*%
%TA.AperFunction,Conductor*%
%ADD62C,0.300000*%
%TD*%
%TA.AperFunction,Conductor*%
%ADD63C,0.250000*%
%TD*%
%TA.AperFunction,Conductor*%
%ADD64C,0.500000*%
%TD*%
%TA.AperFunction,Conductor*%
%ADD65C,0.400000*%
%TD*%
%TA.AperFunction,Conductor*%
%ADD66C,1.000000*%
%TD*%
%TA.AperFunction,Conductor*%
%ADD67C,0.320000*%
%TD*%
G04 APERTURE END LIST*
D10*
%TO.P,ER3,1*%
%TO.N,3V3*%
X124050000Y-81495000D03*
%TO.P,ER3,2*%
%TO.N,ESP_GPIO0_BOOT-DTR*%
X124050000Y-83145000D03*
%TD*%
%TO.P,TXR1,1*%
%TO.N,3V3*%
X142070000Y-102395000D03*
%TO.P,TXR1,2*%
%TO.N,Net-(U3-OE)*%
X142070000Y-104045000D03*
%TD*%
D11*
%TO.P,TP1,1,1*%
%TO.N,3V3*%
X143610000Y-83210000D03*
%TD*%
D12*
%TO.P,LED1,1,GA*%
%TO.N,LED_G_IO04*%
X137610000Y-118940000D03*
%TO.P,LED1,2,BA*%
%TO.N,LED_B_IO05*%
X137620000Y-115760000D03*
%TO.P,LED1,3,RA*%
%TO.N,Net-(LED1-RA)*%
X136470000Y-118940000D03*
%TO.P,LED1,4,K*%
%TO.N,3V3*%
X136500000Y-115750000D03*
%TD*%
D13*
%TO.P,AR1,1*%
%TO.N,Net-(AU1-FB)*%
X146340000Y-70680000D03*
%TO.P,AR1,2*%
%TO.N,GND*%
X144340000Y-70680000D03*
%TD*%
D14*
%TO.P,EC12,1*%
%TO.N,Net-(ESP32S1-GPIO15{slash}ADC2_CH4{slash}XTAL_32K_P)*%
X139555000Y-83990000D03*
%TO.P,EC12,2*%
%TO.N,GND*%
X138005000Y-83990000D03*
%TD*%
D15*
%TO.P,EC2,1*%
%TO.N,GND*%
X124000000Y-90430000D03*
%TO.P,EC2,2*%
%TO.N,3V3*%
X125900000Y-90430000D03*
%TD*%
D16*
%TO.P,EC10,1*%
%TO.N,Net-(EC10-Pad1)*%
X128700000Y-89285000D03*
%TO.P,EC10,2*%
%TO.N,GND*%
X128700000Y-90835000D03*
%TD*%
%TO.P,EC14,1*%
%TO.N,Net-(ESP32S1-XTAL_P)*%
X122650000Y-88855000D03*
%TO.P,EC14,2*%
%TO.N,GND*%
X122650000Y-90405000D03*
%TD*%
D17*
%TO.P,J2,1,Pin_1*%
%TO.N,GND*%
X114610000Y-75960000D03*
%TO.P,J2,2,Pin_2*%
%TO.N,VIN*%
X114610000Y-76960000D03*
%TO.P,J2,3,Pin_3*%
%TO.N,3V3*%
X114610000Y-77960000D03*
%TO.P,J2,4,Pin_4*%
%TO.N,TXD0*%
X114610000Y-78960000D03*
%TO.P,J2,5,Pin_5*%
%TO.N,RXD0*%
X114610000Y-79960000D03*
%TO.P,J2,6,Pin_6*%
%TO.N,ESP_GPIO0_BOOT-DTR*%
X114610000Y-80960000D03*
%TO.P,J2,7,Pin_7*%
%TO.N,CHIP_EN*%
X114610000Y-81960000D03*
D18*
%TO.P,J2,MP*%
%TO.N,N/C*%
X110735000Y-74660000D03*
X110735000Y-83260000D03*
%TD*%
D19*
%TO.P,L1,1,1*%
%TO.N,3V3*%
X130190000Y-91752500D03*
%TO.P,L1,2,2*%
%TO.N,Net-(EC10-Pad1)*%
X130190000Y-89627500D03*
%TD*%
D11*
%TO.P,TP3,1,1*%
%TO.N,VIN*%
X154680000Y-79510000D03*
%TD*%
D20*
%TO.P,ER5,1*%
%TO.N,3V3*%
X134400000Y-75275000D03*
%TO.P,ER5,2*%
%TO.N,GPIO8_I2C_SDA*%
X134400000Y-73625000D03*
%TD*%
D21*
%TO.P,ECY1,1,1*%
%TO.N,Net-(ESP32S1-GPIO15{slash}ADC2_CH4{slash}XTAL_32K_P)*%
X137860000Y-85580000D03*
%TO.P,ECY1,2,2*%
%TO.N,GND*%
X137860000Y-87780000D03*
%TO.P,ECY1,3,3*%
%TO.N,Net-(ESP32S1-GPIO16{slash}ADC2_CH5{slash}XTAL_32K_N)*%
X139660000Y-87780000D03*
%TO.P,ECY1,4,4*%
%TO.N,GND*%
X139660000Y-85580000D03*
%TD*%
D16*
%TO.P,EC8,1*%
%TO.N,3V3*%
X136460000Y-86725000D03*
%TO.P,EC8,2*%
%TO.N,GND*%
X136460000Y-88275000D03*
%TD*%
D22*
%TO.P,EC17,1*%
%TO.N,Net-(ESP32S1-XTAL_N)*%
X122600000Y-83150000D03*
%TO.P,EC17,2*%
%TO.N,GND*%
X122600000Y-81600000D03*
%TD*%
D23*
%TO.P,ESP32S1,1,LNA_IN/RF*%
%TO.N,Net-(ESP32S1-LNA_IN{slash}RF)*%
X128440000Y-85027500D03*
%TO.P,ESP32S1,2,VDD3P3*%
%TO.N,Net-(EC10-Pad1)*%
X128840000Y-85027500D03*
%TO.P,ESP32S1,3,VDD3P3*%
X129240000Y-85027500D03*
%TO.P,ESP32S1,4,CHIP_PU/RESET*%
%TO.N,CHIP_EN*%
X129640000Y-85027500D03*
%TO.P,ESP32S1,5,GPIO0/BOOT*%
%TO.N,ESP_GPIO0_BOOT-DTR*%
X130040000Y-85027500D03*
%TO.P,ESP32S1,6,GPIO1/ADC1_CH0*%
%TO.N,ACS_HALL_IO01*%
X130440000Y-85027500D03*
%TO.P,ESP32S1,7,GPIO2/ADC1_CH1*%
%TO.N,LED_R_IO02*%
X130840000Y-85027500D03*
%TO.P,ESP32S1,8,GPIO3/ADC1_CH2*%
%TO.N,GND*%
X131240000Y-85027500D03*
%TO.P,ESP32S1,9,GPIO4/ADC1_CH3*%
%TO.N,LED_G_IO04*%
X131640000Y-85027500D03*
%TO.P,ESP32S1,10,GPIO5/ADC1_CH4*%
%TO.N,LED_B_IO05*%
X132040000Y-85027500D03*
%TO.P,ESP32S1,11,GPIO6/ADC1_CH5*%
%TO.N,unconnected-(ESP32S1-GPIO6{slash}ADC1_CH5-Pad11)*%
X132440000Y-85027500D03*
%TO.P,ESP32S1,12,GPIO7/ADC1_CH6*%
%TO.N,BAT_LEVEL_CH1_IO7*%
X132840000Y-85027500D03*
%TO.P,ESP32S1,13,GPIO8/ADC1_CH7*%
%TO.N,BAT_LEVEL_CH2_IO8*%
X133240000Y-85027500D03*
%TO.P,ESP32S1,14,GPIO9/ADC1_CH8*%
%TO.N,BAT_LEVEL_CH3_IO9*%
X133640000Y-85027500D03*
D24*
%TO.P,ESP32S1,15,GPIO10/ADC1_CH9*%
%TO.N,BAT_LEVEL_CH4_IO10*%
X134477500Y-84190000D03*
%TO.P,ESP32S1,16,GPIO11/ADC2_CH0*%
%TO.N,BAT_LEVEL_CH5_IO11*%
X134477500Y-83790000D03*
%TO.P,ESP32S1,17,GPIO12/ADC2_CH1*%
%TO.N,BAT_LEVEL_CH6_IO12*%
X134477500Y-83390000D03*
%TO.P,ESP32S1,18,GPIO13/ADC2_CH2*%
%TO.N,BAT_LEVEL_CH7_IO13*%
X134477500Y-82990000D03*
%TO.P,ESP32S1,19,GPIO14/ADC2_CH3*%
%TO.N,BAT_LEVEL_CH8_IO14*%
X134477500Y-82590000D03*
%TO.P,ESP32S1,20,VDD3P3_RTC*%
%TO.N,3V3*%
X134477500Y-82190000D03*
%TO.P,ESP32S1,21,GPIO15/ADC2_CH4/XTAL_32K_P*%
%TO.N,Net-(ESP32S1-GPIO15{slash}ADC2_CH4{slash}XTAL_32K_P)*%
X134477500Y-81790000D03*
%TO.P,ESP32S1,22,GPIO16/ADC2_CH5/XTAL_32K_N*%
%TO.N,Net-(ESP32S1-GPIO16{slash}ADC2_CH5{slash}XTAL_32K_N)*%
X134477500Y-81390000D03*
%TO.P,ESP32S1,23,GPIO17/ADC2_CH6/DAC_2*%
%TO.N,BUZZER_IO17*%
X134477500Y-80990000D03*
%TO.P,ESP32S1,24,GPIO18/ADC2_CH7/DAC_1*%
%TO.N,DAC_CALIBRATION*%
X134477500Y-80590000D03*
%TO.P,ESP32S1,25,GPIO19/USB_D-/ADC2_CH8*%
X134477500Y-80190000D03*
%TO.P,ESP32S1,26,GPIO20/USB_D+/ADC2_CH9*%
%TO.N,BAT_SENSE_IO21*%
X134477500Y-79790000D03*
%TO.P,ESP32S1,27,GPIO21*%
%TO.N,IMU_CS_IO21*%
X134477500Y-79390000D03*
%TO.P,ESP32S1,28,SPI_CS1/GPIO26*%
%TO.N,SPICS1*%
X134477500Y-78990000D03*
D23*
%TO.P,ESP32S1,29,VDD_SPI*%
%TO.N,VDD_SPI*%
X133640000Y-78152500D03*
%TO.P,ESP32S1,30,SPIHD/GPIO27*%
%TO.N,SPIHD*%
X133240000Y-78152500D03*
%TO.P,ESP32S1,31,SPIWP/GPIO28*%
%TO.N,SPIWP*%
X132840000Y-78152500D03*
%TO.P,ESP32S1,32,SPICS0/GPIO29*%
%TO.N,SPICS0*%
X132440000Y-78152500D03*
%TO.P,ESP32S1,33,SPICLK/GPIO30*%
%TO.N,SPICLK*%
X132040000Y-78152500D03*
%TO.P,ESP32S1,34,SPIQ/GPIO31*%
%TO.N,SPIQ*%
X131640000Y-78152500D03*
%TO.P,ESP32S1,35,SPID/GPIO32*%
%TO.N,SPID*%
X131240000Y-78152500D03*
%TO.P,ESP32S1,36,SPICLK_N/GPIO48*%
%TO.N,unconnected-(ESP32S1-SPICLK_N{slash}GPIO48-Pad36)*%
X130840000Y-78152500D03*
%TO.P,ESP32S1,37,SPICLK_P/GPIO47*%
%TO.N,unconnected-(ESP32S1-SPICLK_P{slash}GPIO47-Pad37)*%
X130440000Y-78152500D03*
%TO.P,ESP32S1,38,GPIO33*%
%TO.N,GPIO9_I2C_SCL*%
X130040000Y-78152500D03*
%TO.P,ESP32S1,39,GPIO34*%
%TO.N,GPIO8_I2C_SDA*%
X129640000Y-78152500D03*
%TO.P,ESP32S1,40,GPIO35*%
%TO.N,unconnected-(ESP32S1-GPIO35-Pad40)*%
X129240000Y-78152500D03*
%TO.P,ESP32S1,41,GPIO36*%
%TO.N,unconnected-(ESP32S1-GPIO36-Pad41)*%
X128840000Y-78152500D03*
%TO.P,ESP32S1,42,GPIO37*%
%TO.N,unconnected-(ESP32S1-GPIO37-Pad42)*%
X128440000Y-78152500D03*
D24*
%TO.P,ESP32S1,43,GPIO38*%
%TO.N,unconnected-(ESP32S1-GPIO38-Pad43)*%
X127602500Y-78990000D03*
%TO.P,ESP32S1,44,MTCK/JTAG/GPIO39*%
%TO.N,unconnected-(ESP32S1-MTCK{slash}JTAG{slash}GPIO39-Pad44)*%
X127602500Y-79390000D03*
%TO.P,ESP32S1,45,MTDO/JTAG/GPIO40*%
%TO.N,unconnected-(ESP32S1-MTDO{slash}JTAG{slash}GPIO40-Pad45)*%
X127602500Y-79790000D03*
%TO.P,ESP32S1,46,VDD3P3_CPU*%
%TO.N,3V3*%
X127602500Y-80190000D03*
%TO.P,ESP32S1,47,MTDI/JTAG/GPIO41*%
%TO.N,unconnected-(ESP32S1-MTDI{slash}JTAG{slash}GPIO41-Pad47)*%
X127602500Y-80590000D03*
%TO.P,ESP32S1,48,MTMS/JTAG/GPIO42*%
%TO.N,unconnected-(ESP32S1-MTMS{slash}JTAG{slash}GPIO42-Pad48)*%
X127602500Y-80990000D03*
%TO.P,ESP32S1,49,U0TXD/PROG/GPIO43*%
%TO.N,Net-(ESP32S1-U0TXD{slash}PROG{slash}GPIO43)*%
X127602500Y-81390000D03*
%TO.P,ESP32S1,50,U0RXD/PROG/GPIO44*%
%TO.N,RXD0*%
X127602500Y-81790000D03*
%TO.P,ESP32S1,51,GPIO45*%
%TO.N,GND*%
X127602500Y-82190000D03*
%TO.P,ESP32S1,52,GPIO46*%
%TO.N,ESP_GPIO0_BOOT-DTR*%
X127602500Y-82590000D03*
%TO.P,ESP32S1,53,XTAL_N*%
%TO.N,Net-(ESP32S1-XTAL_N)*%
X127602500Y-82990000D03*
%TO.P,ESP32S1,54,XTAL_P*%
%TO.N,Net-(ESP32S1-XTAL_P)*%
X127602500Y-83390000D03*
%TO.P,ESP32S1,55,VDDA*%
%TO.N,3V3*%
X127602500Y-83790000D03*
%TO.P,ESP32S1,56,VDDA*%
X127602500Y-84190000D03*
D25*
%TO.P,ESP32S1,57,GND*%
%TO.N,GND*%
X131040000Y-81590000D03*
%TD*%
D22*
%TO.P,EC7,1*%
%TO.N,3V3*%
X134530000Y-90945000D03*
%TO.P,EC7,2*%
%TO.N,GND*%
X134530000Y-89395000D03*
%TD*%
D26*
%TO.P,EC3,1*%
%TO.N,3V3*%
X137600000Y-91470000D03*
%TO.P,EC3,2*%
%TO.N,GND*%
X137600000Y-89570000D03*
%TD*%
D27*
%TO.P,EC19,1*%
%TO.N,GND*%
X110565000Y-106550000D03*
%TO.P,EC19,2*%
%TO.N,Net-(ACS1-FILTER)*%
X112115000Y-106550000D03*
%TD*%
D28*
%TO.P,ACS1,1,IP+*%
%TO.N,PWR_HOME*%
X115445000Y-99145000D03*
%TO.P,ACS1,2,IP+*%
X114175000Y-99145000D03*
%TO.P,ACS1,3,IP-*%
%TO.N,LINE_OUT*%
X112905000Y-99145000D03*
%TO.P,ACS1,4,IP-*%
X111635000Y-99145000D03*
%TO.P,ACS1,5,GND*%
%TO.N,GND*%
X111635000Y-104095000D03*
%TO.P,ACS1,6,FILTER*%
%TO.N,Net-(ACS1-FILTER)*%
X112905000Y-104095000D03*
%TO.P,ACS1,7,VIOUT*%
%TO.N,Net-(ACS1-VIOUT)*%
X114175000Y-104095000D03*
%TO.P,ACS1,8,VCC*%
%TO.N,VIN*%
X115445000Y-104095000D03*
%TD*%
D20*
%TO.P,ER1,1*%
%TO.N,3V3*%
X131690000Y-91475000D03*
%TO.P,ER1,2*%
%TO.N,CHIP_EN*%
X131690000Y-89825000D03*
%TD*%
D27*
%TO.P,EC6,1*%
%TO.N,Net-(J5-SIG)*%
X128595000Y-96570000D03*
%TO.P,EC6,2*%
%TO.N,GND*%
X130145000Y-96570000D03*
%TD*%
%TO.P,EC9,1*%
%TO.N,Net-(ESP32S1-LNA_IN{slash}RF)*%
X128685000Y-94280000D03*
%TO.P,EC9,2*%
%TO.N,GND*%
X130235000Y-94280000D03*
%TD*%
D11*
%TO.P,TP2,1,1*%
%TO.N,GND*%
X146120000Y-84620000D03*
%TD*%
D21*
%TO.P,ECY2,1,1*%
%TO.N,Net-(ESP32S1-XTAL_P)*%
X124450000Y-87020000D03*
%TO.P,ECY2,2,2*%
%TO.N,GND*%
X124450000Y-84820000D03*
%TO.P,ECY2,3,3*%
%TO.N,Net-(ESP32S1-XTAL_N)*%
X122650000Y-84820000D03*
%TO.P,ECY2,4,4*%
%TO.N,GND*%
X122650000Y-87020000D03*
%TD*%
D29*
%TO.P,LR1,1*%
%TO.N,LED_R_IO02*%
X137905000Y-121480000D03*
%TO.P,LR1,2*%
%TO.N,Net-(LED1-RA)*%
X136255000Y-121480000D03*
%TD*%
D30*
%TO.P,AL1,1,1*%
%TO.N,3V3*%
X144350000Y-77880000D03*
%TO.P,AL1,2,2*%
%TO.N,Net-(AU1-SW)*%
X147150000Y-77880000D03*
%TD*%
D31*
%TO.P,F1,1*%
%TO.N,PWR_HOME*%
X152120000Y-84105000D03*
%TO.P,F1,2*%
%TO.N,VIN*%
X152120000Y-81130000D03*
%TD*%
D16*
%TO.P,EC13,1*%
%TO.N,Net-(ESP32S1-GPIO16{slash}ADC2_CH5{slash}XTAL_32K_N)*%
X139710000Y-89275000D03*
%TO.P,EC13,2*%
%TO.N,GND*%
X139710000Y-90825000D03*
%TD*%
D32*
%TO.P,J1,1,Pin_1*%
%TO.N,BAT_LEVEL_CH1*%
X146400000Y-111150000D03*
D33*
%TO.P,J1,2,Pin_2*%
%TO.N,BAT_LEVEL_CH2*%
X146400000Y-108610000D03*
%TO.P,J1,3,Pin_3*%
%TO.N,BAT_LEVEL_CH3*%
X146400000Y-106070000D03*
%TO.P,J1,4,Pin_4*%
%TO.N,BAT_LEVEL_CH4*%
X146400000Y-103530000D03*
%TO.P,J1,5,Pin_5*%
%TO.N,PWR*%
X146400000Y-100990000D03*
%TO.P,J1,6,Pin_6*%
%TO.N,GND*%
X146400000Y-98450000D03*
%TO.P,J1,7,Pin_7*%
%TO.N,BAT_LEVEL_CH5*%
X146400000Y-95910000D03*
%TO.P,J1,8,Pin_8*%
%TO.N,BAT_LEVEL_CH6*%
X146400000Y-93370000D03*
%TO.P,J1,9,Pin_9*%
%TO.N,BAT_LEVEL_CH7*%
X146400000Y-90830000D03*
%TO.P,J1,10,Pin_10*%
%TO.N,BAT_LEVEL_CH8*%
X146400000Y-88290000D03*
%TD*%
D34*
%TO.P,IMU1,1,SDO/SA0*%
%TO.N,unconnected-(IMU1-SDO{slash}SA0-Pad1)*%
X138105000Y-78940000D03*
%TO.P,IMU1,2,SDX*%
%TO.N,unconnected-(IMU1-SDX-Pad2)*%
X138605000Y-78940000D03*
%TO.P,IMU1,3,SCX*%
%TO.N,unconnected-(IMU1-SCX-Pad3)*%
X139105000Y-78940000D03*
%TO.P,IMU1,4,INT1*%
%TO.N,unconnected-(IMU1-INT1-Pad4)*%
X139605000Y-78940000D03*
D35*
%TO.P,IMU1,5,VDDIO*%
%TO.N,3V3*%
X139780000Y-78265000D03*
%TO.P,IMU1,6,GND*%
%TO.N,GND*%
X139780000Y-77765000D03*
%TO.P,IMU1,7,GND*%
X139780000Y-77265000D03*
D34*
%TO.P,IMU1,8,VDD*%
%TO.N,3V3*%
X139605000Y-76590000D03*
%TO.P,IMU1,9,INT2*%
%TO.N,unconnected-(IMU1-INT2-Pad9)*%
X139105000Y-76590000D03*
%TO.P,IMU1,10,NC*%
%TO.N,unconnected-(IMU1-NC-Pad10)*%
X138605000Y-76590000D03*
%TO.P,IMU1,11,NC*%
%TO.N,unconnected-(IMU1-NC-Pad11)*%
X138105000Y-76590000D03*
D35*
%TO.P,IMU1,12,CS*%
%TO.N,IMU_CS_IO21*%
X137930000Y-77265000D03*
%TO.P,IMU1,13,SCL*%
%TO.N,GPIO9_I2C_SCL*%
X137930000Y-77765000D03*
%TO.P,IMU1,14,SDA*%
%TO.N,GPIO8_I2C_SDA*%
X137930000Y-78265000D03*
%TD*%
D14*
%TO.P,SHC1,1*%
%TO.N,GND*%
X143925000Y-113080000D03*
%TO.P,SHC1,2*%
%TO.N,3V3*%
X142375000Y-113080000D03*
%TD*%
D36*
%TO.P,ER7,1*%
%TO.N,GND*%
X110625000Y-108220000D03*
%TO.P,ER7,2*%
%TO.N,ACS_HALL_IO01*%
X112275000Y-108220000D03*
%TD*%
D14*
%TO.P,EC18,1*%
%TO.N,GND*%
X117145000Y-107090000D03*
%TO.P,EC18,2*%
%TO.N,VIN*%
X115595000Y-107090000D03*
%TD*%
%TO.P,EC11,1*%
%TO.N,3V3*%
X124170000Y-80140000D03*
%TO.P,EC11,2*%
%TO.N,GND*%
X122620000Y-80140000D03*
%TD*%
D20*
%TO.P,MR1,1*%
%TO.N,VIN*%
X149230000Y-85785000D03*
%TO.P,MR1,2*%
%TO.N,BAT_SENSE_IO21*%
X149230000Y-84135000D03*
%TD*%
D37*
%TO.P,J3,1,Pin_1*%
%TO.N,GND*%
X112930000Y-87230000D03*
D38*
%TO.P,J3,2,Pin_2*%
%TO.N,LINE_OUT*%
X112930000Y-89770000D03*
%TD*%
D39*
%TO.P,ANT1,1,1*%
%TO.N,Net-(J5-SIG)*%
X126710000Y-99610000D03*
%TO.P,ANT1,2,2*%
%TO.N,unconnected-(ANT1-Pad2)*%
X126710000Y-109110000D03*
%TD*%
D10*
%TO.P,ER6,1*%
%TO.N,Net-(ACS1-VIOUT)*%
X114000000Y-106585000D03*
%TO.P,ER6,2*%
%TO.N,ACS_HALL_IO01*%
X114000000Y-108235000D03*
%TD*%
D22*
%TO.P,IMUC1,1*%
%TO.N,GND*%
X135500000Y-77795000D03*
%TO.P,IMUC1,2*%
%TO.N,3V3*%
X135500000Y-76245000D03*
%TD*%
D20*
%TO.P,MR2,1*%
%TO.N,BAT_SENSE_IO21*%
X149240000Y-82645000D03*
%TO.P,MR2,2*%
%TO.N,GND*%
X149240000Y-80995000D03*
%TD*%
D40*
%TO.P,AC2,1*%
%TO.N,VIN*%
X152637500Y-78000000D03*
%TO.P,AC2,2*%
%TO.N,GND*%
X150562500Y-78000000D03*
%TD*%
D41*
%TO.P,BZ1,1,-*%
%TO.N,BUZZER_IO17*%
X126980000Y-116050000D03*
%TO.P,BZ1,2,+*%
%TO.N,GND*%
X126980000Y-123450000D03*
%TO.P,BZ1,3*%
%TO.N,N/C*%
X134380000Y-123450000D03*
%TD*%
D20*
%TO.P,ER4,1*%
%TO.N,3V3*%
X134400000Y-72325000D03*
%TO.P,ER4,2*%
%TO.N,GPIO9_I2C_SCL*%
X134400000Y-70675000D03*
%TD*%
D36*
%TO.P,ER2,1*%
%TO.N,TXD0*%
X123155000Y-78600000D03*
%TO.P,ER2,2*%
%TO.N,Net-(ESP32S1-U0TXD{slash}PROG{slash}GPIO43)*%
X124805000Y-78600000D03*
%TD*%
D42*
%TO.P,J6,1,Shield*%
%TO.N,GND*%
X124140000Y-92725000D03*
D43*
X134730000Y-92705000D03*
D44*
X121495000Y-79755000D03*
D45*
X141025000Y-79750000D03*
D46*
X131250000Y-66950000D03*
%TD*%
D47*
%TO.P,J5,1,GND*%
%TO.N,GND*%
X129680000Y-98125000D03*
%TO.P,J5,2,GND*%
X129680000Y-101075000D03*
D48*
%TO.P,J5,3,SIG*%
%TO.N,Net-(J5-SIG)*%
X128130000Y-99600000D03*
%TD*%
D49*
%TO.P,U1,1*%
%TO.N,N/C*%
X139790000Y-68550000D03*
%TO.P,U1,2*%
X138520000Y-68550000D03*
%TO.P,U1,3*%
X137250000Y-68550000D03*
%TO.P,U1,4,GND*%
%TO.N,GND*%
X135980000Y-68550000D03*
%TO.P,U1,5,SDA*%
%TO.N,GPIO8_I2C_SDA*%
X135980000Y-73490000D03*
%TO.P,U1,6,SCL*%
%TO.N,GPIO9_I2C_SCL*%
X137250000Y-73490000D03*
%TO.P,U1,7*%
%TO.N,N/C*%
X138520000Y-73490000D03*
%TO.P,U1,8,VCC*%
%TO.N,3V3*%
X139790000Y-73490000D03*
%TD*%
D22*
%TO.P,EC5,1*%
%TO.N,3V3*%
X135890000Y-91305000D03*
%TO.P,EC5,2*%
%TO.N,GND*%
X135890000Y-89755000D03*
%TD*%
D50*
%TO.P,AU1,1,FB*%
%TO.N,Net-(AU1-FB)*%
X149212500Y-73460000D03*
%TO.P,AU1,2,GND*%
%TO.N,GND*%
X149212500Y-74410000D03*
%TO.P,AU1,3,SW*%
%TO.N,Net-(AU1-SW)*%
X149212500Y-75360000D03*
%TO.P,AU1,4,VIN_SW*%
%TO.N,VIN*%
X152082500Y-75360000D03*
%TO.P,AU1,5,VIN_A*%
X152082500Y-74410000D03*
%TO.P,AU1,6,EN*%
X152082500Y-73460000D03*
D51*
%TO.P,AU1,7,GND*%
%TO.N,GND*%
X150647500Y-74410000D03*
%TD*%
D52*
%TO.P,J4,1,Pin_1*%
%TO.N,Net-(J4-Pin_1)*%
X117670000Y-123180000D03*
%TO.P,J4,2,Pin_2*%
%TO.N,PWR*%
X120160000Y-123170000D03*
%TO.P,J4,3,Pin_3*%
%TO.N,PWR_HOME*%
X122680000Y-123180000D03*
%TO.P,J4,4,Pin_4*%
X122600000Y-117550000D03*
%TO.P,J4,5,Pin_5*%
%TO.N,PWR*%
X120180000Y-117530000D03*
%TO.P,J4,6,Pin_6*%
%TO.N,Net-(J4-Pin_1)*%
X117670000Y-117540000D03*
%TD*%
D16*
%TO.P,EC1,1*%
%TO.N,GND*%
X133100000Y-89515000D03*
%TO.P,EC1,2*%
%TO.N,CHIP_EN*%
X133100000Y-91065000D03*
%TD*%
D53*
%TO.P,AR2,1*%
%TO.N,3V3*%
X144400000Y-73170000D03*
%TO.P,AR2,2*%
%TO.N,Net-(AU1-FB)*%
X146400000Y-73170000D03*
%TD*%
D54*
%TO.P,AC1,1*%
%TO.N,3V3*%
X144392500Y-81030000D03*
%TO.P,AC1,2*%
%TO.N,GND*%
X146467500Y-81030000D03*
%TD*%
D55*
%TO.P,U3,1,A1*%
%TO.N,BAT_LEVEL_CH1*%
X134540000Y-106140000D03*
%TO.P,U3,2,VCCA*%
%TO.N,VIN*%
X135190000Y-106140000D03*
%TO.P,U3,3,A2*%
%TO.N,BAT_LEVEL_CH2*%
X135840000Y-106140000D03*
%TO.P,U3,4,A3*%
%TO.N,BAT_LEVEL_CH3*%
X136490000Y-106140000D03*
%TO.P,U3,5,A4*%
%TO.N,BAT_LEVEL_CH4*%
X137140000Y-106140000D03*
%TO.P,U3,6,A5*%
%TO.N,BAT_LEVEL_CH5*%
X137790000Y-106140000D03*
%TO.P,U3,7,A6*%
%TO.N,BAT_LEVEL_CH6*%
X138440000Y-106140000D03*
%TO.P,U3,8,A7*%
%TO.N,BAT_LEVEL_CH7*%
X139090000Y-106140000D03*
%TO.P,U3,9,A8*%
%TO.N,BAT_LEVEL_CH8*%
X139740000Y-106140000D03*
%TO.P,U3,10,OE*%
%TO.N,Net-(U3-OE)*%
X140390000Y-106140000D03*
%TO.P,U3,11,GND*%
%TO.N,GND*%
X140390000Y-100415000D03*
%TO.P,U3,12,B8*%
%TO.N,BAT_LEVEL_CH8_IO14*%
X139740000Y-100415000D03*
%TO.P,U3,13,B7*%
%TO.N,BAT_LEVEL_CH7_IO13*%
X139090000Y-100415000D03*
%TO.P,U3,14,B6*%
%TO.N,BAT_LEVEL_CH6_IO12*%
X138440000Y-100415000D03*
%TO.P,U3,15,B5*%
%TO.N,BAT_LEVEL_CH5_IO11*%
X137790000Y-100415000D03*
%TO.P,U3,16,B4*%
%TO.N,BAT_LEVEL_CH4_IO10*%
X137140000Y-100415000D03*
%TO.P,U3,17,B3*%
%TO.N,BAT_LEVEL_CH3_IO9*%
X136490000Y-100415000D03*
%TO.P,U3,18,B2*%
%TO.N,BAT_LEVEL_CH2_IO8*%
X135840000Y-100415000D03*
%TO.P,U3,19,VCCB*%
%TO.N,3V3*%
X135190000Y-100415000D03*
%TO.P,U3,20,B1*%
%TO.N,BAT_LEVEL_CH1_IO7*%
X134540000Y-100415000D03*
%TD*%
D27*
%TO.P,EC4,1*%
%TO.N,GND*%
X124325000Y-88630000D03*
%TO.P,EC4,2*%
%TO.N,3V3*%
X125875000Y-88630000D03*
%TD*%
D56*
%TO.P,U2,1,NC*%
%TO.N,unconnected-(U2-NC-Pad1)*%
X141190000Y-116180000D03*
%TO.P,U2,2,VDD*%
%TO.N,3V3*%
X141190000Y-117180000D03*
%TO.P,U2,3,SCL*%
%TO.N,GPIO9_I2C_SCL*%
X141190000Y-118180000D03*
%TO.P,U2,4,SDA*%
%TO.N,GPIO8_I2C_SDA*%
X143160000Y-118180000D03*
%TO.P,U2,5,GND*%
%TO.N,GND*%
X143160000Y-117180000D03*
%TO.P,U2,6,NC*%
%TO.N,unconnected-(U2-NC-Pad6)*%
X143160000Y-116180000D03*
%TD*%
D19*
%TO.P,EL1,1,1*%
%TO.N,Net-(J5-SIG)*%
X127020000Y-96622500D03*
%TO.P,EL1,2,2*%
%TO.N,Net-(ESP32S1-LNA_IN{slash}RF)*%
X127020000Y-94497500D03*
%TD*%
D57*
%TO.N,3V3*%
X141310000Y-113240000D03*
D58*
X140680000Y-93930500D03*
D57*
X124990000Y-82918000D03*
D58*
X128640000Y-91900000D03*
X138980887Y-91795682D03*
D57*
X139760000Y-75752500D03*
X142080000Y-101400000D03*
D58*
X125750000Y-91830000D03*
D57*
X136528306Y-76176771D03*
D58*
X135010000Y-91700000D03*
D57*
X141970000Y-85570000D03*
X142460000Y-79950000D03*
X142884500Y-94940000D03*
D58*
X135330000Y-88490000D03*
D57*
X140020000Y-79932500D03*
%TO.N,VIN*%
X113170000Y-77330000D03*
X140240000Y-104510000D03*
D58*
X152330000Y-79810000D03*
D57*
X115440000Y-105600000D03*
D58*
X150420000Y-85800000D03*
D57*
X143240000Y-69230000D03*
%TO.N,GND*%
X139810000Y-85250000D03*
D58*
X147860000Y-70120000D03*
X127570000Y-122870000D03*
X129120000Y-83480000D03*
D57*
X135410000Y-78770000D03*
D58*
X141250000Y-67820000D03*
X133100000Y-79460000D03*
X113140000Y-119020000D03*
D57*
X146810000Y-113710000D03*
X110390000Y-109300000D03*
D58*
X113130000Y-120270000D03*
X150890000Y-73840000D03*
D57*
X127700000Y-85700000D03*
X137930000Y-82982500D03*
D58*
X151570000Y-113660000D03*
X113100000Y-121660000D03*
X147830000Y-81100000D03*
D57*
%TO.N,CHIP_EN*%
X113260000Y-81960000D03*
X129940000Y-88120000D03*
D58*
%TO.N,PWR_HOME*%
X114820000Y-95930000D03*
X114740000Y-97160000D03*
X119050000Y-114980000D03*
X114820000Y-94930000D03*
X152220000Y-98220000D03*
X120410000Y-114960000D03*
X117460000Y-114940000D03*
X122750000Y-121320000D03*
D57*
%TO.N,TXD0*%
X113140000Y-78910000D03*
X122350000Y-78110000D03*
%TO.N,Net-(ESP32S1-U0TXD{slash}PROG{slash}GPIO43)*%
X125780259Y-80869742D03*
X125680000Y-78620000D03*
%TO.N,ESP_GPIO0_BOOT-DTR*%
X126550000Y-82360000D03*
X112950000Y-80960000D03*
X130370000Y-87390000D03*
%TO.N,GPIO8_I2C_SDA*%
X141110000Y-98470000D03*
X136700000Y-96460000D03*
X129640000Y-76000000D03*
X135970000Y-72000000D03*
X137740000Y-113410000D03*
X136478983Y-77123517D03*
%TO.N,GPIO9_I2C_SCL*%
X141616233Y-97736233D03*
X136960000Y-95600000D03*
X140870000Y-120920000D03*
X137140000Y-77702500D03*
X137420000Y-75000000D03*
X130260000Y-76680000D03*
%TO.N,BAT_SENSE_IO21*%
X139170000Y-80172500D03*
X149230000Y-83410000D03*
%TO.N,RXD0*%
X113170000Y-80040000D03*
X122160000Y-79170000D03*
X125100000Y-81390000D03*
%TO.N,BAT_LEVEL_CH4_IO10*%
X135418276Y-85304457D03*
X137140000Y-99080000D03*
%TO.N,BAT_LEVEL_CH5_IO11*%
X137790000Y-98550000D03*
X135394500Y-84482277D03*
%TO.N,BAT_LEVEL_CH6_IO12*%
X138530000Y-99040000D03*
X136192474Y-84077537D03*
%TO.N,BAT_LEVEL_CH7_IO13*%
X135880513Y-83218758D03*
X139360000Y-98770000D03*
%TO.N,BAT_LEVEL_CH8_IO14*%
X136550500Y-82782500D03*
X140310000Y-98990000D03*
%TO.N,IMU_CS_IO21*%
X138890000Y-77782500D03*
X136960000Y-78920000D03*
%TO.N,BUZZER_IO17*%
X139750000Y-82412500D03*
X139704500Y-102990000D03*
%TO.N,ACS_HALL_IO01*%
X114000000Y-109130000D03*
X130950000Y-88180000D03*
%TO.N,LED_R_IO02*%
X131760000Y-88800000D03*
X138840000Y-121730000D03*
%TO.N,LED_G_IO04*%
X137610000Y-120320000D03*
X132490000Y-88240000D03*
%TO.N,LED_B_IO05*%
X137620000Y-114570000D03*
X133220241Y-88565500D03*
%TO.N,BAT_LEVEL_CH1_IO7*%
X134240000Y-99060000D03*
X132640000Y-86280000D03*
%TO.N,BAT_LEVEL_CH2_IO8*%
X135440000Y-99070000D03*
X133870500Y-87165153D03*
%TO.N,BAT_LEVEL_CH3_IO9*%
X134237460Y-86399926D03*
X136370000Y-98730000D03*
%TD*%
D59*
%TO.N,3V3*%
X135250000Y-88410000D02*
X135330000Y-88490000D01*
D60*
X134402500Y-75277500D02*
X133947500Y-75277500D01*
D61*
X119390000Y-67845686D02*
X120805686Y-66430000D01*
D60*
X126905433Y-80192500D02*
X126225433Y-79512500D01*
X144400000Y-77830000D02*
X144350000Y-77880000D01*
X142884500Y-94940000D02*
X142884500Y-100625500D01*
X142884500Y-100625500D02*
X142070000Y-101440000D01*
D62*
X126760000Y-84042500D02*
X126760000Y-84702500D01*
D60*
X136670000Y-113290000D02*
X136670000Y-116400000D01*
X139970000Y-78282500D02*
X140250000Y-78562500D01*
X140250000Y-79832500D02*
X140170000Y-79912500D01*
X143610000Y-83210000D02*
X142505000Y-82105000D01*
X139780000Y-121610000D02*
X141440000Y-121610000D01*
X139700000Y-76702500D02*
X139605000Y-76797500D01*
D61*
X119390000Y-74759999D02*
X119390000Y-67845686D01*
X142450000Y-67195686D02*
X142450000Y-81820000D01*
D59*
X131740000Y-91717500D02*
X131595000Y-91862500D01*
X136430000Y-86695000D02*
X136460000Y-86725000D01*
X125750000Y-91882500D02*
X125860000Y-91772500D01*
D60*
X133540000Y-72760000D02*
X133982500Y-72317500D01*
X136629035Y-76277500D02*
X135402500Y-76277500D01*
D63*
X126800000Y-84002500D02*
X126820000Y-84002500D01*
D60*
X139745000Y-74302500D02*
X139745000Y-73397500D01*
D59*
X123970000Y-80277500D02*
X124125000Y-80122500D01*
X124990000Y-82918000D02*
X124990000Y-82477500D01*
D64*
X141920000Y-93770000D02*
X141920000Y-82460000D01*
D60*
X138540000Y-120370000D02*
X139780000Y-121610000D01*
X133947500Y-75277500D02*
X133540000Y-74870000D01*
D62*
X124530000Y-80122500D02*
X125160000Y-79492500D01*
X136560000Y-86625000D02*
X136560000Y-84633604D01*
D61*
X116190000Y-77960000D02*
X119390000Y-74759999D01*
D60*
X139760000Y-75752500D02*
X139700000Y-75812500D01*
X141930000Y-121120000D02*
X141930000Y-117430000D01*
D62*
X125160000Y-79492500D02*
X126070000Y-79492500D01*
D60*
X142505000Y-82105000D02*
X142505000Y-81875000D01*
D59*
X135250000Y-87260000D02*
X135250000Y-88410000D01*
D62*
X136460000Y-86725000D02*
X136560000Y-86625000D01*
D60*
X141930000Y-117430000D02*
X141680000Y-117180000D01*
D59*
X131595000Y-91862500D02*
X128660000Y-91862500D01*
D60*
X144400000Y-73170000D02*
X144400000Y-77830000D01*
D64*
X140680000Y-93930500D02*
X140829500Y-94080000D01*
D63*
X135850000Y-82172500D02*
X135890000Y-82132500D01*
D60*
X138540000Y-118270000D02*
X138540000Y-120370000D01*
D62*
X124125000Y-80122500D02*
X124530000Y-80122500D01*
D63*
X135270000Y-82172500D02*
X135850000Y-82172500D01*
D60*
X140250000Y-78562500D02*
X140250000Y-79832500D01*
D59*
X138705205Y-91520000D02*
X137910000Y-91520000D01*
D61*
X126820000Y-84002500D02*
X127030000Y-83792500D01*
D59*
X126808000Y-84752500D02*
X126808000Y-86067581D01*
D61*
X127030000Y-83792500D02*
X127592500Y-83792500D01*
D60*
X133982500Y-72317500D02*
X134600000Y-72317500D01*
D59*
X125802500Y-91830000D02*
X125750000Y-91830000D01*
D61*
X134467500Y-82192500D02*
X135310000Y-82192500D01*
D60*
X141680000Y-117180000D02*
X141190000Y-117180000D01*
D64*
X140829500Y-94080000D02*
X141610000Y-94080000D01*
X144392500Y-81030000D02*
X143350000Y-81030000D01*
D60*
X135402500Y-76277500D02*
X134402500Y-75277500D01*
D64*
X141920000Y-82460000D02*
X142505000Y-81875000D01*
D60*
X139700000Y-75812500D02*
X139700000Y-76702500D01*
X126225433Y-79512500D02*
X126020000Y-79512500D01*
D64*
X143350000Y-81030000D02*
X142505000Y-81875000D01*
D59*
X126070000Y-91562500D02*
X125802500Y-91830000D01*
D60*
X142345000Y-113300000D02*
X141490000Y-113300000D01*
D59*
X135785000Y-86725000D02*
X135250000Y-87260000D01*
X131740000Y-91637500D02*
X132072500Y-91970000D01*
D61*
X142450000Y-81820000D02*
X142505000Y-81875000D01*
D60*
X142070000Y-101440000D02*
X142070000Y-102395000D01*
D61*
X114610000Y-77960000D02*
X116190000Y-77960000D01*
X120805686Y-66430000D02*
X141684314Y-66430000D01*
D59*
X125750000Y-91830000D02*
X125750000Y-91882500D01*
D60*
X137230000Y-112730000D02*
X136670000Y-113290000D01*
D59*
X135202500Y-91520000D02*
X134885000Y-91202500D01*
D64*
X144392500Y-77922500D02*
X144350000Y-77880000D01*
D61*
X127592500Y-84192500D02*
X127010000Y-84192500D01*
D59*
X132072500Y-91970000D02*
X134700000Y-91970000D01*
D61*
X141684314Y-66430000D02*
X142450000Y-67195686D01*
D59*
X136460000Y-86725000D02*
X135785000Y-86725000D01*
X123970000Y-81467500D02*
X123970000Y-80277500D01*
X134730000Y-91940000D02*
X134970000Y-91700000D01*
D60*
X136670000Y-116400000D02*
X138540000Y-118270000D01*
D64*
X144392500Y-81030000D02*
X144392500Y-77922500D01*
D62*
X136880000Y-82132500D02*
X135890000Y-82132500D01*
D59*
X138705205Y-91520000D02*
X135202500Y-91520000D01*
D60*
X133540000Y-74870000D02*
X133540000Y-72760000D01*
D64*
X141610000Y-94080000D02*
X141920000Y-93770000D01*
D62*
X136560000Y-84633604D02*
X137200000Y-83993604D01*
D59*
X126070000Y-87502500D02*
X126070000Y-91562500D01*
X134970000Y-91700000D02*
X135010000Y-91740000D01*
D60*
X127592500Y-80192500D02*
X126905433Y-80192500D01*
D59*
X138980887Y-91795682D02*
X138705205Y-91520000D01*
D60*
X135190000Y-101720000D02*
X135865000Y-102395000D01*
X141490000Y-113300000D02*
X140920000Y-112730000D01*
D62*
X137200000Y-83993604D02*
X137200000Y-82452500D01*
D59*
X134700000Y-91970000D02*
X134970000Y-91700000D01*
D60*
X139760000Y-73520000D02*
X139760000Y-75822500D01*
D61*
X127010000Y-84192500D02*
X126820000Y-84002500D01*
D60*
X135190000Y-100415000D02*
X135190000Y-101720000D01*
X139790000Y-73490000D02*
X139760000Y-73520000D01*
X140920000Y-112730000D02*
X137230000Y-112730000D01*
X141440000Y-121610000D02*
X141930000Y-121120000D01*
D62*
X136350000Y-86615000D02*
X136460000Y-86725000D01*
D60*
X136528306Y-76378229D02*
X136629035Y-76277500D01*
D59*
X135330000Y-88526934D02*
X135330000Y-88490000D01*
X135311960Y-88544974D02*
X135330000Y-88526934D01*
X124990000Y-82477500D02*
X123970000Y-81457500D01*
D62*
X137200000Y-82452500D02*
X136880000Y-82132500D01*
D60*
X135865000Y-102395000D02*
X142070000Y-102395000D01*
D59*
X126808000Y-86067581D02*
X126653815Y-86221766D01*
D60*
X139805000Y-78282500D02*
X139970000Y-78282500D01*
D62*
X126800000Y-84002500D02*
X126760000Y-84042500D01*
D59*
X126653832Y-86219262D02*
G75*
G03*
X126070000Y-87502500I1429568J-1424838D01*
G01*
D61*
%TO.N,VIN*%
X114610000Y-76960000D02*
X116624314Y-76960000D01*
X115445000Y-104095000D02*
X115445000Y-106940000D01*
D64*
X152330000Y-79810000D02*
X152330000Y-79770000D01*
X152637500Y-79462500D02*
X152637500Y-78000000D01*
D61*
X135820000Y-104470000D02*
X135190000Y-105100000D01*
X140210000Y-104470000D02*
X135820000Y-104470000D01*
D64*
X152637500Y-76912500D02*
X153332500Y-76217500D01*
D65*
X153120000Y-75360000D02*
X152082500Y-75360000D01*
D64*
X152290000Y-79810000D02*
X152330000Y-79810000D01*
D60*
X152330000Y-79810000D02*
X152530000Y-79610000D01*
D65*
X152940000Y-73460000D02*
X153332500Y-73852500D01*
D61*
X141850000Y-66030000D02*
X143240000Y-67420000D01*
D64*
X152120000Y-81130000D02*
X152120000Y-79980000D01*
D60*
X150380000Y-85800000D02*
X150410000Y-85770000D01*
D61*
X115445000Y-106940000D02*
X115595000Y-107090000D01*
X113590000Y-76960000D02*
X113200000Y-77350000D01*
X118990000Y-67680000D02*
X120640000Y-66030000D01*
D64*
X153332500Y-76217500D02*
X153332500Y-75147500D01*
D61*
X143240000Y-67420000D02*
X143240000Y-69230000D01*
D64*
X152120000Y-79980000D02*
X152290000Y-79810000D01*
D65*
X152082500Y-73460000D02*
X152940000Y-73460000D01*
D61*
X116624314Y-76960000D02*
X118990000Y-74594314D01*
D65*
X153332500Y-75147500D02*
X153120000Y-75360000D01*
D61*
X114610000Y-76960000D02*
X113590000Y-76960000D01*
D64*
X152637500Y-78000000D02*
X152637500Y-76912500D01*
D61*
X118990000Y-74594314D02*
X118990000Y-67680000D01*
D65*
X153332500Y-73852500D02*
X153332500Y-75147500D01*
D60*
X149245000Y-85800000D02*
X150380000Y-85800000D01*
X152530000Y-79610000D02*
X154580000Y-79610000D01*
X154580000Y-79610000D02*
X154680000Y-79510000D01*
D64*
X152330000Y-79770000D02*
X152637500Y-79462500D01*
D61*
X120640000Y-66030000D02*
X141850000Y-66030000D01*
X135190000Y-105100000D02*
X135190000Y-106140000D01*
D65*
X152082500Y-74410000D02*
X153232500Y-74410000D01*
D60*
X149230000Y-85785000D02*
X149245000Y-85800000D01*
D66*
%TO.N,PWR*%
X120170000Y-124260000D02*
X120170000Y-117540000D01*
X149850000Y-102890000D02*
X149850000Y-120260000D01*
X147950000Y-100990000D02*
X149850000Y-102890000D01*
X122410000Y-126500000D02*
X120170000Y-124260000D01*
X120170000Y-117540000D02*
X120180000Y-117530000D01*
X146400000Y-100990000D02*
X147950000Y-100990000D01*
X149850000Y-120260000D02*
X143610000Y-126500000D01*
X143610000Y-126500000D02*
X122410000Y-126500000D01*
D60*
%TO.N,GND*%
X143045026Y-121210000D02*
X145854975Y-121210000D01*
D61*
X111635000Y-104335000D02*
X110625000Y-105345000D01*
D60*
X145280000Y-83780000D02*
X145020000Y-83780000D01*
X139895000Y-77782500D02*
X140825000Y-77782500D01*
D64*
X147750000Y-86850000D02*
X148680000Y-87780000D01*
D67*
X130135000Y-96600000D02*
X130135000Y-95480000D01*
D62*
X136430000Y-88077500D02*
X137515000Y-88077500D01*
D60*
X131230000Y-85030000D02*
X131230000Y-81792500D01*
D62*
X124405000Y-88722500D02*
X124405000Y-89007500D01*
D60*
X142660000Y-117180000D02*
X142360000Y-117480000D01*
D61*
X126170000Y-84709607D02*
X126170000Y-85315393D01*
D62*
X134950000Y-86642500D02*
X134950000Y-86639327D01*
X124340000Y-84802500D02*
X124340000Y-85202500D01*
D60*
X146200000Y-113050000D02*
X146810000Y-113660000D01*
D66*
X147720000Y-98450000D02*
X147810000Y-98450000D01*
D64*
X147900000Y-81030000D02*
X147830000Y-81100000D01*
D60*
X142191233Y-97498060D02*
X142190000Y-97496827D01*
X146810000Y-113660000D02*
X146810000Y-113710000D01*
D62*
X122575000Y-80122500D02*
X122575000Y-81542500D01*
D64*
X147750000Y-81180000D02*
X147750000Y-86850000D01*
D61*
X125491992Y-87610508D02*
X124405000Y-88697500D01*
D60*
X146120000Y-84620000D02*
X145280000Y-83780000D01*
D67*
X127990000Y-95480000D02*
X127960000Y-95450000D01*
D63*
X131005000Y-98125000D02*
X131460000Y-98580000D01*
D62*
X137750000Y-89112500D02*
X138140000Y-89502500D01*
X138140000Y-89502500D02*
X136280000Y-89502500D01*
X134520000Y-87072500D02*
X134950000Y-86642500D01*
D61*
X110390000Y-109300000D02*
X110400000Y-109300000D01*
D62*
X139560000Y-91030000D02*
X137940000Y-89410000D01*
D66*
X151580000Y-102220000D02*
X151580000Y-120227056D01*
D63*
X131460000Y-98580000D02*
X131460000Y-100500000D01*
X131460000Y-100500000D02*
X130885000Y-101075000D01*
D62*
X124000000Y-90372500D02*
X122735000Y-90372500D01*
D61*
X110625000Y-105345000D02*
X110625000Y-108220000D01*
X134660000Y-89507500D02*
X134570000Y-89417500D01*
D64*
X148680000Y-97490000D02*
X147720000Y-98450000D01*
D60*
X142190000Y-97496827D02*
X142190000Y-94419238D01*
D67*
X127851971Y-90594471D02*
X127851971Y-92431971D01*
D66*
X113140000Y-121700000D02*
X113100000Y-121660000D01*
X113140000Y-120280000D02*
X113130000Y-120270000D01*
D63*
X129680000Y-98125000D02*
X131005000Y-98125000D01*
D66*
X151580000Y-120227056D02*
X144107056Y-127700000D01*
D64*
X150647500Y-72977500D02*
X147860000Y-70190000D01*
D61*
X111635000Y-104095000D02*
X111635000Y-104335000D01*
D64*
X147790000Y-70120000D02*
X147030000Y-69360000D01*
D62*
X122735000Y-90372500D02*
X122620000Y-90257500D01*
X134950000Y-89512500D02*
X133102500Y-89512500D01*
D67*
X127365786Y-86580808D02*
X127700000Y-86246594D01*
D61*
X112250000Y-76940000D02*
X112250000Y-82730000D01*
D60*
X142191233Y-99538767D02*
X142191233Y-97498060D01*
D62*
X122507500Y-87060000D02*
X121532500Y-87060000D01*
X124405000Y-89007500D02*
X124000000Y-89412500D01*
D60*
X140390000Y-100415000D02*
X141315000Y-100415000D01*
D66*
X113140000Y-120260000D02*
X113140000Y-119020000D01*
D61*
X113230000Y-75960000D02*
X112250000Y-76940000D01*
X137066396Y-81682500D02*
X137930000Y-82546104D01*
D67*
X127700000Y-86246594D02*
X127700000Y-85700000D01*
D61*
X114610000Y-75960000D02*
X113230000Y-75960000D01*
D62*
X134950000Y-89512500D02*
X134665000Y-89512500D01*
D61*
X137930000Y-83900000D02*
X137010000Y-84820000D01*
D65*
X138980000Y-93690000D02*
X138980000Y-92840000D01*
D60*
X145854975Y-121210000D02*
X146800000Y-120264974D01*
D62*
X134660000Y-89507500D02*
X134212500Y-89507500D01*
D64*
X150647500Y-74410000D02*
X150647500Y-74082500D01*
D67*
X127851971Y-88362500D02*
X127851971Y-90594471D01*
D63*
X130145000Y-96570000D02*
X130145000Y-97660000D01*
D67*
X130135000Y-95480000D02*
X127990000Y-95480000D01*
D64*
X150647500Y-74082500D02*
X150890000Y-73840000D01*
X144340000Y-69940000D02*
X144340000Y-70680000D01*
X147860000Y-70120000D02*
X147790000Y-70120000D01*
D62*
X122507500Y-80120000D02*
X121532500Y-80120000D01*
D60*
X139895000Y-77292500D02*
X140825000Y-77292500D01*
D61*
X110625000Y-108220000D02*
X110460000Y-108385000D01*
D66*
X118690000Y-127700000D02*
X113140000Y-122150000D01*
X113140000Y-121620000D02*
X113140000Y-120280000D01*
D60*
X144145000Y-113050000D02*
X146200000Y-113050000D01*
X135990000Y-68645000D02*
X135990000Y-67090000D01*
D64*
X144920000Y-69360000D02*
X144340000Y-69940000D01*
D63*
X130145000Y-97660000D02*
X129680000Y-98125000D01*
D67*
X128125000Y-92705000D02*
X134730000Y-92705000D01*
D62*
X135699327Y-85890000D02*
X136060000Y-85890000D01*
X122467500Y-90420000D02*
X121492500Y-90420000D01*
D61*
X125491992Y-86725526D02*
X125491992Y-87610508D01*
D62*
X139550000Y-85622500D02*
X139550000Y-86022500D01*
D60*
X135500000Y-78710000D02*
X135390000Y-78820000D01*
D61*
X136190000Y-81682500D02*
X137066396Y-81682500D01*
D60*
X135500000Y-77795000D02*
X135500000Y-78710000D01*
D62*
X134665000Y-89512500D02*
X134660000Y-89507500D01*
X136270000Y-89512500D02*
X134950000Y-89512500D01*
D65*
X141879238Y-94730000D02*
X140020000Y-94730000D01*
D61*
X110460000Y-109230000D02*
X110390000Y-109300000D01*
D66*
X113140000Y-122150000D02*
X113140000Y-121700000D01*
D62*
X124000000Y-89412500D02*
X124000000Y-90372500D01*
D65*
X138980000Y-92840000D02*
X138845000Y-92705000D01*
D64*
X150562500Y-78000000D02*
X150350000Y-78000000D01*
D61*
X137010000Y-84820000D02*
X137010000Y-86030000D01*
X112930000Y-83410000D02*
X112930000Y-87230000D01*
D67*
X126781971Y-87861542D02*
X126781971Y-92632500D01*
D62*
X139550000Y-86022500D02*
X137750000Y-87822500D01*
D65*
X146467500Y-81030000D02*
X146467500Y-82332500D01*
X149212500Y-74410000D02*
X150647500Y-74410000D01*
D63*
X130885000Y-101075000D02*
X129680000Y-101075000D01*
D62*
X133102500Y-89512500D02*
X133100000Y-89515000D01*
D66*
X113130000Y-120270000D02*
X113140000Y-120260000D01*
D61*
X127935000Y-90677500D02*
X127851971Y-90594471D01*
D67*
X127868176Y-88130907D02*
X127851971Y-88361542D01*
D65*
X146467500Y-82332500D02*
X145020000Y-83780000D01*
D64*
X147030000Y-69360000D02*
X144920000Y-69360000D01*
D65*
X142570000Y-86230000D02*
X142570000Y-94039238D01*
D66*
X113100000Y-121660000D02*
X113140000Y-121620000D01*
D60*
X130430000Y-82192500D02*
X131030000Y-81592500D01*
D62*
X137515000Y-88077500D02*
X137910000Y-87682500D01*
D60*
X131230000Y-81792500D02*
X131030000Y-81592500D01*
X149240000Y-80995000D02*
X147935000Y-80995000D01*
D62*
X134950000Y-86639327D02*
X135699327Y-85890000D01*
X136280000Y-89502500D02*
X136270000Y-89512500D01*
D60*
X141315000Y-100415000D02*
X142191233Y-99538767D01*
D61*
X125877107Y-86022500D02*
X125782893Y-86116714D01*
D64*
X150647500Y-73597500D02*
X150647500Y-72977500D01*
X147900000Y-81030000D02*
X147750000Y-81180000D01*
D61*
X117145000Y-108075000D02*
X117145000Y-107090000D01*
D66*
X144107056Y-127700000D02*
X118690000Y-127700000D01*
D62*
X124340000Y-85202500D02*
X122540000Y-87002500D01*
D64*
X148680000Y-87780000D02*
X148680000Y-97490000D01*
D67*
X130135000Y-95480000D02*
X130135000Y-94580000D01*
D64*
X147930000Y-80420000D02*
X147930000Y-81030000D01*
X147760000Y-81030000D02*
X146467500Y-81030000D01*
D60*
X142360000Y-120524975D02*
X143045026Y-121210000D01*
D61*
X110400000Y-109300000D02*
X111170000Y-110070000D01*
D64*
X150350000Y-78000000D02*
X147930000Y-80420000D01*
D60*
X146800000Y-120264974D02*
X146800000Y-113690000D01*
D65*
X140020000Y-94730000D02*
X138980000Y-93690000D01*
D64*
X150735000Y-77827500D02*
X150562500Y-78000000D01*
D62*
X122575000Y-81542500D02*
X122570000Y-81547500D01*
D60*
X142360000Y-117480000D02*
X142360000Y-120524975D01*
X143160000Y-117180000D02*
X142660000Y-117180000D01*
X147935000Y-80995000D02*
X147830000Y-81100000D01*
D61*
X110460000Y-108385000D02*
X110460000Y-109230000D01*
D62*
X134520000Y-89367500D02*
X134520000Y-87072500D01*
D64*
X147930000Y-81030000D02*
X147900000Y-81030000D01*
D63*
X134660000Y-89507500D02*
X134660000Y-89182500D01*
D64*
X147860000Y-70190000D02*
X147860000Y-70120000D01*
D67*
X127851971Y-92431971D02*
X128125000Y-92705000D01*
D65*
X145020000Y-83780000D02*
X142570000Y-86230000D01*
D66*
X146400000Y-98450000D02*
X147720000Y-98450000D01*
D61*
X112250000Y-82730000D02*
X112930000Y-83410000D01*
X111170000Y-110070000D02*
X115150000Y-110070000D01*
D62*
X134660000Y-89507500D02*
X134520000Y-89367500D01*
D66*
X147810000Y-98450000D02*
X151580000Y-102220000D01*
D64*
X150890000Y-73840000D02*
X150647500Y-73597500D01*
D61*
X137930000Y-82546104D02*
X137930000Y-83900000D01*
D64*
X147830000Y-81100000D02*
X147760000Y-81030000D01*
D65*
X142570000Y-94039238D02*
X141879238Y-94730000D01*
D61*
X128750000Y-90677500D02*
X127935000Y-90677500D01*
X115150000Y-110070000D02*
X117145000Y-108075000D01*
D67*
X130135000Y-94580000D02*
X130225000Y-94490000D01*
D62*
X139957500Y-90860000D02*
X140882500Y-90860000D01*
X137750000Y-87822500D02*
X137750000Y-89112500D01*
D60*
X127592500Y-82192500D02*
X130430000Y-82192500D01*
D61*
X125877110Y-86022503D02*
G75*
G03*
X126170000Y-85315393I-707110J707103D01*
G01*
X125782881Y-86116702D02*
G75*
G03*
X125491993Y-86725526I727719J-721598D01*
G01*
D67*
X127365774Y-86578275D02*
G75*
G03*
X126781972Y-87861542I1429426J-1424725D01*
G01*
X128272494Y-87242133D02*
G75*
G03*
X127868177Y-88130907I990106J-986767D01*
G01*
D65*
%TO.N,Net-(AU1-SW)*%
X149212500Y-75360000D02*
X148290000Y-75360000D01*
X148290000Y-75360000D02*
X147150000Y-76500000D01*
X147150000Y-76500000D02*
X147150000Y-77880000D01*
D60*
%TO.N,Net-(AU1-FB)*%
X146340000Y-73110000D02*
X146400000Y-73170000D01*
X146810000Y-71960000D02*
X146340000Y-71960000D01*
X146340000Y-71960000D02*
X146340000Y-73110000D01*
X146340000Y-70680000D02*
X146340000Y-71960000D01*
X149212500Y-73460000D02*
X148310000Y-73460000D01*
X148310000Y-73460000D02*
X146810000Y-71960000D01*
%TO.N,CHIP_EN*%
X114610000Y-81960000D02*
X113260000Y-81960000D01*
X132410000Y-90140000D02*
X132410000Y-90790000D01*
X132410000Y-90790000D02*
X132685000Y-91065000D01*
X131690000Y-89825000D02*
X132095000Y-89825000D01*
X129630000Y-87765000D02*
X129630000Y-85030000D01*
X131465000Y-89600000D02*
X129630000Y-87765000D01*
X132095000Y-89825000D02*
X132410000Y-90140000D01*
X132685000Y-91065000D02*
X133100000Y-91065000D01*
D67*
%TO.N,Net-(J5-SIG)*%
X127020000Y-96622500D02*
X128562500Y-96622500D01*
X126710000Y-99610000D02*
X126710000Y-96932500D01*
X128562500Y-96622500D02*
X128585000Y-96600000D01*
X126710000Y-96932500D02*
X127020000Y-96622500D01*
%TO.N,Net-(ESP32S1-LNA_IN{slash}RF)*%
X128430000Y-85972500D02*
X128430000Y-86085393D01*
X127020000Y-94497500D02*
X128667500Y-94497500D01*
X127320000Y-94197500D02*
X127020000Y-94497500D01*
X127320000Y-88226713D02*
X127320000Y-94197500D01*
X128329141Y-86391666D02*
X127905786Y-86815021D01*
D61*
X128430000Y-85030000D02*
X128430000Y-85972500D01*
D67*
X128667500Y-94497500D02*
X128675000Y-94490000D01*
X127905779Y-86812493D02*
G75*
G03*
X127320000Y-88226713I1414221J-1414207D01*
G01*
X128329138Y-86391664D02*
G75*
G03*
X128430000Y-86085393I-430038J311364D01*
G01*
D59*
%TO.N,Net-(EC10-Pad1)*%
X129215000Y-89127500D02*
X129810000Y-89722500D01*
X128980000Y-87468687D02*
X128980000Y-86792500D01*
D62*
X129020000Y-85922500D02*
X129020000Y-86752500D01*
D61*
X129020000Y-85922500D02*
X129230000Y-85712500D01*
D62*
X129020000Y-86752500D02*
X128980000Y-86792500D01*
D61*
X128830000Y-85030000D02*
X128830000Y-85732500D01*
X129230000Y-85712500D02*
X129230000Y-85030000D01*
D59*
X128570000Y-87878687D02*
X128980000Y-87468687D01*
X128570000Y-88947500D02*
X128570000Y-87878687D01*
X128750000Y-89127500D02*
X129215000Y-89127500D01*
X128750000Y-89127500D02*
X128570000Y-88947500D01*
D61*
X128830000Y-85732500D02*
X129020000Y-85922500D01*
D59*
X129810000Y-89722500D02*
X130387500Y-89722500D01*
D65*
%TO.N,PWR_HOME*%
X152120000Y-84105000D02*
X152120000Y-85750000D01*
D66*
X114800000Y-99515000D02*
X114740000Y-97160000D01*
D65*
X153240000Y-97190000D02*
X152220000Y-98210000D01*
X152220000Y-98210000D02*
X152220000Y-98220000D01*
D66*
X117480000Y-114960000D02*
X117460000Y-114940000D01*
X120410000Y-114960000D02*
X119070000Y-114960000D01*
D65*
X152120000Y-85750000D02*
X153240000Y-86870000D01*
D66*
X119030000Y-114960000D02*
X117480000Y-114960000D01*
X121280000Y-114960000D02*
X120410000Y-114960000D01*
X119070000Y-114960000D02*
X119050000Y-114980000D01*
X114740000Y-97160000D02*
X114740000Y-95010000D01*
X114740000Y-95010000D02*
X114820000Y-94930000D01*
X117440000Y-114960000D02*
X117060000Y-114960000D01*
D65*
X152210000Y-98220000D02*
X152280000Y-98150000D01*
X152220000Y-98220000D02*
X152210000Y-98220000D01*
D66*
X122680000Y-123180000D02*
X122680000Y-116360000D01*
X119050000Y-114980000D02*
X119030000Y-114960000D01*
X122680000Y-116360000D02*
X121280000Y-114960000D01*
X117460000Y-114940000D02*
X117440000Y-114960000D01*
D65*
X153240000Y-86870000D02*
X153240000Y-97190000D01*
D60*
%TO.N,Net-(ESP32S1-GPIO15{slash}ADC2_CH4{slash}XTAL_32K_P)*%
X134467500Y-81792500D02*
X134487500Y-81772500D01*
X135560000Y-81772500D02*
X136025000Y-81307500D01*
X136025000Y-81307500D02*
X137221726Y-81307500D01*
D61*
X137940000Y-85430000D02*
X139330000Y-84040000D01*
D60*
X134487500Y-81772500D02*
X135560000Y-81772500D01*
X137221726Y-81307500D02*
X139575000Y-83660774D01*
D66*
%TO.N,Net-(J4-Pin_1)*%
X117670000Y-123180000D02*
X117670000Y-117540000D01*
D60*
%TO.N,Net-(ESP32S1-GPIO16{slash}ADC2_CH5{slash}XTAL_32K_N)*%
X139940000Y-83080000D02*
X140530000Y-83670000D01*
D65*
X139710000Y-89275000D02*
X139710000Y-87682500D01*
D60*
X139489200Y-83080000D02*
X139940000Y-83080000D01*
X137366700Y-80957500D02*
X139489200Y-83080000D01*
X140530000Y-86970000D02*
X139720000Y-87780000D01*
X135445026Y-81392500D02*
X135880026Y-80957500D01*
X139720000Y-87780000D02*
X139660000Y-87780000D01*
X140530000Y-83670000D02*
X140530000Y-86970000D01*
X134467500Y-81392500D02*
X135445026Y-81392500D01*
X135880026Y-80957500D02*
X137366700Y-80957500D01*
%TO.N,Net-(ESP32S1-XTAL_P)*%
X126800000Y-83392500D02*
X125520000Y-84672500D01*
X127592500Y-83392500D02*
X126800000Y-83392500D01*
X125520000Y-84672500D02*
X125520000Y-85740000D01*
D65*
X122697500Y-88692500D02*
X124262500Y-87127500D01*
D60*
X124637500Y-86622500D02*
X124340000Y-86622500D01*
X125520000Y-85740000D02*
X124637500Y-86622500D01*
%TO.N,VDD_SPI*%
X133640000Y-78152500D02*
X133640000Y-77010000D01*
%TO.N,Net-(ESP32S1-XTAL_N)*%
X125855026Y-83842500D02*
X125090000Y-83842500D01*
D65*
X122570000Y-83227500D02*
X122570000Y-84772500D01*
D60*
X122580000Y-83842500D02*
X125225026Y-83842500D01*
X126705026Y-82992500D02*
X125855026Y-83842500D01*
X127592500Y-82992500D02*
X126705026Y-82992500D01*
%TO.N,TXD0*%
X123095000Y-78612500D02*
X123082500Y-78600000D01*
X122840000Y-78600000D02*
X122350000Y-78110000D01*
X123082500Y-78600000D02*
X122840000Y-78600000D01*
X113190000Y-78960000D02*
X113140000Y-78910000D01*
X114610000Y-78960000D02*
X113190000Y-78960000D01*
%TO.N,Net-(ESP32S1-U0TXD{slash}PROG{slash}GPIO43)*%
X126303017Y-81392500D02*
X127095381Y-81392500D01*
X124745000Y-78612500D02*
X125460000Y-78612500D01*
X125460000Y-78612500D02*
X125490000Y-78642500D01*
X127592500Y-81392500D02*
X127095381Y-81392500D01*
X127100000Y-81392500D02*
X127095381Y-81392500D01*
X125780259Y-80869742D02*
X126303017Y-81392500D01*
%TO.N,ESP_GPIO0_BOOT-DTR*%
X130030000Y-87002500D02*
X130030000Y-85030000D01*
X126473166Y-82436834D02*
X125417500Y-83492500D01*
X127592500Y-82592500D02*
X126782500Y-82592500D01*
X124235000Y-83382500D02*
X124235000Y-83107500D01*
X124345000Y-83492500D02*
X124235000Y-83382500D01*
X125417500Y-83492500D02*
X124345000Y-83492500D01*
X130350000Y-87322500D02*
X130030000Y-87002500D01*
X126559128Y-82436834D02*
X126473166Y-82436834D01*
X126782500Y-82592500D02*
X126550000Y-82360000D01*
X114610000Y-80960000D02*
X112950000Y-80960000D01*
%TO.N,DAC_CALIBRATION*%
X135047500Y-80592500D02*
X135250000Y-80390000D01*
X134520000Y-80592500D02*
X135047500Y-80592500D01*
X135250000Y-80390000D02*
X135052500Y-80192500D01*
X135052500Y-80192500D02*
X134520000Y-80192500D01*
%TO.N,GPIO8_I2C_SDA*%
X136478983Y-77123517D02*
X137103306Y-76499194D01*
X137740000Y-113410000D02*
X138270000Y-113940000D01*
X142710000Y-120380000D02*
X142710000Y-118980000D01*
X143190000Y-120860000D02*
X142710000Y-120380000D01*
X135935000Y-73867500D02*
X135695000Y-73627500D01*
X129640000Y-78152500D02*
X129640000Y-76200000D01*
X135980000Y-73490000D02*
X135980000Y-71900000D01*
X142710000Y-118980000D02*
X143160000Y-118530000D01*
X137103306Y-76499194D02*
X137103306Y-75855806D01*
X137103306Y-75855806D02*
X135935000Y-74687500D01*
X135935000Y-74687500D02*
X135935000Y-73867500D01*
X141110000Y-98370000D02*
X141110000Y-98470000D01*
X135695000Y-73627500D02*
X134610000Y-73627500D01*
X146450000Y-114910000D02*
X146450000Y-120120000D01*
X139200000Y-96460000D02*
X141110000Y-98370000D01*
X136478983Y-77854656D02*
X136906827Y-78282500D01*
X143160000Y-118530000D02*
X143160000Y-118180000D01*
X135980000Y-71900000D02*
X135940000Y-71860000D01*
X136478983Y-77123517D02*
X136478983Y-77854656D01*
X136906827Y-78282500D02*
X137955000Y-78282500D01*
X138270000Y-113940000D02*
X145480000Y-113940000D01*
X145710000Y-120860000D02*
X143190000Y-120860000D01*
X129640000Y-76200000D02*
X129770000Y-76070000D01*
X146450000Y-120120000D02*
X145710000Y-120860000D01*
X145480000Y-113940000D02*
X146450000Y-114910000D01*
X136700000Y-96460000D02*
X139200000Y-96460000D01*
%TO.N,GPIO9_I2C_SCL*%
X137250000Y-74830000D02*
X137250000Y-73490000D01*
X141190000Y-118690000D02*
X141580000Y-119080000D01*
X139344974Y-96110000D02*
X140884974Y-97650000D01*
X130040000Y-78152500D02*
X130040000Y-76870000D01*
X136757500Y-70667500D02*
X134600000Y-70667500D01*
X130040000Y-76870000D02*
X130170000Y-76740000D01*
X137053983Y-77788517D02*
X137180000Y-77662500D01*
X140884974Y-97650000D02*
X141810000Y-97650000D01*
X136960000Y-95600000D02*
X137470000Y-96110000D01*
X137460000Y-75040000D02*
X137250000Y-74830000D01*
X141580000Y-119080000D02*
X141580000Y-120310000D01*
X137470000Y-96110000D02*
X139344974Y-96110000D01*
X137053983Y-77804017D02*
X137053983Y-77788517D01*
X141580000Y-120310000D02*
X140820000Y-121070000D01*
X137180000Y-77000000D02*
X137460000Y-76720000D01*
X137176233Y-77782500D02*
X137883767Y-77782500D01*
X137460000Y-76720000D02*
X137460000Y-75040000D01*
X137250000Y-71160000D02*
X136757500Y-70667500D01*
X137250000Y-73490000D02*
X137250000Y-71160000D01*
X141190000Y-118180000D02*
X141190000Y-118690000D01*
X137180000Y-77662500D02*
X137180000Y-77000000D01*
%TO.N,BAT_SENSE_IO21*%
X138690000Y-79792500D02*
X139230000Y-80332500D01*
X134467500Y-79792500D02*
X138690000Y-79792500D01*
X149230000Y-82655000D02*
X149240000Y-82645000D01*
X149230000Y-84135000D02*
X149230000Y-82655000D01*
%TO.N,SPICS1*%
X134467500Y-78992500D02*
X134467500Y-77340000D01*
%TO.N,SPIHD*%
X133240000Y-78152500D02*
X133240000Y-77170000D01*
%TO.N,SPIWP*%
X132840000Y-78152500D02*
X132840000Y-77220000D01*
%TO.N,SPICS0*%
X132440000Y-78152500D02*
X132440000Y-77290000D01*
%TO.N,SPICLK*%
X132040000Y-78152500D02*
X132040000Y-77200000D01*
%TO.N,SPIQ*%
X131640000Y-78152500D02*
X131640000Y-77270000D01*
%TO.N,SPID*%
X131240000Y-78152500D02*
X131240000Y-77270000D01*
%TO.N,unconnected-(ESP32S1-SPICLK_N{slash}GPIO48-Pad36)*%
X130840000Y-78152500D02*
X130840000Y-77210000D01*
%TO.N,unconnected-(ESP32S1-SPICLK_P{slash}GPIO47-Pad37)*%
X130440000Y-78152500D02*
X130440000Y-77160000D01*
%TO.N,unconnected-(ESP32S1-MTCK{slash}JTAG{slash}GPIO39-Pad44)*%
X126880000Y-79177119D02*
X126880000Y-78702500D01*
X127592500Y-79392500D02*
X127095381Y-79392500D01*
X127095381Y-79392500D02*
X126880000Y-79177119D01*
%TO.N,unconnected-(ESP32S1-MTDO{slash}JTAG{slash}GPIO40-Pad45)*%
X127000407Y-79792500D02*
X126530000Y-79322093D01*
X126530000Y-79322093D02*
X126530000Y-78672500D01*
X127592500Y-79792500D02*
X127000407Y-79792500D01*
%TO.N,unconnected-(ESP32S1-MTDI{slash}JTAG{slash}GPIO41-Pad47)*%
X127592500Y-80592500D02*
X126810459Y-80592500D01*
X126810459Y-80592500D02*
X126155229Y-79937271D01*
%TO.N,unconnected-(ESP32S1-MTMS{slash}JTAG{slash}GPIO42-Pad48)*%
X126715483Y-80992500D02*
X125792983Y-80070000D01*
X125792983Y-80070000D02*
X125612500Y-80070000D01*
X127592500Y-80992500D02*
X126715483Y-80992500D01*
%TO.N,RXD0*%
X125495000Y-81785000D02*
X126972500Y-81785000D01*
X113250000Y-79960000D02*
X113170000Y-80040000D01*
X127592500Y-81792500D02*
X127000407Y-81792500D01*
X126972500Y-81785000D02*
X126980000Y-81792500D01*
X114610000Y-79960000D02*
X113250000Y-79960000D01*
X125100000Y-81390000D02*
X125495000Y-81785000D01*
%TO.N,Net-(LED1-RA)*%
X136470000Y-118940000D02*
X136300000Y-119110000D01*
X136300000Y-121435000D02*
X136255000Y-121480000D01*
X136300000Y-119110000D02*
X136300000Y-121435000D01*
%TO.N,BAT_LEVEL_CH1*%
X143470000Y-111150000D02*
X142020000Y-109700000D01*
X137335026Y-109700000D02*
X134540000Y-106904974D01*
X142020000Y-109700000D02*
X137335026Y-109700000D01*
X134540000Y-106904974D02*
X134540000Y-106140000D01*
X146400000Y-111150000D02*
X143470000Y-111150000D01*
%TO.N,BAT_LEVEL_CH2*%
X146400000Y-108610000D02*
X142769948Y-108610000D01*
X142769948Y-108610000D02*
X142029948Y-109350000D01*
X142029948Y-109350000D02*
X138340000Y-109350000D01*
X135840000Y-106850000D02*
X135840000Y-106140000D01*
X138340000Y-109350000D02*
X135840000Y-106850000D01*
%TO.N,BAT_LEVEL_CH3*%
X146400000Y-106070000D02*
X144814974Y-106070000D01*
X144814974Y-106070000D02*
X141884974Y-109000000D01*
X141884974Y-109000000D02*
X138670000Y-109000000D01*
X138670000Y-109000000D02*
X136490000Y-106820000D01*
X136490000Y-106820000D02*
X136490000Y-106140000D01*
%TO.N,BAT_LEVEL_CH4*%
X146400000Y-103530000D02*
X146400000Y-103990000D01*
X141740000Y-108650000D02*
X138860000Y-108650000D01*
X146400000Y-103990000D02*
X141740000Y-108650000D01*
X138860000Y-108650000D02*
X137140000Y-106930000D01*
X137140000Y-106930000D02*
X137140000Y-106140000D01*
%TO.N,BAT_LEVEL_CH5*%
X146400000Y-95910000D02*
X144900000Y-97410000D01*
X141595026Y-108300000D02*
X139250000Y-108300000D01*
X137790000Y-106840000D02*
X137790000Y-106140000D01*
X144900000Y-97410000D02*
X144900000Y-104995026D01*
X144900000Y-104995026D02*
X141595026Y-108300000D01*
X139250000Y-108300000D02*
X137790000Y-106840000D01*
%TO.N,BAT_LEVEL_CH6*%
X144450000Y-104950052D02*
X141450052Y-107950000D01*
X146400000Y-93370000D02*
X144450000Y-95320000D01*
X141450052Y-107950000D02*
X139480000Y-107950000D01*
X138440000Y-106910000D02*
X138440000Y-106140000D01*
X144450000Y-95320000D02*
X144450000Y-104950052D01*
X139480000Y-107950000D02*
X138440000Y-106910000D01*
%TO.N,BAT_LEVEL_CH7*%
X141305078Y-107600000D02*
X139750000Y-107600000D01*
X144100000Y-104805078D02*
X141305078Y-107600000D01*
X146400000Y-90830000D02*
X144100000Y-93130000D01*
X139750000Y-107600000D02*
X139090000Y-106940000D01*
X144100000Y-93130000D02*
X144100000Y-104805078D01*
X139090000Y-106940000D02*
X139090000Y-106140000D01*
%TO.N,BAT_LEVEL_CH8*%
X140030000Y-107250000D02*
X139740000Y-106960000D01*
X146400000Y-88290000D02*
X143750000Y-90940000D01*
X139740000Y-106960000D02*
X139740000Y-106140000D01*
X141160000Y-107250000D02*
X140030000Y-107250000D01*
X143750000Y-90940000D02*
X143750000Y-104660000D01*
X143750000Y-104660000D02*
X141160000Y-107250000D01*
%TO.N,Net-(U3-OE)*%
X140390000Y-105950000D02*
X140390000Y-106140000D01*
X142070000Y-104270000D02*
X140390000Y-105950000D01*
X142070000Y-104045000D02*
X142070000Y-104270000D01*
%TO.N,unconnected-(ESP32S1-GPIO35-Pad40)*%
X129240000Y-78152500D02*
X129240000Y-77240000D01*
%TO.N,unconnected-(ESP32S1-GPIO36-Pad41)*%
X128840000Y-78152500D02*
X128840000Y-77145026D01*
%TO.N,unconnected-(ESP32S1-GPIO38-Pad43)*%
X127602500Y-77517500D02*
X127610000Y-77510000D01*
X127602500Y-78990000D02*
X127602500Y-77517500D01*
%TO.N,BAT_LEVEL_CH4_IO10*%
X137140000Y-99080000D02*
X137140000Y-100415000D01*
X135156327Y-85057277D02*
X134467500Y-84368450D01*
X135171096Y-85057277D02*
X135156327Y-85057277D01*
X137140000Y-99080000D02*
X137140000Y-98870000D01*
X135418276Y-85304457D02*
X135171096Y-85057277D01*
X134467500Y-84368450D02*
X134467500Y-84192500D01*
%TO.N,BAT_LEVEL_CH5_IO11*%
X137790000Y-98550000D02*
X137790000Y-100415000D01*
X135075026Y-83790000D02*
X135394500Y-84109474D01*
X135394500Y-84109474D02*
X135394500Y-84482277D01*
X134477500Y-83790000D02*
X135075026Y-83790000D01*
%TO.N,BAT_LEVEL_CH6_IO12*%
X134467500Y-83392500D02*
X135172500Y-83392500D01*
X138440000Y-99130000D02*
X138440000Y-100415000D01*
X135857537Y-84077537D02*
X136192474Y-84077537D01*
X135172500Y-83392500D02*
X135857537Y-84077537D01*
X138530000Y-99040000D02*
X138440000Y-99130000D01*
%TO.N,BAT_LEVEL_CH7_IO13*%
X135880513Y-83218758D02*
X135880513Y-83340987D01*
X139360000Y-98770000D02*
X139360000Y-99260000D01*
X135654255Y-82992500D02*
X134467500Y-82992500D01*
X135880513Y-83218758D02*
X135654255Y-82992500D01*
X135880513Y-83340987D02*
X135864500Y-83357000D01*
X139090000Y-99530000D02*
X139090000Y-100415000D01*
X139360000Y-99260000D02*
X139090000Y-99530000D01*
%TO.N,BAT_LEVEL_CH8_IO14*%
X140310000Y-99100000D02*
X139740000Y-99670000D01*
X136360500Y-82592500D02*
X134467500Y-82592500D01*
X136550500Y-82782500D02*
X136360500Y-82592500D01*
X139740000Y-99670000D02*
X139740000Y-100415000D01*
X140310000Y-98990000D02*
X140310000Y-99100000D01*
%TO.N,IMU_CS_IO21*%
X138400000Y-77292500D02*
X138890000Y-77782500D01*
X136960000Y-78920000D02*
X136487500Y-79392500D01*
X137940000Y-77292500D02*
X138400000Y-77292500D01*
X136487500Y-79392500D02*
X134467500Y-79392500D01*
%TO.N,unconnected-(ESP32S1-GPIO37-Pad42)*%
X128440000Y-78152500D02*
X128440000Y-77050000D01*
%TO.N,BUZZER_IO17*%
X133690000Y-114280000D02*
X131920000Y-116050000D01*
X133690000Y-105190000D02*
X133690000Y-114280000D01*
X137511674Y-80607500D02*
X139316674Y-82412500D01*
X131920000Y-116050000D02*
X126980000Y-116050000D01*
X135735052Y-80607500D02*
X136855000Y-80607500D01*
X135890000Y-102990000D02*
X133690000Y-105190000D01*
X136855000Y-80607500D02*
X137410000Y-80607500D01*
X139704500Y-102990000D02*
X135890000Y-102990000D01*
X136855000Y-80607500D02*
X137511674Y-80607500D01*
X139316674Y-82412500D02*
X139750000Y-82412500D01*
X134467500Y-80992500D02*
X135350052Y-80992500D01*
X135350052Y-80992500D02*
X135735052Y-80607500D01*
D66*
%TO.N,LINE_OUT*%
X112930000Y-89770000D02*
X112370000Y-90330000D01*
X112370000Y-99520000D02*
X112280000Y-99610000D01*
X112370000Y-90330000D02*
X112370000Y-99520000D01*
D61*
%TO.N,Net-(ACS1-FILTER)*%
X112180000Y-105750000D02*
X112180000Y-106485000D01*
X112905000Y-105025000D02*
X112180000Y-105750000D01*
X112180000Y-106485000D02*
X112115000Y-106550000D01*
X112905000Y-104095000D02*
X112905000Y-105025000D01*
%TO.N,Net-(ACS1-VIOUT)*%
X113910000Y-105710000D02*
X113910000Y-106445000D01*
X114175000Y-105445000D02*
X113910000Y-105710000D01*
X114175000Y-104095000D02*
X114175000Y-105445000D01*
D60*
%TO.N,ACS_HALL_IO01*%
X130430000Y-86512396D02*
X130950000Y-87032396D01*
D61*
X112275000Y-108220000D02*
X113785000Y-108220000D01*
D60*
X130430000Y-85030000D02*
X130430000Y-86512396D01*
X130950000Y-88180000D02*
X131030000Y-88260000D01*
X130950000Y-87032396D02*
X130950000Y-88180000D01*
X114000000Y-108235000D02*
X114000000Y-109130000D01*
D61*
X113785000Y-108220000D02*
X113910000Y-108095000D01*
D60*
%TO.N,LED_R_IO02*%
X137905000Y-121480000D02*
X138460000Y-121480000D01*
X130830000Y-86417422D02*
X131760000Y-87347422D01*
X131760000Y-87347422D02*
X131760000Y-88750000D01*
X138460000Y-121480000D02*
X138620000Y-121640000D01*
X130830000Y-85030000D02*
X130830000Y-86417422D01*
%TO.N,LED_G_IO04*%
X131630000Y-86722448D02*
X132490000Y-87582448D01*
X131630000Y-85030000D02*
X131630000Y-86722448D01*
X132490000Y-87582448D02*
X132490000Y-88240000D01*
X137610000Y-118940000D02*
X137610000Y-120320000D01*
%TO.N,LED_B_IO05*%
X132030000Y-85030000D02*
X132030000Y-86627474D01*
X132030000Y-86627474D02*
X133146263Y-87743737D01*
X137620000Y-115760000D02*
X137620000Y-114670000D01*
X133146263Y-87743737D02*
X133146263Y-88491522D01*
X133146263Y-88491522D02*
X133220241Y-88565500D01*
%TO.N,BAT_LEVEL_CH1_IO7*%
X132830000Y-85980000D02*
X132510000Y-86300000D01*
X134540000Y-99360000D02*
X134540000Y-100415000D01*
X134240000Y-99060000D02*
X134540000Y-99360000D01*
X132830000Y-85030000D02*
X132830000Y-85980000D01*
%TO.N,BAT_LEVEL_CH2_IO8*%
X135840000Y-99470000D02*
X135840000Y-100415000D01*
X135440000Y-99070000D02*
X135840000Y-99470000D01*
X133870500Y-87165153D02*
X133230000Y-86524653D01*
X133230000Y-86524653D02*
X133230000Y-85030000D01*
%TO.N,BAT_LEVEL_CH3_IO9*%
X136370000Y-98730000D02*
X136370000Y-100295000D01*
X133630000Y-85792466D02*
X133630000Y-85030000D01*
X136370000Y-100295000D02*
X136490000Y-100415000D01*
X134237460Y-86399926D02*
X133630000Y-85792466D01*
%TD*%
%TA.AperFunction,Conductor*%
%TO.N,GND*%
G36*
X133032668Y-92860611D02*
G01*
X133079268Y-92912670D01*
X133091312Y-92964688D01*
X133216092Y-104818840D01*
X133197114Y-104886083D01*
X133190476Y-104895630D01*
X133187302Y-104899766D01*
X133129313Y-105039764D01*
X133114500Y-105152280D01*
X133114500Y-105152286D01*
X133109534Y-105189999D01*
X133113439Y-105219653D01*
X133114500Y-105235839D01*
X133114500Y-113990256D01*
X133094815Y-114057295D01*
X133078181Y-114077937D01*
X132499902Y-114656216D01*
X132438579Y-114689701D01*
X132412568Y-114692535D01*
X128578533Y-114703250D01*
X128511438Y-114683752D01*
X128478919Y-114653561D01*
X128435046Y-114594954D01*
X128319831Y-114508704D01*
X128184983Y-114458409D01*
X128128666Y-114452354D01*
X128128665Y-114452353D01*
X128125373Y-114452000D01*
X128122050Y-114452000D01*
X125837939Y-114452000D01*
X125837920Y-114452000D01*
X125834628Y-114452001D01*
X125831348Y-114452353D01*
X125831340Y-114452354D01*
X125775015Y-114458409D01*
X125640169Y-114508704D01*
X125524951Y-114594956D01*
X125474377Y-114662514D01*
X125418443Y-114704385D01*
X125375458Y-114712203D01*
X122506849Y-114720220D01*
X122439754Y-114700722D01*
X122418821Y-114683901D01*
X121997567Y-114262647D01*
X121995374Y-114260398D01*
X121935059Y-114196946D01*
X121886642Y-114163247D01*
X121879119Y-114157575D01*
X121833405Y-114120300D01*
X121806440Y-114106215D01*
X121793019Y-114098084D01*
X121768049Y-114080705D01*
X121768048Y-114080704D01*
X121768046Y-114080703D01*
X121713845Y-114057443D01*
X121705336Y-114053402D01*
X121653053Y-114026092D01*
X121647126Y-114024396D01*
X121623798Y-114017721D01*
X121609020Y-114012459D01*
X121581058Y-114000460D01*
X121523272Y-113988583D01*
X121514128Y-113986338D01*
X121457421Y-113970113D01*
X121427075Y-113967802D01*
X121411534Y-113965622D01*
X121381742Y-113959500D01*
X121381741Y-113959500D01*
X121322758Y-113959500D01*
X121313344Y-113959142D01*
X121304198Y-113958445D01*
X121254524Y-113954663D01*
X121254523Y-113954663D01*
X121254522Y-113954663D01*
X121224349Y-113958506D01*
X121208683Y-113959500D01*
X119084242Y-113959500D01*
X119081103Y-113959460D01*
X119077853Y-113959377D01*
X119063884Y-113959023D01*
X119057619Y-113958705D01*
X119004523Y-113954662D01*
X118974349Y-113958506D01*
X118958683Y-113959500D01*
X117687616Y-113959500D01*
X117653505Y-113954716D01*
X117637419Y-113950113D01*
X117632460Y-113949735D01*
X117621345Y-113948888D01*
X117602742Y-113946038D01*
X117596756Y-113944649D01*
X117587050Y-113942397D01*
X117513837Y-113940542D01*
X117507566Y-113940224D01*
X117434521Y-113934662D01*
X117418534Y-113936698D01*
X117399735Y-113937651D01*
X117383637Y-113937243D01*
X117311554Y-113950162D01*
X117305347Y-113951113D01*
X117258294Y-113957106D01*
X117247306Y-113958506D01*
X117231640Y-113959500D01*
X117009258Y-113959500D01*
X117006147Y-113959816D01*
X117006134Y-113959817D01*
X116857559Y-113974926D01*
X116663412Y-114035841D01*
X116485500Y-114134589D01*
X116485497Y-114134591D01*
X116485498Y-114134591D01*
X116338952Y-114260398D01*
X116331104Y-114267135D01*
X116206551Y-114428042D01*
X116116938Y-114610731D01*
X116107931Y-114645521D01*
X116072071Y-114705486D01*
X116009484Y-114736544D01*
X115988237Y-114738439D01*
X115553212Y-114739655D01*
X115486117Y-114720157D01*
X115440215Y-114667482D01*
X115428870Y-114616795D01*
X115369969Y-108190635D01*
X115389038Y-108123418D01*
X115441421Y-108077181D01*
X115493960Y-108065499D01*
X115868344Y-108065499D01*
X115967708Y-108055349D01*
X116128697Y-108002003D01*
X116273044Y-107912968D01*
X116392968Y-107793044D01*
X116482003Y-107648697D01*
X116535349Y-107487708D01*
X116545500Y-107388345D01*
X116545499Y-106791656D01*
X116535349Y-106692292D01*
X116482003Y-106531303D01*
X116482002Y-106531302D01*
X116482002Y-106531300D01*
X116392968Y-106386955D01*
X116273045Y-106267032D01*
X116158385Y-106196308D01*
X116111661Y-106144360D01*
X116100440Y-106075397D01*
X116118489Y-106024798D01*
X116165789Y-105949522D01*
X116225368Y-105779255D01*
X116245565Y-105600000D01*
X116225368Y-105420745D01*
X116180936Y-105293768D01*
X116177375Y-105223990D01*
X116191245Y-105189695D01*
X116196744Y-105180398D01*
X116242598Y-105022569D01*
X116245500Y-104985694D01*
X116245500Y-103204306D01*
X116242598Y-103167431D01*
X116196744Y-103009602D01*
X116113081Y-102868135D01*
X115996865Y-102751919D01*
X115996864Y-102751919D01*
X115855397Y-102668255D01*
X115697572Y-102622402D01*
X115663128Y-102619691D01*
X115663114Y-102619690D01*
X115660694Y-102619500D01*
X115441774Y-102619500D01*
X115374735Y-102599815D01*
X115328980Y-102547011D01*
X115317779Y-102496637D01*
X115301729Y-100745637D01*
X115320798Y-100678419D01*
X115373181Y-100632183D01*
X115425724Y-100620500D01*
X115658249Y-100620500D01*
X115660694Y-100620500D01*
X115697569Y-100617598D01*
X115855398Y-100571744D01*
X115996865Y-100488081D01*
X116113081Y-100371865D01*
X116196744Y-100230398D01*
X116242598Y-100072569D01*
X116245500Y-100035694D01*
X116245500Y-98254306D01*
X116242598Y-98217431D01*
X116196744Y-98059602D01*
X116113081Y-97918135D01*
X115996865Y-97801919D01*
X115855398Y-97718256D01*
X115841352Y-97714175D01*
X115782467Y-97676567D01*
X115753263Y-97613094D01*
X115751990Y-97598257D01*
X115740540Y-97148828D01*
X115740500Y-97145670D01*
X115740500Y-95359154D01*
X115751240Y-95315399D01*
X115750441Y-95315171D01*
X115809887Y-95107419D01*
X115815365Y-95035476D01*
X115825337Y-94904524D01*
X115799630Y-94702672D01*
X115733816Y-94510128D01*
X115630590Y-94334773D01*
X115494179Y-94183787D01*
X115494178Y-94183786D01*
X115494176Y-94183784D01*
X115330167Y-94063350D01*
X115311601Y-94054820D01*
X115258903Y-94008943D01*
X115239379Y-93943285D01*
X115231149Y-93045452D01*
X115250219Y-92978239D01*
X115302601Y-92932002D01*
X115355457Y-92920320D01*
X119016603Y-92929684D01*
X119083591Y-92949540D01*
X119129211Y-93002461D01*
X119140285Y-93053397D01*
X119170571Y-106144360D01*
X119180000Y-110220000D01*
X123093154Y-110177674D01*
X123160399Y-110196632D01*
X123163383Y-110198564D01*
X123237929Y-110248374D01*
X123244803Y-110256599D01*
X123251433Y-110259551D01*
X123269889Y-110269729D01*
X123310451Y-110296832D01*
X123310391Y-110296920D01*
X123313696Y-110298771D01*
X123335421Y-110304596D01*
X123414545Y-110337370D01*
X123423713Y-110344758D01*
X123430374Y-110346174D01*
X123452047Y-110352903D01*
X123477351Y-110363384D01*
X123500537Y-110370750D01*
X123521397Y-110372051D01*
X123605482Y-110388777D01*
X123616777Y-110394686D01*
X123622972Y-110394686D01*
X123647163Y-110397069D01*
X123664412Y-110400500D01*
X123672931Y-110400500D01*
X123698025Y-110403137D01*
X123717121Y-110400500D01*
X123802878Y-110400500D01*
X123815961Y-110404341D01*
X123821287Y-110403210D01*
X123847068Y-110400500D01*
X123855588Y-110400500D01*
X123872837Y-110397069D01*
X123897028Y-110394686D01*
X123897649Y-110394686D01*
X123914514Y-110388778D01*
X123998601Y-110372052D01*
X124012993Y-110373339D01*
X124017187Y-110371473D01*
X124042653Y-110363382D01*
X124043081Y-110363204D01*
X124043084Y-110363204D01*
X124067952Y-110352903D01*
X124089628Y-110346172D01*
X124091222Y-110345833D01*
X124105453Y-110337370D01*
X124184575Y-110304597D01*
X124199676Y-110302973D01*
X124202629Y-110300828D01*
X124209606Y-110296921D01*
X124209547Y-110296833D01*
X124219704Y-110290046D01*
X124250121Y-110269721D01*
X124268572Y-110259547D01*
X124270868Y-110258524D01*
X124282071Y-110248374D01*
X124378516Y-110183932D01*
X124445193Y-110163054D01*
X124445965Y-110163042D01*
X125242313Y-110154429D01*
X125309558Y-110173387D01*
X125317962Y-110179155D01*
X125394043Y-110236110D01*
X125417669Y-110253796D01*
X125552517Y-110304091D01*
X125612127Y-110310500D01*
X127807872Y-110310499D01*
X127867483Y-110304091D01*
X128002331Y-110253796D01*
X128117546Y-110167546D01*
X128117546Y-110167545D01*
X128131818Y-110156862D01*
X128132755Y-110158114D01*
X128170149Y-110130119D01*
X128212139Y-110122307D01*
X129350000Y-110110000D01*
X129287124Y-100624819D01*
X129306363Y-100557653D01*
X129358863Y-100511550D01*
X129411121Y-100500000D01*
X130830000Y-100500000D01*
X130830000Y-98696936D01*
X129051410Y-98696936D01*
X128984371Y-98677251D01*
X128977100Y-98672203D01*
X128922333Y-98631205D01*
X128922331Y-98631204D01*
X128787483Y-98580909D01*
X128727873Y-98574500D01*
X128724551Y-98574500D01*
X128188267Y-98574500D01*
X128121228Y-98554815D01*
X128113964Y-98549773D01*
X128002331Y-98466204D01*
X127867483Y-98415909D01*
X127807873Y-98409500D01*
X127804551Y-98409500D01*
X127494500Y-98409500D01*
X127427461Y-98389815D01*
X127381706Y-98337011D01*
X127370500Y-98285500D01*
X127370500Y-97680514D01*
X127390185Y-97613475D01*
X127442989Y-97567720D01*
X127481894Y-97557157D01*
X127547685Y-97550436D01*
X127707287Y-97497549D01*
X127831801Y-97420746D01*
X127899190Y-97402307D01*
X127961993Y-97420748D01*
X128061300Y-97482002D01*
X128222292Y-97535349D01*
X128318522Y-97545180D01*
X128318523Y-97545180D01*
X128321655Y-97545500D01*
X128868344Y-97545499D01*
X128967708Y-97535349D01*
X129128697Y-97482003D01*
X129273044Y-97392968D01*
X129392968Y-97273044D01*
X129469586Y-97148828D01*
X129482002Y-97128699D01*
X129501084Y-97071115D01*
X129535349Y-96967708D01*
X129545500Y-96868345D01*
X129545499Y-96271656D01*
X129535349Y-96172292D01*
X129482003Y-96011303D01*
X129482002Y-96011302D01*
X129482002Y-96011300D01*
X129392968Y-95866955D01*
X129273044Y-95747031D01*
X129128699Y-95657997D01*
X128967707Y-95604650D01*
X128871477Y-95594819D01*
X128871458Y-95594818D01*
X128868345Y-95594500D01*
X128865196Y-95594500D01*
X128324805Y-95594500D01*
X128324785Y-95594500D01*
X128321656Y-95594501D01*
X128318524Y-95594820D01*
X128318522Y-95594821D01*
X128222292Y-95604650D01*
X128061300Y-95657997D01*
X127916954Y-95747031D01*
X127906035Y-95757951D01*
X127844711Y-95791435D01*
X127775020Y-95786449D01*
X127753259Y-95775807D01*
X127707286Y-95747450D01*
X127547685Y-95694563D01*
X127452306Y-95684819D01*
X127452287Y-95684818D01*
X127449174Y-95684500D01*
X126590826Y-95684500D01*
X126587713Y-95684817D01*
X126587693Y-95684819D01*
X126492314Y-95694563D01*
X126332714Y-95747450D01*
X126189606Y-95835720D01*
X126070720Y-95954606D01*
X125982450Y-96097714D01*
X125929563Y-96257314D01*
X125919819Y-96352693D01*
X125919817Y-96352713D01*
X125919500Y-96355826D01*
X125919500Y-96889174D01*
X125919818Y-96892287D01*
X125919819Y-96892306D01*
X125929563Y-96987685D01*
X125982450Y-97147286D01*
X126031038Y-97226057D01*
X126049500Y-97291155D01*
X126049500Y-98285500D01*
X126029815Y-98352539D01*
X125977011Y-98398294D01*
X125925500Y-98409500D01*
X125615439Y-98409500D01*
X125615420Y-98409500D01*
X125612128Y-98409501D01*
X125608848Y-98409853D01*
X125608840Y-98409854D01*
X125552515Y-98415909D01*
X125417669Y-98466204D01*
X125302454Y-98552454D01*
X125216204Y-98667668D01*
X125216203Y-98667669D01*
X125216204Y-98667669D01*
X125165909Y-98802517D01*
X125159500Y-98862127D01*
X125159500Y-98865448D01*
X125159500Y-98865449D01*
X125159500Y-99446990D01*
X125139815Y-99514029D01*
X125087011Y-99559784D01*
X125036113Y-99570988D01*
X124648592Y-99572904D01*
X124581456Y-99553552D01*
X124544877Y-99517797D01*
X124513836Y-99471341D01*
X124437091Y-99394596D01*
X124432494Y-99386177D01*
X124426411Y-99381758D01*
X124411616Y-99369121D01*
X124378658Y-99336163D01*
X124282069Y-99271624D01*
X124275194Y-99263397D01*
X124268562Y-99260445D01*
X124250107Y-99250268D01*
X124209549Y-99223168D01*
X124209607Y-99223080D01*
X124206304Y-99221229D01*
X124184576Y-99215403D01*
X124105451Y-99182628D01*
X124096283Y-99175240D01*
X124089620Y-99173824D01*
X124067952Y-99167096D01*
X124043084Y-99156796D01*
X124043083Y-99156795D01*
X124042647Y-99156615D01*
X124019466Y-99149249D01*
X123998602Y-99147947D01*
X123914518Y-99131222D01*
X123903223Y-99125314D01*
X123897028Y-99125314D01*
X123872837Y-99122931D01*
X123855588Y-99119500D01*
X123855586Y-99119500D01*
X123847073Y-99119500D01*
X123821974Y-99116861D01*
X123802879Y-99119500D01*
X123717120Y-99119500D01*
X123704034Y-99115657D01*
X123698707Y-99116790D01*
X123672926Y-99119500D01*
X123664412Y-99119500D01*
X123647163Y-99122931D01*
X123622972Y-99125314D01*
X123622349Y-99125314D01*
X123605481Y-99131222D01*
X123521397Y-99147947D01*
X123507003Y-99146659D01*
X123502804Y-99148529D01*
X123477357Y-99156613D01*
X123462170Y-99162903D01*
X123452047Y-99167096D01*
X123430379Y-99173824D01*
X123428783Y-99174163D01*
X123414547Y-99182629D01*
X123335421Y-99215404D01*
X123320317Y-99217027D01*
X123317361Y-99219176D01*
X123310390Y-99223080D01*
X123310450Y-99223169D01*
X123269891Y-99250269D01*
X123251439Y-99260445D01*
X123249139Y-99261468D01*
X123237931Y-99271624D01*
X123141338Y-99336166D01*
X123108382Y-99369121D01*
X123093592Y-99381754D01*
X123090962Y-99383664D01*
X123082907Y-99394597D01*
X123006165Y-99471338D01*
X122974396Y-99518884D01*
X122963442Y-99532967D01*
X122956477Y-99540702D01*
X122896989Y-99577349D01*
X122864942Y-99581725D01*
X119294054Y-99599386D01*
X119226918Y-99580034D01*
X119180903Y-99527457D01*
X119169442Y-99475946D01*
X119168123Y-99182628D01*
X119140556Y-93053809D01*
X119159939Y-92986684D01*
X119212537Y-92940692D01*
X119263806Y-92929256D01*
X126534760Y-92885620D01*
X126601912Y-92904901D01*
X126647983Y-92957430D01*
X126659500Y-93009617D01*
X126659500Y-93440506D01*
X126639815Y-93507545D01*
X126587011Y-93553300D01*
X126548103Y-93563864D01*
X126492314Y-93569563D01*
X126332714Y-93622450D01*
X126189606Y-93710720D01*
X126070720Y-93829606D01*
X125982450Y-93972714D01*
X125929563Y-94132314D01*
X125919819Y-94227693D01*
X125919817Y-94227713D01*
X125919500Y-94230826D01*
X125919500Y-94764174D01*
X125919818Y-94767287D01*
X125919819Y-94767306D01*
X125929563Y-94862685D01*
X125982450Y-95022285D01*
X126070720Y-95165393D01*
X126189606Y-95284279D01*
X126189608Y-95284280D01*
X126189609Y-95284281D01*
X126332713Y-95372549D01*
X126412514Y-95398992D01*
X126492314Y-95425436D01*
X126587693Y-95435180D01*
X126587694Y-95435180D01*
X126590826Y-95435500D01*
X126593975Y-95435500D01*
X127446025Y-95435500D01*
X127449174Y-95435500D01*
X127547685Y-95425436D01*
X127707287Y-95372549D01*
X127850391Y-95284281D01*
X127940354Y-95194317D01*
X128001675Y-95160834D01*
X128028034Y-95158000D01*
X128061010Y-95158000D01*
X128126106Y-95176461D01*
X128151303Y-95192003D01*
X128312292Y-95245348D01*
X128312292Y-95245349D01*
X128408522Y-95255180D01*
X128408523Y-95255180D01*
X128411655Y-95255500D01*
X128958344Y-95255499D01*
X129057708Y-95245349D01*
X129218697Y-95192003D01*
X129261842Y-95165391D01*
X129363044Y-95102968D01*
X129482968Y-94983044D01*
X129572002Y-94838699D01*
X129597741Y-94761025D01*
X129625349Y-94677708D01*
X129635500Y-94578345D01*
X129635499Y-93981656D01*
X129625349Y-93882292D01*
X129572003Y-93721303D01*
X129572002Y-93721302D01*
X129572002Y-93721300D01*
X129482968Y-93576955D01*
X129363044Y-93457031D01*
X129218699Y-93367997D01*
X129057707Y-93314650D01*
X128961477Y-93304819D01*
X128961458Y-93304818D01*
X128958345Y-93304500D01*
X128955196Y-93304500D01*
X128414805Y-93304500D01*
X128414785Y-93304500D01*
X128411656Y-93304501D01*
X128408524Y-93304820D01*
X128408522Y-93304821D01*
X128312290Y-93314650D01*
X128143503Y-93370581D01*
X128073675Y-93372983D01*
X128013633Y-93337251D01*
X127982441Y-93274730D01*
X127980500Y-93252875D01*
X127980500Y-93000201D01*
X128000185Y-92933162D01*
X128052989Y-92887407D01*
X128103751Y-92876204D01*
X132470000Y-92850000D01*
X132965326Y-92842010D01*
X133032668Y-92860611D01*
G37*
%TD.AperFunction*%
%TD*%
M02*
